<ttFont>
<head>
    <!-- Most of this table will be recalculated by the compiler -->
    <tableVersion value="1.0"/>
    <fontRevision value="1.002"/>
    <checkSumAdjustment value="0x40511863"/>
    <magicNumber value="0x5f0f3cf5"/>
    <flags value="00000000 00001011"/>
    <unitsPerEm value="1000"/>
    <created value="Thu Jan 14 16:31:01 2016"/>
    <modified value="Thu Jan  2 08:44:59 2020"/>
    <xMin value="-1628"/>
    <yMin value="-371"/>
    <xMax value="717"/>
    <yMax value="1130"/>
    <macStyle value="00000000 00000010"/>
    <lowestRecPPEM value="8"/>
    <fontDirectionHint value="2"/>
    <indexToLocFormat value="0"/>
    <glyphDataFormat value="0"/>
  </head>
          <CharString index="0">
            -38 -29 -30 -37 -38 29 -29 38 39 28 29 38 hvcurveto
            37 -28 30 -39 vhcurveto
            return
          </CharString>
          <CharString index="1">
            85 249 4 36 -96 0 -48 -285 rlineto
            return
          </CharString>
          <CharString index="2">
            -268 -181 -106 -153 0 -167 0 -123 61 -133 147 -162 rrcurveto
            61 45 rlineto
            -137 145 -55 118 0 111 0 147 84 134 255 165 rrcurveto
            return
          </CharString>
          <CharString index="3">
            268 181 106 153 0 167 0 123 -61 133 -147 162 rrcurveto
            -61 -45 rlineto
            138 -145 55 -118 0 -111 0 -147 -85 -134 -255 -165 rrcurveto
            return
          </CharString>
          <CharString index="4">
            80 6 rlineto
            -17 207 -20 206 -22 206 rrcurveto
            -114 hlineto
            return
          </CharString>
          <CharString index="5">
            -104 -207 -101 -208 -95 -207 rrcurveto
            82 hlineto
            28 63 29 63 29 63 rrcurveto
            211 hlineto
            5 -64 4 -64 5 -64 rrcurveto
            return
          </CharString>
          <CharString index="6">
            7 hlineto
            10 -99 9 -101 8 -100 rrcurveto
            -177 hlineto
            47 100 47 101 49 99 rrcurveto
            return
          </CharString>
          <CharString index="7">
            -174 -138 -198 -212 hvcurveto
            0 -209 143 -79 244 87 rrcurveto
            8 73 rlineto
            -206 -76 -108 48 0 170 0 156 92 168 123 0 71 0 11 -54 -2 -106 rrcurveto
            76 1 rlineto
            7 152 -33 79 -114 0 rrcurveto
            return
          </CharString>
          <CharString index="8">
            0 194 -126 79 -233 -39 rrcurveto
            return
          </CharString>
          <CharString index="9">
            -120 -618 rlineto
            332 -43 147 199 0 228 rrcurveto
            return
          </CharString>
          <CharString index="10">
            0 -176 -99 -152 -206 17 rrcurveto
            96 493 rlineto
            137 15 72 -58 0 -139 rrcurveto
            return
          </CharString>
          <CharString index="11">
            -291 0 42 214 244 0 12 61 -244 0 40 207 288 0 14 69 -370 0 -120 -620 367 0 rlineto
            return
          </CharString>
          <CharString index="12">
            83 352 -77 -3 -37 -164 rlineto
            -147 -49 -79 54 0 151 0 159 89 170 119 0 68 0 13 -55 -3 -104 rrcurveto
            76 hlineto
            7 157 -38 74 -110 0 -165 0 -138 -199 0 -215 rrcurveto
            return
          </CharString>
          <CharString index="13">
            0 -183 109 -83 183 51 rrcurveto
            -26 -114 rlineto
            return
          </CharString>
          <CharString index="14">
            95 490 145 0 12 65 -375 0 -13 -65 150 0 -95 -490 -147 0 -13 -65 376 0 15 65 rlineto
            return
          </CharString>
          <CharString index="15">
            86 11 -178 306 281 309 -88 0 -282 -308 rlineto
            return
          </CharString>
          <CharString index="16">
            -121 -620 81 0 121 620 rlineto
            return
          </CharString>
          <CharString index="17">
            15 70 -304 0 106 550 -82 0 -120 -620 rlineto
            return
          </CharString>
          <CharString index="18">
            121 620 -76 0 -91 -479 -5 0 rlineto
            return
          </CharString>
          <CharString index="19">
            -136 480 -85 -2 -120 -619 76 0 rlineto
            return
          </CharString>
          <CharString index="20">
            92 489 5 0 rlineto
            return
          </CharString>
          <CharString index="21">
            -169 -121 -204 -208 -157 74 -75 106 169 121 203 208 157 -74 76 -106 hvcurveto
            return
          </CharString>
          <CharString index="22">
            -65 -42 54 113 166 80 171 115 65 42 -54 -113 -166 -80 -171 -115 hvcurveto
            return
          </CharString>
          <CharString index="23">
            88 12 -156 260 rlineto
            117 57 70 67 0 91 0 99 -94 72 -258 -34 rrcurveto
            return
          </CharString>
          <CharString index="24">
            -120 -618 80 0 108 554 rlineto
            136 16 67 -36 0 -69 0 -70 -58 -52 -142 -63 rrcurveto
            -1 -3 rlineto
            return
          </CharString>
          <CharString index="25">
            -16 111 -53 60 -103 0 -127 0 -90 -87 0 -95 0 -145 255 -64 0 -102 0 -61 -83 -47 -250 64 rrcurveto
            return
          </CharString>
          <CharString index="26">
            311 -66 121 96 0 101 0 139 -256 60 0 115 0 56 48 48 68 0 67 0 38 -35 14 -82 rrcurveto
            return
          </CharString>
          <CharString index="27">
            192 0 13 70 -465 0 -13 -70 192 0 -107 -550 81 0 rlineto
            return
          </CharString>
          <CharString index="28">
            77 399 -81 0 -78 -400 rlineto
            -30 -158 67 -76 129 0 117 0 82 69 28 147 rrcurveto
            82 418 -81 0 -82 -420 rlineto
            -19 -98 -46 -45 -72 0 -81 0 -35 50 23 114 rrcurveto
            return
          </CharString>
          <CharString index="29">
            86 hlineto
            39 117 67 236 64 267 rrcurveto
            -78 hlineto
            -29 -125 -80 -328 -19 -62 rrcurveto
            -3 0 -23 331 -49 0 rlineto
            return
          </CharString>
          <CharString index="30">
            -151 -331 -4 0 rlineto
            5 62 47 328 19 125 rrcurveto
            -80 hlineto
            -39 -266 -24 -236 -5 -118 rrcurveto
            85 0 149 327 rlineto
            return
          </CharString>
          <CharString index="31">
            286 417 -87 0 -222 -334 rlineto
            return
          </CharString>
          <CharString index="32">
            -97 336 -83 -4 123 -409 -40 -209 rlineto
            return
          </CharString>
          <CharString index="33">
            13 71 -321 -1 411 481 12 69 -403 0 -14 -71 314 1 -414 -481 -12 -69 rlineto
            return
          </CharString>
          <CharString index="34">
            311 0 13 64 -234 0 145 745 233 0 13 64 -311 0 rlineto
            return
          </CharString>
          <CharString index="35">
            -311 0 -12 -64 233 0 -144 -745 -233 0 -13 -64 310 0 rlineto
            return
          </CharString>
          <CharString index="36">
            -57 44 -80 79 -50 59 rrcurveto
            -53 -62 rlineto
            58 -53 99 -67 63 -33 rrcurveto
            return
          </CharString>
          <CharString index="37">
            -36 -28 29 69 137 79 135 98 hvcurveto
            23 0 35 -5 36 -11 -15 -76 -27 -137 -10 -51 rrcurveto
            -49 -49 -64 -41 -42 0 rrcurveto
            return
          </CharString>
          <CharString index="38">
            -8 40 rlineto
            -94 -35 -6 16 14 69 rrcurveto
            return
          </CharString>
          <CharString index="39">
            -51 14 -47 7 -42 0 rrcurveto
            -177 -121 -174 -183 -103 44 -50 60 hvcurveto
            56 0 71 47 59 58 -12 -103 39 -41 146 86 rrcurveto
            return
          </CharString>
          <CharString index="40">
            5 118 -42 49 -92 0 -158 0 -136 -154 0 -171 0 -163 136 -89 253 123 rrcurveto
            -10 42 rlineto
            -209 -66 -92 38 0 128 0 130 88 115 108 0 53 0 23 -26 1 -74 rrcurveto
            return
          </CharString>
          <CharString index="41">
            -39 -30 35 74 132 79 132 97 hvcurveto
            23 0 36 -6 38 -11 rrcurveto
            -53 -270 rlineto
            -46 -48 -61 -38 -44 0 rrcurveto
            return
          </CharString>
          <CharString index="42">
            -9 39 rlineto
            -95 -36 -6 16 14 72 rrcurveto
            112 574 -78 -6 -39 -202 rlineto
            return
          </CharString>
          <CharString index="43">
            -27 4 -24 2 -22 0 rrcurveto
            -174 -119 -169 -180 -108 47 -54 62 hvcurveto
            55 0 70 44 56 56 rrcurveto
            -10 -99 41 -38 146 85 rrcurveto
            return
          </CharString>
          <CharString index="44">
            -10 41 rlineto
            -227 -75 -95 33 0 129 rrcurveto
            1 vlineto
            230 17 129 69 0 114 rrcurveto
            72 -53 45 -86 -169 -127 -173 -155 vhcurveto
            0 -164 142 -90 266 136 rrcurveto
            return
          </CharString>
          <CharString index="45">
            51 32 -27 -40 hvcurveto
            0 -82 -110 -45 -170 -12 17 104 74 102 106 0 rrcurveto
            return
          </CharString>
          <CharString index="46">
            25 50 -25 70 0 130 0 13 1 16 1 17 52 101 45 124 0 35 0 15 -32 13 -20 0 -7 0 -9 -9 -10 -16 -34 16 -34 8 -36 0 rrcurveto
            -165 -118 -158 -165 -103 51 -51 68 hvcurveto
            65 0 63 46 49 61 rrcurveto
            return
          </CharString>
          <CharString index="47">
            2 -103 22 -74 -25 -24 -20 -21 -84 -19 -194 16 rrcurveto
            return
          </CharString>
          <CharString index="48">
            -8 -76 rlineto
            237 -14 109 40 31 62 rrcurveto
            return
          </CharString>
          <CharString index="49">
            -11 41 rlineto
            -72 -29 -13 7 0 27 rrcurveto
            return
          </CharString>
          <CharString index="50">
            -9 43 rlineto
            -202 -51 -26 19 23 90 rrcurveto
            90 344 -69 1 -206 -51 5 -42 177 24 -76 -289 rlineto
            -38 -143 84 -46 247 101 rrcurveto
            return
          </CharString>
          <CharString index="51">
            89 12 -177 195 rlineto
            145 78 56 75 0 65 0 49 -33 33 -58 0 -63 0 -80 -40 -77 -78 rrcurveto
            62 320 -78 -6 rlineto
            return
          </CharString>
          <CharString index="52">
            -135 -697 77 0 61 315 rlineto
            74 75 69 39 49 0 30 0 18 -15 0 -27 0 -42 -47 -63 -162 -84 rrcurveto
            return
          </CharString>
          <CharString index="53">
            -15 40 rlineto
            -152 -73 -80 4 -11 126 232 166 96 155 0 119 rrcurveto
            66 -35 38 -59 -141 -173 -256 -272 vhcurveto
            -13 vlineto
            -22 -15 -33 -21 -9 -6 rrcurveto
            21 -36 rlineto
            6 4 22 14 20 12 24 -149 123 -14 186 111 rrcurveto
            return
          </CharString>
          <CharString index="54">
            28 19 -20 -40 hvcurveto
            0 -82 -69 -125 -186 -146 8 219 116 194 84 0 rrcurveto
            return
          </CharString>
          <CharString index="55">
            0 57 67 170 0 99 0 52 -23 41 -63 0 -61 0 -71 -38 -70 -73 rrcurveto
            return
          </CharString>
          <CharString index="56">
            5 38 7 48 3 17 rrcurveto
            -76 -5 rlineto
            -22 -145 -22 -110 -45 -233 rrcurveto
            76 hlineto
            return
          </CharString>
          <CharString index="57">
            14 69 40 199 11 62 64 65 58 33 42 0 34 0 16 -20 0 -37 0 -81 -65 -163 0 -77 rrcurveto
            0 -66 57 -22 120 74 rrcurveto
            return
          </CharString>
          <CharString index="58">
            -129 70 -70 109 148 116 139 174 129 -72 71 -108 -149 -114 -142 -172 vhcurveto
            return
          </CharString>
          <CharString index="59">
            -127 -70 -110 -101 -72 -41 53 92 126 69 112 102 72 41 -54 -92 vhcurveto
            return
          </CharString>
          <CharString index="60">
            -7 42 rlineto
            -150 -49 -30 30 174 424 rrcurveto
            -37 21 rlineto
            -64 -29 -74 -20 -61 -7 4 14 2 13 0 12 rrcurveto
            28 -15 16 -23 -48 -50 -55 -41 vhcurveto
            0 -24 19 -15 30 -7 -29 -63 -43 -60 -61 -73 rrcurveto
            31 -29 rlineto
            65 69 59 81 34 70 47 1 56 10 55 16 -171 -398 71 -73 216 96 rrcurveto
            return
          </CharString>
          <CharString index="61">
            0 83 -105 87 -31 78 rrcurveto
            82 93 -13 60 -56 0 -50 0 -54 -58 0 -60 0 -15 2 -14 4 -14 -34 -37 -52 -41 -84 -58 rrcurveto
            21 -36 rlineto
            72 43 57 41 43 37 rrcurveto
            44 -75 77 -65 0 -54 0 -47 -49 -31 -216 18 rrcurveto
            -2 -72 rlineto
            271 -14 73 73 0 78 rrcurveto
            return
          </CharString>
          <CharString index="62">
            -8 41 rlineto
            -209 -71 -34 38 25 109 rrcurveto
            58 258 191 0 12 61 -189 0 32 143 -60 -5 -77 -138 -63 0 -16 -61 93 0 -58 -262 rlineto
            -37 -160 85 -82 255 129 rrcurveto
            return
          </CharString>
          <CharString index="63">
            -9 40 rlineto
            -89 -36 -5 17 14 69 rrcurveto
            return
          </CharString>
          <CharString index="64">
            71 363 -76 0 -62 -319 rlineto
            -62 -72 -51 -36 -45 0 -43 0 -19 33 19 85 rrcurveto
            return
          </CharString>
          <CharString index="65">
            74 hlineto
            63 180 46 147 44 162 rrcurveto
            -82 hlineto
            return
          </CharString>
          <CharString index="66">
            -31 -137 -30 -117 -36 -137 rrcurveto
            -4 0 -38 268 -49 0 -140 -267 -3 0 rlineto
            17 133 14 118 22 139 rrcurveto
            -79 hlineto
            -25 -183 -16 -189 -4 -117 rrcurveto
            76 0 141 264 rlineto
            return
          </CharString>
          <CharString index="67">
            27 53 -16 91 0 114 0 10 0 9 1 9 50 98 38 134 0 37 0 16 -33 10 -21 0 -30 0 -62 -164 -9 -136 -55 -62 -63 -39 -43 0 rrcurveto
            return
          </CharString>
          <CharString index="68">
            -61 0 -31 65 118 328 rrcurveto
            -76 -2 rlineto
            -139 -371 56 -91 93 0 69 0 75 50 56 61 2 -110 11 -74 -24 -25 -21 -20 -78 -18 -188 16 rrcurveto
            return
          </CharString>
          <CharString index="69">
            -11 -78 rlineto
            232 -12 102 39 31 62 rrcurveto
            return
          </CharString>
          <CharString index="70">
            19 69 -311 -2 372 357 13 66 -384 0 -19 -69 300 2 -372 -357 -13 -66 rlineto
            return
          </CharString>
          <CharString index="71">
            34 60 rlineto
            -146 63 -64 42 0 47 0 65 116 36 0 73 0 34 -23 32 -67 20 rrcurveto
            return
          </CharString>
          <CharString index="72">
            0 49 -66 60 0 45 0 49 79 41 194 38 rrcurveto
            -14 67 rlineto
            -250 -60 -82 -74 0 -71 rrcurveto
            return
          </CharString>
          <CharString index="73">
            0 -31 -35 -30 -128 -8 rrcurveto
            -11 -56 rlineto
            return
          </CharString>
          <CharString index="74">
            92 -11 42 -24 0 -34 0 -54 -121 -35 0 -88 rrcurveto
            0 -64 72 -52 184 -81 rrcurveto
            return
          </CharString>
          <CharString index="75">
            0 32 36 30 128 7 rrcurveto
            11 57 rlineto
            return
          </CharString>
          <CharString index="76">
            -93 10 -41 25 0 34 0 54 120 35 0 87 0 65 -71 51 -185 82 rrcurveto
            -33 -60 rlineto
            146 -63 64 -42 0 -47 0 -66 -117 -36 0 -73 0 -33 23 -32 68 -20 rrcurveto
            return
          </CharString>
          <CharString index="77">
            0 -49 65 -60 0 -44 0 -50 -79 -40 -194 -38 rrcurveto
            return
          </CharString>
          <CharString index="78">
            40 133 -90 -2 -31 -132 rlineto
            return
          </CharString>
          <CharString index="79">
            40 132 -89 -1 -32 -132 rlineto
            return
          </CharString>
          <CharString index="80">
            65 42 -133 213 216 212 -51 49 -210 -217 -18 -81 rlineto
            return
          </CharString>
          <CharString index="81">
            -330 0 -13 -66 330 0 rlineto
            return
          </CharString>
          <CharString index="82">
            12 55 -203 0 rlineto
            149 91 83 66 0 82 0 81 -83 42 -166 -25 rrcurveto
            -9 -56 rlineto
            142 19 48 -27 0 -49 0 -67 -97 -64 -161 -98 rrcurveto
            1 -50 rlineto
            return
          </CharString>
          <CharString index="83">
            0 43 -40 40 -111 26 rrcurveto
            181 120 6 54 -259 0 -11 -54 192 0 -184 -122 -4 -27 rlineto
            123 -24 44 -31 0 -31 0 -33 -45 -34 -183 18 rrcurveto
            -7 -57 rlineto
            225 -22 73 70 0 64 rrcurveto
            return
          </CharString>
          <CharString index="84">
            16 -35 rlineto
            75 32 113 58 67 51 rrcurveto
            -55 63 rlineto
            -57 -56 -94 -74 -65 -39 rrcurveto
            return
          </CharString>
          <CharString index="85">
            13 54 -112 0 71 358 -64 -6 -12 -60 -124 -16 -8 -47 121 7 -46 -236 -123 0 -11 -54 rlineto
            return
          </CharString>
          <CharString index="86">
            211 218 17 81 -131 217 -65 -41 133 -213 -215 -213 rlineto
            return
          </CharString>
          <CharString index="87">
            212 213 19 81 -129 220 -65 -40 131 -214 -218 -210 rlineto
            return
          </CharString>
          <CharString index="88">
            434 0 10 52 -433 0 rlineto
            return
          </CharString>
          <CharString index="89">
            16 53 -53 0 26 134 -60 -5 -25 -129 -146 0 rlineto
            51 73 37 69 40 120 rrcurveto
            -67 3 rlineto
            -36 -117 -36 -71 -52 -87 rrcurveto
            -5 -43 204 0 -16 -81 59 0 16 81 rlineto
            return
          </CharString>
          <CharString index="90">
            0 43 -40 40 -111 26 rrcurveto
            181 120 6 54 -259 0 -11 -54 192 0 -184 -122 rlineto
            -4 -27 rlineto
            123 -24 44 -31 0 -31 0 -33 -45 -34 -183 18 rrcurveto
            -7 -57 rlineto
            225 -22 73 70 0 64 rrcurveto
            return
          </CharString>
          <CharString index="91">
            54 42 -139 150 -4 0 -205 -147 35 -41 158 111 rlineto
            return
          </CharString>
          <CharString index="92">
            -43 0 -23 103 -67 0 -50 0 -51 -48 -49 -85 rrcurveto
            40 -23 rlineto
            37 58 30 37 27 0 43 0 23 -102 67 0 51 0 50 52 49 84 rrcurveto
            -40 24 rlineto
            -36 -58 -31 -42 -27 0 rrcurveto
            return
          </CharString>
          <CharString index="93">
            -81 -59 -50 -61 -55 51 -44 74 81 59 52 60 hvcurveto
            54 -51 44 -74 vhcurveto
            return
          </CharString>
          <CharString index="94">
            236 0 18 68 -170 0 43 217 138 0 11 57 -138 0 41 210 166 0 13 68 -294 0 rlineto
            -110 -207 -109 -208 -107 -205 rrcurveto
            82 hlineto
            31 61 30 61 31 61 rrcurveto
            123 hlineto
            return
          </CharString>
          <CharString index="95">
            32 65 31 39 33 0 34 0 22 -37 -6 -95 rrcurveto
            return
          </CharString>
          <CharString index="96">
            0 194 -126 79 -233 -39 rrcurveto
            -53 -275 -71 0 -11 -58 70 0 rlineto
            return
          </CharString>
          <CharString index="97">
            -55 -285 rlineto
            332 -43 147 199 0 228 rrcurveto
            return
          </CharString>
          <CharString index="98">
            14 58 -132 0 42 214 rlineto
            137 15 72 -58 0 -139 0 -176 -99 -152 -206 17 rrcurveto
            43 221 rlineto
            return
          </CharString>
          <CharString index="99">
            166 78 167 112 vhcurveto
            35 0 29 -15 19 -32 rrcurveto
            -266 -359 rlineto
            -5 21 -2 24 0 28 rrcurveto
            return
          </CharString>
          <CharString index="100">
            -37 0 -28 16 -19 32 rrcurveto
            267 361 rlineto
            5 -22 2 -25 0 -28 0 -167 -77 -167 -113 0 rrcurveto
            return
          </CharString>
          <CharString index="101">
            0 60 -10 49 -18 38 rrcurveto
            65 86 rlineto
            return
          </CharString>
          <CharString index="102">
            -47 32 -52 -70 rlineto
            -31 31 -40 15 -48 0 -166 0 -119 -198 0 -207 0 -60 10 -48 18 -37 rrcurveto
            -66 -88 rlineto
            return
          </CharString>
          <CharString index="103">
            48 -32 52 70 rlineto
            31 -31 40 -15 48 0 rrcurveto
            return
          </CharString>
          <CharString index="104">
            -36 -28 29 69 137 79 135 98 hvcurveto
            23 0 35 -5 36 -11 -15 -76 -27 -137 -10 -51 -49 -49 -64 -41 -42 0 rrcurveto
            return
          </CharString>
          <CharString index="105">
            26 12 -17 -30 hvcurveto
            0 -61 -53 -75 -106 -19 rrcurveto
            18 102 48 100 55 0 rrcurveto
            return
          </CharString>
          <CharString index="106">
            135 59 156 77 vhcurveto
            20 0 24 -6 28 -21 -47 -69 -30 -97 0 -98 -33 -44 -33 -34 -30 0 rrcurveto
            return
          </CharString>
          <CharString index="107">
            -8 41 rlineto
            -143 -68 -46 26 0 98 0 11 0 11 1 11 160 22 78 93 0 99 0 59 -32 39 -59 0 -34 0 -32 -14 -28 -23 rrcurveto
            -34 22 -36 12 -37 0 rrcurveto
            -130 -101 -189 -184 -88 29 -42 48 hvcurveto
            50 0 47 38 42 51 22 -95 84 -35 159 105 rrcurveto
            return
          </CharString>
          <CharString index="108">
            127 70 112 102 vhcurveto
            34 0 27 -12 20 -23 rrcurveto
            -243 -273 rlineto
            -7 20 -3 23 0 26 rrcurveto
            return
          </CharString>
          <CharString index="109">
            -33 0 -26 11 -19 21 rrcurveto
            241 272 rlineto
            6 -19 3 -22 0 -24 0 -129 -71 -110 -101 0 rrcurveto
            return
          </CharString>
          <CharString index="110">
            0 47 -9 39 -18 31 rrcurveto
            64 70 rlineto
            return
          </CharString>
          <CharString index="111">
            -45 34 -54 -60 rlineto
            -31 26 -40 13 -47 0 -149 0 -114 -142 0 -172 0 -48 10 -40 18 -32 rrcurveto
            -64 -69 rlineto
            return
          </CharString>
          <CharString index="112">
            45 -34 55 61 rlineto
            30 -24 39 -13 46 0 rrcurveto
            return
          </CharString>
          <CharString index="113">
            70 312 -78 -5 -75 -123 43 -26 -37 -166 rlineto
            -29 -126 37 -58 73 0 59 0 59 39 66 76 -18 -114 41 -38 146 85 rrcurveto
            return
          </CharString>
          <CharString index="114">
            -56 -69 -43 -40 -52 0 -49 0 -32 32 -34 82 rrcurveto
            -60 -31 rlineto
            38 -99 53 -47 68 0 71 0 72 53 69 91 rrcurveto
            return
          </CharString>
          <CharString index="115">
            41 132 -91 -1 -32 -132 rlineto
            return
          </CharString>
          <CharString index="116">
            205 146 -36 42 -157 -112 -102 116 -54 -42 140 -150 rlineto
            return
          </CharString>
          <CharString index="117">
            4 -75 -3 -69 -53 -90 rrcurveto
            34 -15 rlineto
            75 87 28 81 5 86 rrcurveto
            return
          </CharString>
          <CharString index="118">
            -44 -33 32 69 115 73 124 100 hvcurveto
            27 0 36 -9 39 -20 -23 -58 -22 -78 -9 -71 -44 -67 -52 -37 -48 0 rrcurveto
            return
          </CharString>
          <CharString index="119">
            31 -16 rlineto
            70 63 36 74 3 70 rrcurveto
            -102 -3 rlineto
            10 -58 -4 -62 -44 -68 rrcurveto
            return
          </CharString>
          <CharString index="120">
            -32 15 rlineto
            -70 -62 -35 -75 -3 -69 rrcurveto
            101 2 rlineto
            -10 58 4 62 45 69 rrcurveto
            return
          </CharString>
          <CharString index="121">
            61 51 75 76 43 53 rrcurveto
            -76 41 rlineto
            -33 -56 -57 -84 -47 -54 rrcurveto
            return
          </CharString>
          <CharString index="122">
            61 50 73 75 43 54 rrcurveto
            -78 37 rlineto
            -32 -57 -55 -78 -47 -54 rrcurveto
            return
          </CharString>
          <CharString index="123">
            32 65 31 39 33 0 rrcurveto
            34 0 22 -37 -6 -95 rrcurveto
            return
          </CharString>
          <CharString index="124">
            82 93 -13 60 -56 0 -50 0 -54 -58 0 -60 0 -15 2 -14 4 -14 -34 -37 -52 -41 -84 -58 rrcurveto
            21 -36 rlineto
            72 43 57 41 43 37 rrcurveto
            return
          </CharString>
          <CharString index="125">
            -81 -59 -50 -61 -55 51 -44 74 81 59 52 60 54 -51 44 -74 hvcurveto
            return
          </CharString>
          <CharString index="126">
            205 146 -36 42 -157 -112 rlineto
            return
          </CharString>
          <CharString index="127">
            -102 116 -54 -42 140 -150 rlineto
            return
          </CharString>
          <CharString index="128">
            26 119 -96 0 -26 -119 rlineto
            return
          </CharString>
          <CharString index="129">
            57 53 -180 208 274 204 -45 61 -278 -218 -21 -82 rlineto
            return
          </CharString>
          <CharString index="130">
            278 218 20 81 -192 227 -57 -54 180 -208 -274 -204 rlineto
            return
          </CharString>
          <CharString index="131">
            -100 52 -57 78 111 88 121 135 101 -51 57 -79 -111 -88 -121 -136 vhcurveto
            return
          </CharString>
          <CharString index="132">
            -99 -52 -98 -75 -47 -29 37 71 99 51 99 75 48 29 -37 -72 vhcurveto
            return
          </CharString>
          <CharString index="133">
            0 49 -45 44 -139 24 rrcurveto
            24 98 181 0 16 54 -242 0 -46 -191 rlineto
            143 -20 46 -30 0 -35 0 -38 -52 -39 -179 15 rrcurveto
            -7 -58 rlineto
            221 -16 79 72 0 71 rrcurveto
            return
          </CharString>
          <CharString index="134">
            88 69 57 84 hvcurveto
            0 103 -122 41 -106 -78 21 60 59 63 142 33 rrcurveto
            -14 53 rlineto
            -206 -54 -72 -116 0 -106 rrcurveto
            -94 62 -46 79 vhcurveto
            return
          </CharString>
          <CharString index="135">
            -47 -43 27 73 hvcurveto
            0 6 0 7 1 7 89 66 88 -31 0 -71 rrcurveto
            -47 -33 -37 -55 vhcurveto
            return
          </CharString>
          <CharString index="136">
            67 117 80 119 95 111 rrcurveto
            11 53 -290 0 -13 -55 223 0 1 -3 rlineto
            -96 -108 -80 -114 -66 -113 rrcurveto
            return
          </CharString>
          <CharString index="137">
            0 42 -41 38 -42 34 35 18 44 21 54 25 rrcurveto
            -19 36 rlineto
            -60 -27 -48 -24 -40 -21 -31 25 -24 24 0 22 0 31 39 25 121 -28 rrcurveto
            21 60 rlineto
            -158 24 -82 -57 0 -61 0 -34 28 -31 34 -29 rrcurveto
            return
          </CharString>
          <CharString index="138">
            -98 -57 -21 -35 0 -38 rrcurveto
            -54 52 -36 80 vhcurveto
            91 65 48 59 hvcurveto
            return
          </CharString>
          <CharString index="139">
            -47 -36 20 34 hvcurveto
            0 21 14 23 78 45 39 -32 37 -29 0 -29 rrcurveto
            -29 -35 -24 -50 vhcurveto
            return
          </CharString>
          <CharString index="140">
            206 55 72 115 0 107 rrcurveto
            94 -62 46 -80 -87 -69 -58 -84 vhcurveto
            0 -104 123 -40 105 79 -21 -61 -58 -63 -143 -33 rrcurveto
            return
          </CharString>
          <CharString index="141">
            47 32 37 56 47 43 -27 -73 vhcurveto
            0 -6 0 -7 -1 -7 -89 -66 -88 32 0 70 rrcurveto
            return
          </CharString>
          <CharString index="142">
            64 329 -65 0 -94 -202 -2 0 rlineto
            return
          </CharString>
          <CharString index="143">
            0 42 -41 38 -42 34 35 18 44 21 54 25 rrcurveto
            -19 36 rlineto
            -60 -27 -48 -24 -40 -21 -31 25 -24 24 0 22 0 31 39 25 121 -28 rrcurveto
            21 60 rlineto
            -158 24 -82 -57 0 -61 rrcurveto
            return
          </CharString>
          <CharString index="144">
            0 -34 28 -31 34 -29 rrcurveto
            return
          </CharString>
          <CharString index="145">
            -98 -57 -21 -35 0 -38 rrcurveto
            -54 52 -36 80 91 65 48 59 vhcurveto
            return
          </CharString>
          <CharString index="146">
            9 7 6 9 9 7 -6 -9 -9 -7 -7 -9 vhcurveto
            -9 -7 6 10 hvcurveto
            return
          </CharString>
          <CharString index="147">
            8 -2 3 -4 -4 -2 -3 -8 -9 2 -3 4 vhcurveto
            4 2 3 9 hvcurveto
            return
          </CharString>
          <CharString index="148">
            -6 2 -3 5 vhcurveto
            4 0 2 2 1 4 rrcurveto
            5 hlineto
            return
          </CharString>
          <CharString index="149">
            -23.83398 -48 -29.33301 -37 -37.58301 0 -55.91699 0 -29.33301 100 -91.66699 0 -91.66699 0 -25.66602 -100 -55.91699 0 -55.91699 0 -29.33301 100 -91.66699 0 -81.58301 0 -39.41699 -70 -27.5 -58 rrcurveto
            55 -30 rlineto
            23.83398 48 27.5 37 39.41602 0 58.66699 0 32.08301 -100 86.16699 0 86.16699 0 29.33301 100 57.75 0 58.66699 0 32.08301 -100 86.16699 0 80.66602 0 40.33398 69 27.5 57 rrcurveto
            return
          </CharString>
          <CharString index="150">
            77 0 -5.5 -202 174.16602 68 23.83398 -79 -177.83398 -58 112.75 -160 -61.41602 -49 -104.5 168 -104.5 -168 -61.41699 49 112.75 160 -177.83301 58 23.83301 79 174.16699 -68 rlineto
            return
          </CharString>
          <CharString index="151">
            77 0 -5.5 -202 174.16699 68 23.83301 -79 -177.83301 -58 112.75 -160 -61.41699 -49 -104.5 168 -104.5 -168 -61.41602 49 112.75 160 -177.83398 58 23.83398 79 174.16602 -68 rlineto
            return
          </CharString>
          <CharString index="152">
            0 -89 323.58398 -217 -323.58398 -218 0 -90 389.58398 265 0 86 rlineto
            return
          </CharString>
          <CharString index="153">
            390.5 880 -61.41602 32 -391.41699 -882 rlineto
            return
          </CharString>
          <CharString index="154">
            77 0 -5.5 -202 174.16699 68 23.83301 -79 -177.83301 -58 112.75 -160 -61.41699 -49 -104.5 168 -104.5 -168 -61.41699 49 112.75 160 -177.83301 58 23.83301 79 174.16699 -68 rlineto
            return
          </CharString>
          <CharString index="155">
            -68.75 -909 68.75 hlineto
            return
          </CharString>
          <CharString index="156">
            0 622 462.91699 -310 rlineto
            return
          </CharString>
          <CharString index="157">
            -132.91699 0 26.58398 222 134.75 0 rlineto
            return
          </CharString>
          <CharString index="158">
            -45 31.16699 -37 42.16699 43.08301 31.16699 37 45 44 -31.16699 36 -43.08301 -42.16699 -31.16699 -36 -44 vhcurveto
            return
          </CharString>
          <CharString index="159">
            -46 31.16699 -35 42.16699 43.08301 31.16699 35 46 44 -31.16699 37 -43.08301 -42.16699 -31.16699 -37 -44 vhcurveto
            return
          </CharString>
          <CharString index="160">
            -506.91602 -72 506.91602 hlineto
            return
          </CharString>
          <CharString index="161">
            -45 31.16699 -37 42.16602 43.08398 31.16602 37 45 44 -31.16602 36 -43.08398 -42.16602 -31.16699 -36 -44 vhcurveto
            return
          </CharString>
          <CharString index="162">
            -46 31.16699 -35 42.16602 43.08398 31.16602 35 46 44 -31.16602 37 -43.08398 -42.16602 -31.16699 -37 -44 vhcurveto
            return
          </CharString>
          <CharString index="163">
            -66.91699 29 -19.25 30 0 47 0 57 36.66699 39 49.5 9 rrcurveto
            return
          </CharString>
          <CharString index="164">
            0 -101 -55 -38 -60.5 -14 rrcurveto
            290 vlineto
            68.75 -32 46.75 -52 0 -53 rrcurveto
            return
          </CharString>
          <CharString index="165">
            -905.66602 -72 905.66602 hlineto
            return
          </CharString>
          <CharString index="166">
            -86.16699 0 rlineto
            return
          </CharString>
          <CharString index="167">
            9.16699 -462 68.75 0 rlineto
            return
          </CharString>
          <CharString index="168">
            -34.83301 -26.58301 -30 -37 -38 26.58301 -29 34.83301 35.75 25.66699 29 38 37 -25.66699 30 -35.75 hvcurveto
            return
          </CharString>
          <CharString index="169">
            -30.25 -65 363 -204 -363 -204 30.25 -65 405.16602 226 0 85 rlineto
            return
          </CharString>
          <CharString index="170">
            -30.25 -65 363 -204 -363 -204 30.25 -65 405.16699 226 0 85 rlineto
            return
          </CharString>
          <CharString index="171">
            348.33398 72 -348.33398 hlineto
            return
          </CharString>
          <CharString index="172">
            -389.58301 -262 0 -87 389.58301 -265 0 89 -323.58301 219 323.58301 217 rlineto
            return
          </CharString>
          <CharString index="173">
            -462.91699 312 462.91699 310 rlineto
            return
          </CharString>
          <CharString index="174">
            44 -31.16699 36 -42.16602 -43.08398 -31.16602 -36 -44 -45 31.16602 -37 43.08398 42.16602 31.16699 37 45 vhcurveto
            return
          </CharString>
          <CharString index="175">
            44 -31.16699 37 -42.16602 -43.08398 -31.16602 -37 -44 -46 31.16602 -35 43.08398 42.16602 31.16699 35 46 vhcurveto
            return
          </CharString>
          <CharString index="176">
            -405.16699 -227 0 -85 405.16699 -226 30.25 65 -363 204 363 204 rlineto
            return
          </CharString>
          <CharString index="177">
            -405.16602 -227 0 -85 405.16602 -226 30.25 65 -363 204 363 204 rlineto
            return
          </CharString>
          <CharString index="178">
            -71.5 -249 -223.66699 -70 223.66699 -249 71.5 249 225.5 70 -225.5 hlineto
            return
          </CharString>
          <CharString index="179">
            -423.5 -65 423.5 hlineto
            return
          </CharString>
          <CharString index="180">
            81.58301 66 -73.33301 hlineto
            21.08301 167 -65.08301 0 -21.08301 -167 -133.83398 0 21.08398 167 -65.08398 0 -21.08301 -167 -81.58301 0 0 -66 74.25 0 -28.41699 -222 -79.75 0 0 -64 72.41699 0 -20.16699 -170 rlineto
            65.08301 0 21.08398 170 132.91602 0 -20.16602 -170 65.08301 0 19.25 170 83.41699 0 0 64 -74.25 0 rlineto
            return
          </CharString>
          <CharString index="181">
            26.58301 222 134.75 0 -28.41602 -222 rlineto
            return
          </CharString>
          <CharString index="182">
            -285.08301 0 26.58301 222 286.91699 0 rlineto
            return
          </CharString>
          <CharString index="183">
            26.58398 222 134.75 0 -28.41699 -222 rlineto
            return
          </CharString>
          <CharString index="184">
            -85.25 -49.5 -74 -86 -85 49.5 -77 85.25 86.16699 48.58301 77 85 86 -48.58301 74 -86.16699 hvcurveto
            return
          </CharString>
          <CharString index="185">
            -50 34.83301 -38 45.83301 46.75 33.91699 38 50 49 -33.91699 39 -46.75 -45.83301 -34.83301 -39 -49 vhcurveto
            return
          </CharString>
          <CharString index="186">
            -34.83301 -25.66699 -30 -37 -38 25.66699 -29 34.83301 35.75 26.58398 29 38 37 -26.58398 30 -35.75 hvcurveto
            return
          </CharString>
          <CharString index="187">
            -34.83398 -26.58301 -30 -37 -38 26.58301 -29 34.83398 35.75 25.66602 29 38 37 -25.66602 30 -35.75 hvcurveto
            return
          </CharString>
          <CharString index="188">
            -73.33398 0 -65.08301 -31 -53.16699 -68 rrcurveto
            54.08398 -45 rlineto
            38.5 51 48.58301 23 43.08301 0 61.41699 0 46.75 -33 0 -57 0 -113 -162.25 1 0 -162 rrcurveto
            -39 77 34 vlineto
            0 147 165.91699 -23 0 160 rrcurveto
            79 -68.75 76 -112.75 vhcurveto
            return
          </CharString>
          <CharString index="189">
            -34.83301 -26.58398 -30 -37 -38 26.58398 -29 34.83301 35.75 25.66699 29 38 37 -25.66699 30 -35.75 hvcurveto
            return
          </CharString>
          <CharString index="190">
            390.5 880 -61.41699 32 -391.41602 -882 rlineto
            return
          </CharString>
          <CharString index="191">
            -483.08301 0 -33 -72 516.08301 0 rlineto
            return
          </CharString>
          <CharString index="192">
            -567.41699 0 -33 -72 600.41699 0 rlineto
            return
          </CharString>
          <CharString index="193">
            -69.66699 -801 69.66699 hlineto
            return
          </CharString>
          <CharString index="194">
            -599.5 -72 599.5 hlineto
            return
          </CharString>
          <CharString index="195">
            -506.91699 -72 506.91699 hlineto
            return
          </CharString>
          <CharString index="196">
            -1455.66602 -72 1455.66602 hlineto
            return
          </CharString>
          <CharString index="197">
            -590.33301 -72 590.33301 hlineto
            return
          </CharString>
          <CharString index="198">
            -57.75 -54 209.91699 -251 -209.91699 -251 57.75 -54 248.41699 305 rlineto
            return
          </CharString>
          <CharString index="199">
            -248.41699 -305 248.41699 -305 57.75 54 -209.91699 251 209.91699 251 rlineto
            return
          </CharString>
          <CharString index="200">
            395.08301 72 -395.08301 hlineto
            return
          </CharString>
          <CharString index="201">
            -57.75 54 -248.41699 -305 248.41699 -305 57.75 54 -209.91699 251 rlineto
            return
          </CharString>
          <CharString index="202">
            -352 -237 0 -87 348.33398 -237 41.25 61 -323.58398 219 323.58398 217 rlineto
            return
          </CharString>
          <CharString index="203">
            -389.58398 -262 0 -87 389.58398 -265 0 89 -323.58398 219 323.58398 217 rlineto
            return
          </CharString>
          <CharString index="204">
            0 -89 323.58301 -217 -323.58301 -218 0 -90 389.58301 265 0 86 rlineto
            return
          </CharString>
          <CharString index="205">
            -801 69.66699 801 vlineto
            return
          </CharString>
          <CharString index="206">
            -50 34.83398 -38 45.83301 46.75 33.91699 38 50 49 -33.91699 39 -46.75 -45.83301 -34.83398 -39 -49 vhcurveto
            return
          </CharString>
        <CharString name=".notdef">
          -200 50 900 50 hstem
          0.5 54 432 54 vstem
          8 -200 rmoveto
          540 0 -15 1000 -540 0 rlineto
          77 -50 rmoveto
          387 0 -188 -390 rlineto
          212 316 rmoveto
          11 -752 -191 376 rlineto
          -241 -376 rmoveto
          -11 752 191 -376 rlineto
          31 -60 rmoveto
          200 -390 -387 0 rlineto
          endchar
        </CharString>
        <CharString name="A">
          18 -21 24 -21 24 -21 186 62 300 71 hstemhm
          383 87 hintmask 10011100
          390 -3 rmoveto
          hintmask 00111100
          -103 callsubr
          hintmask 01011100
          -102 callsubr
          hintmask 00111100
          -53 554 rmoveto
          -101 callsubr
          endchar
        </CharString>
        <CharString name="AE">
          0 68 115 60 42 57 210 68 hstem
          -21 620 vstem
          339 552 rmoveto
          9 0 -60 -309 -105 0 rlineto
          58 -243 rmoveto
          -13 callsubr
          endchar
        </CharString>
        <CharString name="AEacute">
          0 68 115 60 42 57 210 68 hstem
          -21 632 vstem
          340 723 rmoveto
          -23 callsubr
          -1 -171 rmoveto
          9 0 -60 -309 -105 0 rlineto
          58 -243 rmoveto
          -13 callsubr
          endchar
        </CharString>
        <CharString name="Aacute">
          18 -21 24 -21 24 -21 186 62 300 71 hstemhm
          383 87 hintmask 00111100
          248 725 rmoveto
          -23 callsubr
          hintmask 10011100
          142 -728 rmoveto
          hintmask 00111100
          -103 callsubr
          hintmask 01011100
          -102 callsubr
          hintmask 00111100
          -53 554 rmoveto
          -101 callsubr
          endchar
        </CharString>
        <CharString name="Abreve">
          18 -21 24 -21 24 -21 186 62 300 71 75 63 hstemhm
          383 87 hintmask 00111110
          537 869 rmoveto
          7 callsubr
          hintmask 10011110
          -192 -844 rmoveto
          hintmask 00111110
          -103 callsubr
          hintmask 01011110
          -102 callsubr
          hintmask 00111110
          -53 554 rmoveto
          -101 callsubr
          endchar
        </CharString>
        <CharString name="Acircumflex">
          18 -21 24 -21 24 -21 186 62 300 71 hstemhm
          383 87 hintmask 00111100
          496 690 rmoveto
          -16 callsubr
          hintmask 10011100
          -5 -808 rmoveto
          hintmask 00111100
          -103 callsubr
          hintmask 01011100
          -102 callsubr
          hintmask 00111100
          -53 554 rmoveto
          -101 callsubr
          endchar
        </CharString>
        <CharString name="Adieresis">
          18 -21 24 -21 24 -21 186 62 300 71 80.5 132 -130 132.5 hstemhm
          383 87 hintmask 00111011
          510 705 rmoveto
          -29 callsubr
          hintmask 10011101
          -134 -1 rmoveto
          -28 callsubr
          176 -705 rmoveto
          hintmask 00111101
          -103 callsubr
          hintmask 01011101
          -102 callsubr
          hintmask 00111101
          -53 554 rmoveto
          -101 callsubr
          endchar
        </CharString>
        <CharString name="Agrave">
          18 -21 24 -21 24 -21 186 62 300 71 hstemhm
          383 87 hintmask 00111100
          489 717 rmoveto
          -71 callsubr
          hintmask 10011100
          -79 -687 rmoveto
          hintmask 00111100
          -103 callsubr
          hintmask 01011100
          -102 callsubr
          hintmask 00111100
          -53 554 rmoveto
          -101 callsubr
          endchar
        </CharString>
        <CharString name="Amacron">
          18 -21 24 -21 24 -21 186 62 300 71 117 66 hstemhm
          383 87 hintmask 00111110
          555 805 rmoveto
          -26 callsubr
          hintmask 10011110
          -152 -742 rmoveto
          hintmask 00111110
          -103 callsubr
          hintmask 01011110
          -102 callsubr
          hintmask 00111110
          -53 554 rmoveto
          -101 callsubr
          endchar
        </CharString>
        <CharString name="Aogonek">
          -209 57 173 -21 24 -21 186 62 300 71 hstemhm
          213 73 96.5 87.5 hintmask 10111110
          440 -167 rmoveto
          -10 37 rlineto
          -103 -39 -41 17 0 33 0 35 52 44 132 43 -17 207 -20 206 -22 206 rrcurveto
          -114 hlineto
          hintmask 11011110
          -104 -207 -101 -208 -95 -207 rrcurveto
          82 hlineto
          28 63 29 63 29 63 rrcurveto
          211 hlineto
          4 -59 5 -58 4 -59 -125 -52 -52 -55 1 -47 rrcurveto
          0 -62 79 -40 148 76 rrcurveto
          -103 718 rmoveto
          -101 callsubr
          endchar
        </CharString>
        <CharString name="Aring">
          18 -21 24 -21 24 -21 186 62 300 71 57 210 hstemhm
          383 87 hintmask 00111110
          393 889 rmoveto
          -14 callsubr
          hintmask 10011110
          -3 -892 rmoveto
          hintmask 00111110
          -103 callsubr
          hintmask 01011110
          -102 callsubr
          hintmask 00111110
          -53 554 rmoveto
          -101 callsubr
          endchar
        </CharString>
        <CharString name="Aringacute">
          18 -21 24 -21 24 -21 186 62 300 71 57 210 hstemhm
          383 87 hintmask 00111110
          308 961 rmoveto
          -23 callsubr
          85 -72 rmoveto
          18 callsubr
          hintmask 10011110
          -3 -892 rmoveto
          hintmask 00111110
          -103 callsubr
          hintmask 01011110
          -102 callsubr
          hintmask 00111110
          -53 554 rmoveto
          -101 callsubr
          endchar
        </CharString>
        <CharString name="Atilde">
          18 -21 24 -21 24 -21 186 62 300 71 78 60 42 61 hstemhm
          383 87 hintmask 00111111
          459 760 rmoveto
          -15 callsubr
          hintmask 10011111
          -69 -763 rmoveto
          hintmask 00111111
          -103 callsubr
          hintmask 01011111
          -102 callsubr
          hintmask 00111111
          -53 554 rmoveto
          -101 callsubr
          endchar
        </CharString>
        <CharString name="B">
          -7 69 -41 -21 285 49 228 66 hstemhm
          409 79 -48 79 hintmask 10111000
          488 188 rmoveto
          0 65 -51 51 -78 16 rrcurveto
          hintmask 01110100
          100 31 60 64 0 76 0 95 -103 68 -246 -36 rrcurveto
          -120 -618 rlineto
          321 -38 117 114 0 112 rrcurveto
          hintmask 10110100
          -48 285 rmoveto
          0 -69 -72 -62 -173 -8 rrcurveto
          44 225 rlineto
          136 15 65 -39 0 -62 rrcurveto
          hintmask 10111000
          -31 -291 rmoveto
          0 -76 -82 -61 -183 21 rrcurveto
          42 219 rlineto
          158 10 65 -45 0 -68 rrcurveto
          endchar
        </CharString>
        <CharString name="C">
          -13 73 501 72 hstem
          65 81 295 76 vstem
          377 633 rmoveto
          -100 callsubr
          endchar
        </CharString>
        <CharString name="CR.1.0">
          endchar
        </CharString>
        <CharString name="CR.10.0">
          endchar
        </CharString>
        <CharString name="CR.100.0">
          endchar
        </CharString>
        <CharString name="CR.100.1">
          endchar
        </CharString>
        <CharString name="CR.101.0">
          endchar
        </CharString>
        <CharString name="CR.101.1">
          endchar
        </CharString>
        <CharString name="CR.102.0">
          endchar
        </CharString>
        <CharString name="CR.102.1">
          endchar
        </CharString>
        <CharString name="CR.103.0">
          endchar
        </CharString>
        <CharString name="CR.103.1">
          endchar
        </CharString>
        <CharString name="CR.104.0">
          endchar
        </CharString>
        <CharString name="CR.104.1">
          endchar
        </CharString>
        <CharString name="CR.105.0">
          endchar
        </CharString>
        <CharString name="CR.105.1">
          endchar
        </CharString>
        <CharString name="CR.106.0">
          endchar
        </CharString>
        <CharString name="CR.106.1">
          endchar
        </CharString>
        <CharString name="CR.107.0">
          endchar
        </CharString>
        <CharString name="CR.107.1">
          endchar
        </CharString>
        <CharString name="CR.108.0">
          endchar
        </CharString>
        <CharString name="CR.108.1">
          endchar
        </CharString>
        <CharString name="CR.109.0">
          endchar
        </CharString>
        <CharString name="CR.109.1">
          endchar
        </CharString>
        <CharString name="CR.11.0">
          endchar
        </CharString>
        <CharString name="CR.110.0">
          endchar
        </CharString>
        <CharString name="CR.110.1">
          endchar
        </CharString>
        <CharString name="CR.111.0">
          endchar
        </CharString>
        <CharString name="CR.111.1">
          endchar
        </CharString>
        <CharString name="CR.112.0">
          endchar
        </CharString>
        <CharString name="CR.112.1">
          endchar
        </CharString>
        <CharString name="CR.113.0">
          endchar
        </CharString>
        <CharString name="CR.113.1">
          endchar
        </CharString>
        <CharString name="CR.114.0">
          endchar
        </CharString>
        <CharString name="CR.114.1">
          endchar
        </CharString>
        <CharString name="CR.115.0">
          endchar
        </CharString>
        <CharString name="CR.115.1">
          endchar
        </CharString>
        <CharString name="CR.116.0">
          endchar
        </CharString>
        <CharString name="CR.116.1">
          endchar
        </CharString>
        <CharString name="CR.117.0">
          endchar
        </CharString>
        <CharString name="CR.117.1">
          endchar
        </CharString>
        <CharString name="CR.118.0">
          endchar
        </CharString>
        <CharString name="CR.118.1">
          endchar
        </CharString>
        <CharString name="CR.119.0">
          endchar
        </CharString>
        <CharString name="CR.119.1">
          endchar
        </CharString>
        <CharString name="CR.12.0">
          endchar
        </CharString>
        <CharString name="CR.120.0">
          endchar
        </CharString>
        <CharString name="CR.120.1">
          endchar
        </CharString>
        <CharString name="CR.121.0">
          endchar
        </CharString>
        <CharString name="CR.121.1">
          endchar
        </CharString>
        <CharString name="CR.122.0">
          endchar
        </CharString>
        <CharString name="CR.122.1">
          endchar
        </CharString>
        <CharString name="CR.123.0">
          endchar
        </CharString>
        <CharString name="CR.123.1">
          endchar
        </CharString>
        <CharString name="CR.124.0">
          endchar
        </CharString>
        <CharString name="CR.124.1">
          endchar
        </CharString>
        <CharString name="CR.125.0">
          endchar
        </CharString>
        <CharString name="CR.125.1">
          endchar
        </CharString>
        <CharString name="CR.126.0">
          endchar
        </CharString>
        <CharString name="CR.126.1">
          endchar
        </CharString>
        <CharString name="CR.126.2">
          endchar
        </CharString>
        <CharString name="CR.127.0">
          endchar
        </CharString>
        <CharString name="CR.127.1">
          endchar
        </CharString>
        <CharString name="CR.127.2">
          endchar
        </CharString>
        <CharString name="CR.128.0">
          endchar
        </CharString>
        <CharString name="CR.128.1">
          endchar
        </CharString>
        <CharString name="CR.128.2">
          endchar
        </CharString>
        <CharString name="CR.129.0">
          endchar
        </CharString>
        <CharString name="CR.129.1">
          endchar
        </CharString>
        <CharString name="CR.129.2">
          endchar
        </CharString>
        <CharString name="CR.13.0">
          endchar
        </CharString>
        <CharString name="CR.130.0">
          endchar
        </CharString>
        <CharString name="CR.130.1">
          endchar
        </CharString>
        <CharString name="CR.130.2">
          endchar
        </CharString>
        <CharString name="CR.14.0">
          endchar
        </CharString>
        <CharString name="CR.15.0">
          endchar
        </CharString>
        <CharString name="CR.16.0">
          endchar
        </CharString>
        <CharString name="CR.17.0">
          endchar
        </CharString>
        <CharString name="CR.18.0">
          endchar
        </CharString>
        <CharString name="CR.19.0">
          endchar
        </CharString>
        <CharString name="CR.2.0">
          endchar
        </CharString>
        <CharString name="CR.20.0">
          endchar
        </CharString>
        <CharString name="CR.21.0">
          endchar
        </CharString>
        <CharString name="CR.22.0">
          endchar
        </CharString>
        <CharString name="CR.23.0">
          endchar
        </CharString>
        <CharString name="CR.24.0">
          endchar
        </CharString>
        <CharString name="CR.25.0">
          endchar
        </CharString>
        <CharString name="CR.26.0">
          endchar
        </CharString>
        <CharString name="CR.27.0">
          endchar
        </CharString>
        <CharString name="CR.28.0">
          endchar
        </CharString>
        <CharString name="CR.29.0">
          endchar
        </CharString>
        <CharString name="CR.3.0">
          endchar
        </CharString>
        <CharString name="CR.30.0">
          endchar
        </CharString>
        <CharString name="CR.31.0">
          endchar
        </CharString>
        <CharString name="CR.32.0">
          endchar
        </CharString>
        <CharString name="CR.33.0">
          endchar
        </CharString>
        <CharString name="CR.34.0">
          endchar
        </CharString>
        <CharString name="CR.35.0">
          endchar
        </CharString>
        <CharString name="CR.36.0">
          endchar
        </CharString>
        <CharString name="CR.37.0">
          endchar
        </CharString>
        <CharString name="CR.38.0">
          endchar
        </CharString>
        <CharString name="CR.39.0">
          endchar
        </CharString>
        <CharString name="CR.4.0">
          endchar
        </CharString>
        <CharString name="CR.40.0">
          endchar
        </CharString>
        <CharString name="CR.41.0">
          endchar
        </CharString>
        <CharString name="CR.42.0">
          endchar
        </CharString>
        <CharString name="CR.43.0">
          endchar
        </CharString>
        <CharString name="CR.44.0">
          endchar
        </CharString>
        <CharString name="CR.45.0">
          endchar
        </CharString>
        <CharString name="CR.46.0">
          endchar
        </CharString>
        <CharString name="CR.47.0">
          endchar
        </CharString>
        <CharString name="CR.48.0">
          endchar
        </CharString>
        <CharString name="CR.49.0">
          endchar
        </CharString>
        <CharString name="CR.5.0">
          endchar
        </CharString>
        <CharString name="CR.50.0">
          endchar
        </CharString>
        <CharString name="CR.51.0">
          endchar
        </CharString>
        <CharString name="CR.52.0">
          endchar
        </CharString>
        <CharString name="CR.53.0">
          endchar
        </CharString>
        <CharString name="CR.54.0">
          endchar
        </CharString>
        <CharString name="CR.55.0">
          endchar
        </CharString>
        <CharString name="CR.56.0">
          endchar
        </CharString>
        <CharString name="CR.57.0">
          endchar
        </CharString>
        <CharString name="CR.58.0">
          endchar
        </CharString>
        <CharString name="CR.59.0">
          endchar
        </CharString>
        <CharString name="CR.6.0">
          endchar
        </CharString>
        <CharString name="CR.60.0">
          endchar
        </CharString>
        <CharString name="CR.61.0">
          endchar
        </CharString>
        <CharString name="CR.62.0">
          endchar
        </CharString>
        <CharString name="CR.63.0">
          endchar
        </CharString>
        <CharString name="CR.64.0">
          endchar
        </CharString>
        <CharString name="CR.65.0">
          endchar
        </CharString>
        <CharString name="CR.66.0">
          endchar
        </CharString>
        <CharString name="CR.67.0">
          endchar
        </CharString>
        <CharString name="CR.68.0">
          endchar
        </CharString>
        <CharString name="CR.69.0">
          endchar
        </CharString>
        <CharString name="CR.7.0">
          endchar
        </CharString>
        <CharString name="CR.70.0">
          endchar
        </CharString>
        <CharString name="CR.71.0">
          endchar
        </CharString>
        <CharString name="CR.72.0">
          endchar
        </CharString>
        <CharString name="CR.73.0">
          endchar
        </CharString>
        <CharString name="CR.74.0">
          endchar
        </CharString>
        <CharString name="CR.75.0">
          endchar
        </CharString>
        <CharString name="CR.75.1">
          endchar
        </CharString>
        <CharString name="CR.76.0">
          endchar
        </CharString>
        <CharString name="CR.76.1">
          endchar
        </CharString>
        <CharString name="CR.77.0">
          endchar
        </CharString>
        <CharString name="CR.77.1">
          endchar
        </CharString>
        <CharString name="CR.78.0">
          endchar
        </CharString>
        <CharString name="CR.78.1">
          endchar
        </CharString>
        <CharString name="CR.79.0">
          endchar
        </CharString>
        <CharString name="CR.79.1">
          endchar
        </CharString>
        <CharString name="CR.8.0">
          endchar
        </CharString>
        <CharString name="CR.80.0">
          endchar
        </CharString>
        <CharString name="CR.80.1">
          endchar
        </CharString>
        <CharString name="CR.81.0">
          endchar
        </CharString>
        <CharString name="CR.81.1">
          endchar
        </CharString>
        <CharString name="CR.82.0">
          endchar
        </CharString>
        <CharString name="CR.82.1">
          endchar
        </CharString>
        <CharString name="CR.83.0">
          endchar
        </CharString>
        <CharString name="CR.83.1">
          endchar
        </CharString>
        <CharString name="CR.84.0">
          endchar
        </CharString>
        <CharString name="CR.84.1">
          endchar
        </CharString>
        <CharString name="CR.85.0">
          endchar
        </CharString>
        <CharString name="CR.85.1">
          endchar
        </CharString>
        <CharString name="CR.86.0">
          endchar
        </CharString>
        <CharString name="CR.86.1">
          endchar
        </CharString>
        <CharString name="CR.87.0">
          endchar
        </CharString>
        <CharString name="CR.87.1">
          endchar
        </CharString>
        <CharString name="CR.88.0">
          endchar
        </CharString>
        <CharString name="CR.88.1">
          endchar
        </CharString>
        <CharString name="CR.89.0">
          endchar
        </CharString>
        <CharString name="CR.89.1">
          endchar
        </CharString>
        <CharString name="CR.9.0">
          endchar
        </CharString>
        <CharString name="CR.90.0">
          endchar
        </CharString>
        <CharString name="CR.90.1">
          endchar
        </CharString>
        <CharString name="CR.91.0">
          endchar
        </CharString>
        <CharString name="CR.91.1">
          endchar
        </CharString>
        <CharString name="CR.92.0">
          endchar
        </CharString>
        <CharString name="CR.92.1">
          endchar
        </CharString>
        <CharString name="CR.93.0">
          endchar
        </CharString>
        <CharString name="CR.93.1">
          endchar
        </CharString>
        <CharString name="CR.94.0">
          endchar
        </CharString>
        <CharString name="CR.94.1">
          endchar
        </CharString>
        <CharString name="CR.95.0">
          endchar
        </CharString>
        <CharString name="CR.95.1">
          endchar
        </CharString>
        <CharString name="CR.96.0">
          endchar
        </CharString>
        <CharString name="CR.96.1">
          endchar
        </CharString>
        <CharString name="CR.97.0">
          endchar
        </CharString>
        <CharString name="CR.97.1">
          endchar
        </CharString>
        <CharString name="CR.98.0">
          endchar
        </CharString>
        <CharString name="CR.98.1">
          endchar
        </CharString>
        <CharString name="CR.99.0">
          endchar
        </CharString>
        <CharString name="CR.99.1">
          endchar
        </CharString>
        <CharString name="Cacute">
          -13 73 501 72 hstem
          65 81 295 76 vstem
          255 736 rmoveto
          -23 callsubr
          122 -103 rmoveto
          -100 callsubr
          endchar
        </CharString>
        <CharString name="Ccaron">
          -13 73 501 72 hstem
          65 81 295 76 vstem
          371 698 rmoveto
          9 callsubr
          10 -65 rmoveto
          -100 callsubr
          endchar
        </CharString>
        <CharString name="Ccedilla">
          -51 111 -72 72 -41 -21 563 72 hstemhm
          65 81 136 70 89 76 hintmask 01011110
          352 -181 rmoveto
          5 87 -22 55 -35 27 45 3 51 11 56 20 rrcurveto
          8 73 rlineto
          -206 -76 -108 48 0 170 0 156 92 168 123 0 71 0 11 -54 -2 -106 rrcurveto
          76 1 rlineto
          7 152 -33 79 -114 0 -174 0 -138 -198 0 -212 rrcurveto
          hintmask 00111110
          0 -121 48 -77 87 -27 -40 -18 -35 -46 -31 -76 rrcurveto
          42 -13 rlineto
          hintmask 10011110
          -12 callsubr
          endchar
        </CharString>
        <CharString name="Cdotaccent">
          -13 73 501 72 81.5 132 hstem
          65 81 295 76 vstem
          409 715 rmoveto
          8 callsubr
          50 -81 rmoveto
          -100 callsubr
          endchar
        </CharString>
        <CharString name="D">
          -5 69 -43 -21 628 -20 hstemhm
          441 81 hintmask 10110000
          522 384 rmoveto
          -99 callsubr
          hintmask 01110000
          -98 callsubr
          -81 -9 rmoveto
          -97 callsubr
          endchar
        </CharString>
        <CharString name="Dcaron">
          -5 69 -43 -21 628 -20 hstemhm
          441 81 hintmask 10110000
          372 693 rmoveto
          9 callsubr
          154 -309 rmoveto
          -99 callsubr
          hintmask 01110000
          -98 callsubr
          -81 -9 rmoveto
          -97 callsubr
          endchar
        </CharString>
        <CharString name="Dcroat">
          -5 69 -43 -21 285 58 285 -20 hstemhm
          441 81 hintmask 10111000
          522 384 rmoveto
          -11 callsubr
          hintmask 01111000
          -10 callsubr
          -214 -99 rmoveto
          -9 callsubr
          endchar
        </CharString>
        <CharString name="E">
          0 69 214 61 207 69 hstem
          58 490 vstem
          443 69 rmoveto
          -96 callsubr
          endchar
        </CharString>
        <CharString name="Eacute">
          0 69 214 61 207 69 hstem
          58 490 vstem
          259 723 rmoveto
          -23 callsubr
          184 -654 rmoveto
          -96 callsubr
          endchar
        </CharString>
        <CharString name="Ebreve">
          0 69 214 61 207 69 75 63 hstem
          58 535 vstem
          548 867 rmoveto
          7 callsubr
          -150 -770 rmoveto
          -96 callsubr
          endchar
        </CharString>
        <CharString name="Ecaron">
          0 69 214 61 207 69 hstem
          58 522 vstem
          375 685 rmoveto
          9 callsubr
          72 -616 rmoveto
          -96 callsubr
          endchar
        </CharString>
        <CharString name="Ecircumflex">
          0 69 214 61 207 69 hstem
          58 502 vstem
          506 688 rmoveto
          -16 callsubr
          38 -734 rmoveto
          -96 callsubr
          endchar
        </CharString>
        <CharString name="Edieresis">
          0 69 214 61 207 69 80.5 132 -130 132.5 hstemhm
          58 503 hintmask 11101100
          521 703 rmoveto
          -29 callsubr
          hintmask 11110100
          -134 -1 rmoveto
          -28 callsubr
          218 -631 rmoveto
          -96 callsubr
          endchar
        </CharString>
        <CharString name="Edotaccent">
          0 69 214 61 207 69 81.5 132 hstem
          58 490 vstem
          413 702 rmoveto
          8 callsubr
          112 -632 rmoveto
          -96 callsubr
          endchar
        </CharString>
        <CharString name="Egrave">
          0 69 214 61 207 69 hstem
          58 490 vstem
          500 715 rmoveto
          -71 callsubr
          -37 -613 rmoveto
          -96 callsubr
          endchar
        </CharString>
        <CharString name="Emacron">
          0 69 214 61 207 69 117 66 hstem
          58 507 vstem
          565 803 rmoveto
          -26 callsubr
          -109 -668 rmoveto
          -96 callsubr
          endchar
        </CharString>
        <CharString name="Eogonek">
          -209 56 153 69 214 61 207 69 hstem
          167 73 vstem
          395 -168 rmoveto
          -10 37 rlineto
          -104 -39 -41 18 0 33 0 34 53 42 132 43 rrcurveto
          18 69 -291 0 42 214 244 0 12 61 -244 0 40 207 288 0 14 69 -370 0 -120 -620 262 0 rlineto
          -108 -48 -45 -50 0 -44 0 -61 79 -41 149 76 rrcurveto
          endchar
        </CharString>
        <CharString name="Eth">
          -5 69 -43 -21 285 58 285 -20 hstemhm
          441 81 hintmask 10111000
          522 384 rmoveto
          -11 callsubr
          hintmask 01111000
          -10 callsubr
          -214 -99 rmoveto
          -9 callsubr
          endchar
        </CharString>
        <CharString name="Euro">
          -12 67 136 60 -53 55 96 54 163 67 hstemhm
          105 75 298 73 hintmask 10111110
          472 34 rmoveto
          -8 49 rlineto
          -184 -59 -88 34 -12 140 rrcurveto
          212 0 14 55 -226 0 rlineto
          1 32 6 32 8 32 rrcurveto
          230 0 14 54 -225 0 rlineto
          37 91 66 72 77 0 63 0 17 -41 4 -73 rrcurveto
          73 11 rlineto
          -5 114 -41 56 -94 0 -116 0 -102 -96 -52 -129 rrcurveto
          -71 0 -13 -59 64 0 rlineto
          hintmask 11011110
          -8 -32 -6 -33 -2 -33 rrcurveto
          -65 0 -12 -60 77 0 rlineto
          11 -177 124 -86 232 106 rrcurveto
          endchar
        </CharString>
        <CharString name="F">
          21 -21 268 63 219 70 hstem
          60 500 vstem
          447 268 rmoveto
          12 63 -254 0 43 219 300 0 12 70 -380 0 -120 -620 81 0 52 268 rlineto
          endchar
        </CharString>
        <CharString name="G">
          -11 69 -54 54 503 72 hstemhm
          64 82 286 76 hintmask 10111000
          403 -109 rmoveto
          -95 callsubr
          hintmask 01111000
          -94 callsubr
          endchar
        </CharString>
        <CharString name="Gbreve">
          -11 69 -54 54 503 72 75 63 hstemhm
          64 82 286 76 hintmask 10111100
          537 880 rmoveto
          7 callsubr
          -179 -961 rmoveto
          -95 callsubr
          hintmask 01111100
          -94 callsubr
          endchar
        </CharString>
        <CharString name="Gcommaaccent">
          -11 69 -54 54 503 72 hstemhm
          64 82 5 98 183 76 hintmask 10110100
          403 -109 rmoveto
          -95 callsubr
          hintmask 01110100
          -94 callsubr
          hintmask 10101100
          -221 -245 rmoveto
          12 callsubr
          endchar
        </CharString>
        <CharString name="Gdotaccent">
          -11 69 -54 54 503 72 81.5 132 hstemhm
          64 82 286 76 hintmask 10111100
          402 715 rmoveto
          8 callsubr
          83 -823 rmoveto
          -95 callsubr
          hintmask 01111100
          -94 callsubr
          endchar
        </CharString>
        <CharString name="H">
          21 -21 282 64 274 -20 hstem
          40 511 vstem
          349 hmoveto
          82 0 120 620 -82 0 -53 -274 -228 0 53 274 -81 0 -120 -620 81 0 55 282 228 0 rlineto
          endchar
        </CharString>
        <CharString name="Hbar">
          21 -21 268 64 112 58 -56 53 -53 174 hstemhm
          40 558 hintmask 11010100
          413 332 rmoveto
          -228 0 22 114 228 0 rlineto
          -86 -446 rmoveto
          82 0 rlineto
          hintmask 11100100
          86 444 70 0 11 58 -70 0 rlineto
          hintmask 11001100
          23 118 -82 0 rlineto
          hintmask 11010100
          -23 -121 -228 0 rlineto
          hintmask 11001100
          23 121 -81 0 rlineto
          hintmask 11100100
          -23 -118 -71 0 -12 -58 72 0 -86 -444 81 0 52 268 228 0 rlineto
          endchar
        </CharString>
        <CharString name="I">
          0 65 490 65 hstem
          36 493 vstem
          277 65 rmoveto
          -93 callsubr
          endchar
        </CharString>
        <CharString name="Iacute">
          0 65 490 65 hstem
          36 493 vstem
          239 723 rmoveto
          -23 callsubr
          38 -658 rmoveto
          -93 callsubr
          endchar
        </CharString>
        <CharString name="Ibreve">
          0 65 490 65 75 63 hstem
          36 537 vstem
          528 867 rmoveto
          7 callsubr
          -296 -774 rmoveto
          -93 callsubr
          endchar
        </CharString>
        <CharString name="Icircumflex">
          0 65 490 65 hstem
          36 504 vstem
          486 688 rmoveto
          -16 callsubr
          -108 -738 rmoveto
          -93 callsubr
          endchar
        </CharString>
        <CharString name="Idieresis">
          0 65 490 65 80.5 132 -130 132.5 hstemhm
          36 505 hintmask 11011000
          501 703 rmoveto
          -29 callsubr
          hintmask 11101000
          -134 -1 rmoveto
          -28 callsubr
          72 -635 rmoveto
          -93 callsubr
          endchar
        </CharString>
        <CharString name="Idotaccent">
          0 65 490 65 81.5 132 hstem
          36 493 vstem
          393 702 rmoveto
          8 callsubr
          -34 -636 rmoveto
          -93 callsubr
          endchar
        </CharString>
        <CharString name="Igrave">
          0 65 490 65 hstem
          36 493 vstem
          480 715 rmoveto
          -71 callsubr
          -183 -617 rmoveto
          -93 callsubr
          endchar
        </CharString>
        <CharString name="Imacron">
          0 65 490 65 117 66 hstem
          36 509 vstem
          545 803 rmoveto
          -26 callsubr
          -255 -672 rmoveto
          -93 callsubr
          endchar
        </CharString>
        <CharString name="Iogonek">
          -208 56 152 65 490 65 hstem
          83 72 vstem
          310 -167 rmoveto
          -10 37 rlineto
          -103 -39 -42 17 0 33 0 35 34 41 83 43 rrcurveto
          140 0 15 65 -150 0 95 490 145 0 12 65 -375 0 -13 -65 150 0 -95 -490 -147 0 -13 -65 153 0 rlineto
          -75 -48 -31 -48 0 -45 0 -61 78 -41 149 76 rrcurveto
          endchar
        </CharString>
        <CharString name="J">
          -11 74 492 65 hstem
          40 452 vstem
          353 50 rmoveto
          27 27 14 34 32 171 rrcurveto
          66 338 -285 0 -14 -65 205 0 -55 -282 rlineto
          -26 -130 -9 -31 -19 -19 -27 -28 -55 -4 -154 2 rrcurveto
          -13 -74 rlineto
          187 -1 84 20 42 42 rrcurveto
          endchar
        </CharString>
        <CharString name="K">
          15 -21 27 -21 26 -21 615 -20 hstemhm
          49 534 hintmask 10011000
          394 -6 rmoveto
          hintmask 00111000
          -92 callsubr
          -43 308 rmoveto
          hintmask 01011000
          -91 callsubr
          endchar
        </CharString>
        <CharString name="Kcommaaccent">
          15 -21 27 -21 26 -21 615 -20 hstemhm
          203 98 hintmask 10011000
          394 -6 rmoveto
          hintmask 00111000
          -92 callsubr
          -43 308 rmoveto
          hintmask 01011000
          -91 callsubr
          -90 -885 rmoveto
          12 callsubr
          endchar
        </CharString>
        <CharString name="L">
          0 70 550 -20 hstem
          61 400 vstem
          446 hmoveto
          -90 callsubr
          endchar
        </CharString>
        <CharString name="Lacute">
          0 70 550 -20 hstem
          61 479 vstem
          269 723 rmoveto
          -23 callsubr
          177 -723 rmoveto
          -90 callsubr
          endchar
        </CharString>
        <CharString name="Lcaron">
          0 70 550 -20 100 -20 hstem
          474 90 vstem
          474 695 rmoveto
          10 callsubr
          -118 -700 rmoveto
          -90 callsubr
          endchar
        </CharString>
        <CharString name="Lcommaaccent">
          0 70 550 -20 hstem
          194 98 vstem
          446 hmoveto
          -90 callsubr
          91 -259 rmoveto
          12 callsubr
          endchar
        </CharString>
        <CharString name="Ldot">
          0 70 196 108 246 -20 hstem
          61 437 vstem
          446 hmoveto
          -90 callsubr
          411 266 rmoveto
          26 108 -92 0 -26 -108 rlineto
          endchar
        </CharString>
        <CharString name="Lslash">
          0 70 550 -20 hstem
          54 421 vstem
          460 hmoveto
          15 70 -304 0 52 268 167 78 -3 56 -152 -72 42 220 -82 0 -51 -262 -90 -43 2 -55 76 36 -57 -296 rlineto
          endchar
        </CharString>
        <CharString name="M">
          21 -21 108 101 279 134 -2 -20 22 -20 hstemhm
          33 532 hintmask 11001100
          245 622 rmoveto
          -93 -4 -119 -618 74 0 rlineto
          hintmask 11100100
          91 488 3 0 28 -380 53 0 180 380 4 0 -98 -488 78 0 rlineto
          hintmask 11010100
          119 620 -96 0 -192 -411 -3 0 rlineto
          endchar
        </CharString>
        <CharString name="N">
          21 -21 0 141 348 132 -1 -20 21 -20 hstemhm
          40 513 hintmask 10001100
          355 hmoveto
          77 0 rlineto
          hintmask 01010100
          -89 callsubr
          hintmask 10001100
          -88 callsubr
          hintmask 10100100
          -87 callsubr
          endchar
        </CharString>
        <CharString name="NUL">
          0 endchar
        </CharString>
        <CharString name="Nacute">
          21 -21 0 141 348 132 -1 -20 21 -20 hstemhm
          40 513 hintmask 10001100
          251 725 rmoveto
          -23 callsubr
          104 -725 rmoveto
          77 0 rlineto
          hintmask 01010100
          -89 callsubr
          hintmask 10001100
          -88 callsubr
          hintmask 10100100
          -87 callsubr
          endchar
        </CharString>
        <CharString name="Ncaron">
          21 -21 0 141 348 132 -1 -20 21 -20 hstemhm
          40 532 hintmask 10001100
          367 687 rmoveto
          9 callsubr
          -8 -687 rmoveto
          77 0 rlineto
          hintmask 01010100
          -89 callsubr
          hintmask 10001100
          -88 callsubr
          hintmask 10100100
          -87 callsubr
          endchar
        </CharString>
        <CharString name="Ncommaaccent">
          21 -21 0 141 348 132 -1 -20 21 -20 hstemhm
          176 98 hintmask 10001100
          355 hmoveto
          77 0 rlineto
          hintmask 01010100
          -89 callsubr
          hintmask 10001100
          -88 callsubr
          hintmask 10100100
          -87 callsubr
          -79 -748 rmoveto
          12 callsubr
          endchar
        </CharString>
        <CharString name="Ntilde">
          21 -21 0 141 348 132 -1 -20 21 -20 99 60 42 61 hstemhm
          40 556 hintmask 10001111
          462 760 rmoveto
          -15 callsubr
          -107 -760 rmoveto
          77 0 rlineto
          hintmask 01010111
          -89 callsubr
          hintmask 10001111
          -88 callsubr
          hintmask 10100111
          -87 callsubr
          endchar
        </CharString>
        <CharString name="O">
          -12 70 504 70 hstem
          60 84 302 84 vstem
          350 632 rmoveto
          -86 callsubr
          -99 -574 rmoveto
          -85 callsubr
          endchar
        </CharString>
        <CharString name="OE">
          0 68 217 57 210 68 hstem
          53 81 vstem
          134 210 rmoveto
          0 99 43 239 168 4 rrcurveto
          -94 -484 rlineto
          -75 2 -42 40 0 100 rrcurveto
          358 -142 rmoveto
          -168 0 42 217 136 0 12 57 -137 0 41 210 165 0 12 68 -201 0 rlineto
          -273 -68 -270 -143 -160 86 -47 126 hvcurveto
          208 hlineto
          endchar
        </CharString>
        <CharString name="Oacute">
          -12 70 504 70 hstem
          60 84 302 84 vstem
          253 737 rmoveto
          -23 callsubr
          97 -105 rmoveto
          -86 callsubr
          -99 -574 rmoveto
          -85 callsubr
          endchar
        </CharString>
        <CharString name="Obreve">
          -12 70 504 70 77 63 hstem
          60 84 302 84 vstem
          541 881 rmoveto
          7 callsubr
          -236 -221 rmoveto
          -86 callsubr
          -99 -574 rmoveto
          -85 callsubr
          endchar
        </CharString>
        <CharString name="Ocircumflex">
          -12 70 504 70 hstem
          60 84 302 84 vstem
          500 702 rmoveto
          -16 callsubr
          -49 -185 rmoveto
          -86 callsubr
          -99 -574 rmoveto
          -85 callsubr
          endchar
        </CharString>
        <CharString name="Odieresis">
          -12 70 504 70 82.5 132 -130 132.5 hstemhm
          60 84 302 84 hintmask 11011100
          515 717 rmoveto
          -29 callsubr
          hintmask 11101100
          -134 -1 rmoveto
          -28 callsubr
          131 -82 rmoveto
          -86 callsubr
          -99 -574 rmoveto
          -85 callsubr
          endchar
        </CharString>
        <CharString name="Ograve">
          -12 70 504 70 hstem
          60 84 302 84 vstem
          494 729 rmoveto
          -71 callsubr
          -124 -64 rmoveto
          -86 callsubr
          -99 -574 rmoveto
          -85 callsubr
          endchar
        </CharString>
        <CharString name="Ohungarumlaut">
          -12 70 504 70 hstem
          60 84 302 84 vstem
          254 703 rmoveto
          14 callsubr
          244 -27 rmoveto
          15 callsubr
          -79 -98 rmoveto
          -86 callsubr
          -99 -574 rmoveto
          -85 callsubr
          endchar
        </CharString>
        <CharString name="Omacron">
          -12 70 504 70 119 66 hstem
          60 84 302 84 vstem
          559 817 rmoveto
          -26 callsubr
          -196 -119 rmoveto
          -86 callsubr
          -99 -574 rmoveto
          -85 callsubr
          endchar
        </CharString>
        <CharString name="Omega">
          0 65 -39 -21 556 71 hstemhm
          88 71 271 79 hintmask 01111000
          188 5 rmoveto
          -18 84 -11 71 0 105 rrcurveto
          175 57 121 104 70 40 -49 -89 vhcurveto
          hintmask 10111000
          0 -100 -48 -135 -103 -183 rrcurveto
          1 -5 180 0 12 65 -96 0 rlineto
          90 145 43 125 0 102 rrcurveto
          121 -63 74 -113 -161 -84 -142 -202 vhcurveto
          0 -74 12 -72 19 -77 rrcurveto
          -102 0 -13 -65 181 0 rlineto
          endchar
        </CharString>
        <CharString name="Oslash">
          -13 69 -40 -21 569 69 -8 -20 hstemhm
          62 83 300 83 hintmask 10101100
          145 231 rmoveto
          -8 callsubr
          110 -175 rmoveto
          -7 callsubr
          -12 -69 rmoveto
          167 118 199 206 hvcurveto
          hintmask 10011100
          -6 callsubr
          hintmask 01101100
          -5 callsubr
          hintmask 10101100
          -4 callsubr
          endchar
        </CharString>
        <CharString name="Oslashacute">
          -13 69 -40 -21 569 69 -8 -20 hstemhm
          62 83 300 83 hintmask 10101100
          252 737 rmoveto
          -23 callsubr
          -107 -506 rmoveto
          -8 callsubr
          110 -175 rmoveto
          -7 callsubr
          -12 -69 rmoveto
          167 118 199 206 hvcurveto
          hintmask 10011100
          -6 callsubr
          hintmask 01101100
          -5 callsubr
          hintmask 10101100
          -4 callsubr
          endchar
        </CharString>
        <CharString name="Otilde">
          -12 70 504 70 80 60 42 61 hstem
          60 84 302 84 vstem
          463 772 rmoveto
          -15 callsubr
          -113 -140 rmoveto
          -86 callsubr
          -99 -574 rmoveto
          -85 callsubr
          endchar
        </CharString>
        <CharString name="P">
          21 -21 557 68 hstem
          462 79 vstem
          133 hmoveto
          39 199 rlineto
          233 22 136 95 0 141 0 115 -105 81 -264 -36 rrcurveto
          -120 -617 rlineto
          410 444 rmoveto
          0 -102 -97 -71 -179 3 rrcurveto
          55 280 rlineto
          151 17 70 -49 0 -78 rrcurveto
          endchar
        </CharString>
        <CharString name="Q">
          9 -21 576 69 hstem
          74 80 296 83 vstem
          415 -138 rmoveto
          34 66 -211 93 rlineto
          166 83 129 152 0 168 0 124 -64 85 -125 0 -207 0 -128 -247 99 -275 rrcurveto
          69 26 rlineto
          -68 251 91 176 130 0 77 0 43 -51 0 -94 0 -150 -123 -152 -177 -71 rrcurveto
          -20 -58 rlineto
          endchar
        </CharString>
        <CharString name="R">
          15 -21 27 -21 27 -21 552 68 hstemhm
          439 81 hintmask 10011000
          401 -6 rmoveto
          hintmask 00111000
          -84 callsubr
          hintmask 01011000
          -83 callsubr
          endchar
        </CharString>
        <CharString name="R_p">
          -155 -21 169 66 -40 -21 23 -21 27 -21 428 68 -10 -20 30 -20 79 63 hstemhm
          261 66 170 66 hintmask 1100000111100000
          189 -5 rmoveto
          hintmask 1000100111100000
          68 11 -49 269 rlineto
          76 75 43 72 0 83 0 87 -56 47 -135 -19 rrcurveto
          hintmask 1001000111100000
          -121 -620 65 0 111 561 rlineto
          48 1 22 -23 0 -49 0 -64 -35 -66 -82 -81 rrcurveto
          -3 vlineto
          hintmask 1100010011100000
          246 -217 rmoveto
          -9 0 -12 3 -12 6 27 142 28 151 9 48 18 16 16 9 14 0 rrcurveto
          18 10 -21 -42 hvcurveto
          -116 -54 -196 -53 vhcurveto
          -79 -228 rmoveto
          hintmask 1010000111100000
          8 39 11 60 13 68 rrcurveto
          hintmask 1100000111100000
          11 -3 11 -2 10 0 rrcurveto
          107 81 217 180 78 -21 34 -34 hvcurveto
          -26 0 -29 -20 -26 -28 rrcurveto
          hintmask 1100001011100000
          5 38 -62 -5 rlineto
          -18 -107 -68 -348 -40 -208 rrcurveto
          endchar
        </CharString>
        <CharString name="Racute">
          15 -21 27 -21 27 -21 552 68 hstemhm
          439 81 hintmask 00111000
          236 730 rmoveto
          -23 callsubr
          hintmask 10011000
          165 -736 rmoveto
          hintmask 00111000
          -84 callsubr
          hintmask 01011000
          -83 callsubr
          endchar
        </CharString>
        <CharString name="Rcaron">
          15 -21 27 -21 27 -21 552 68 hstemhm
          439 81 hintmask 00111000
          352 692 rmoveto
          9 callsubr
          hintmask 10011000
          53 -698 rmoveto
          hintmask 00111000
          -84 callsubr
          hintmask 01011000
          -83 callsubr
          endchar
        </CharString>
        <CharString name="Rcommaaccent">
          15 -21 27 -21 27 -21 552 68 hstemhm
          187 98 154 81 hintmask 10011100
          401 -6 rmoveto
          hintmask 00111100
          -84 callsubr
          hintmask 01011100
          -83 callsubr
          -93 -542 rmoveto
          12 callsubr
          endchar
        </CharString>
        <CharString name="S">
          -8 72 -50 50 499 68 hstemhm
          123 82 173 83 hintmask 10111000
          512 460 rmoveto
          -82 callsubr
          hintmask 01111000
          -16 -80 rlineto
          hintmask 10111000
          -81 callsubr
          endchar
        </CharString>
        <CharString name="Sacute">
          -8 72 -50 50 499 68 hstemhm
          123 82 173 83 hintmask 10111000
          252 735 rmoveto
          -23 callsubr
          260 -275 rmoveto
          -82 callsubr
          hintmask 01111000
          -16 -80 rlineto
          hintmask 10111000
          -81 callsubr
          endchar
        </CharString>
        <CharString name="Scaron">
          -8 72 -50 50 499 68 hstemhm
          123 82 173 83 hintmask 10111000
          368 697 rmoveto
          9 callsubr
          148 -237 rmoveto
          -82 callsubr
          hintmask 01111000
          -16 -80 rlineto
          hintmask 10111000
          -81 callsubr
          endchar
        </CharString>
        <CharString name="Scedilla">
          -52 116 -70 70 499 68 hstemhm
          123 82 50 70 53 83 hintmask 10111100
          255 -184 rmoveto
          70 2 rlineto
          hintmask 01111100
          6 96 -27 57 -42 23 140 13 59 68 0 70 0 139 -256 60 0 115 0 56 48 48 68 0 67 0 38 -35 14 -82 rrcurveto
          72 14 rlineto
          -16 111 -53 60 -103 0 -127 0 -90 -87 0 -95 0 -145 255 -64 0 -102 0 -61 -83 -47 -250 64 rrcurveto
          hintmask 10111100
          -16 -80 rlineto
          hintmask 01111100
          51 -11 46 -6 41 -3 -37 -20 -33 -45 -30 -72 rrcurveto
          42 -13 rlineto
          hintmask 10111100
          16 callsubr
          endchar
        </CharString>
        <CharString name="Scommaaccent">
          -8 72 -50 50 499 68 hstemhm
          123 82 -48 98 123 83 hintmask 10110100
          512 460 rmoveto
          -82 callsubr
          hintmask 01110100
          -16 -80 rlineto
          hintmask 10110100
          -81 callsubr
          hintmask 10101100
          -325 -713 rmoveto
          12 callsubr
          endchar
        </CharString>
        <CharString name="T">
          21 -21 550 70 hstem
          102 478 vstem
          375 550 rmoveto
          -80 callsubr
          endchar
        </CharString>
        <CharString name="Tcaron">
          21 -21 550 70 hstem
          102 478 vstem
          358 685 rmoveto
          9 callsubr
          21 -135 rmoveto
          -80 callsubr
          endchar
        </CharString>
        <CharString name="Tcommaaccent">
          21 -21 550 70 hstem
          167 98 vstem
          375 550 rmoveto
          -80 callsubr
          -143 -259 rmoveto
          12 callsubr
          endchar
        </CharString>
        <CharString name="Thorn">
          0 174 284 68 -68 162 hstemhm
          442 80 hintmask 11010000
          133 hmoveto
          19 100 rlineto
          233 21 137 95 0 142 0 102 -83 75 -203 -9 rrcurveto
          hintmask 10110000
          18 94 -81 0 -121 -620 rlineto
          hintmask 11010000
          390 345 rmoveto
          0 -103 -96 -69 -179 1 rrcurveto
          55 281 rlineto
          151 16 69 -49 0 -77 rrcurveto
          endchar
        </CharString>
        <CharString name="U">
          -14 71 563 -20 hstem
          71 82 vstem
          160 221 rmoveto
          -79 callsubr
          endchar
        </CharString>
        <CharString name="Uacute">
          -14 71 563 -20 hstem
          71 82 vstem
          249 723 rmoveto
          -23 callsubr
          -89 -502 rmoveto
          -79 callsubr
          endchar
        </CharString>
        <CharString name="Ubreve">
          -14 71 563 -20 95 63 hstem
          71 82 vstem
          538 867 rmoveto
          7 callsubr
          -423 -618 rmoveto
          -79 callsubr
          endchar
        </CharString>
        <CharString name="Ucircumflex">
          -14 71 563 -20 hstem
          71 82 vstem
          496 688 rmoveto
          -16 callsubr
          -235 -582 rmoveto
          -79 callsubr
          endchar
        </CharString>
        <CharString name="Udieresis">
          -14 71 563 -20 100.5 132 -130 132.5 hstemhm
          71 82 hintmask 11011000
          511 703 rmoveto
          -29 callsubr
          hintmask 11101000
          -134 -1 rmoveto
          -28 callsubr
          -55 -479 rmoveto
          -79 callsubr
          endchar
        </CharString>
        <CharString name="Ugrave">
          -14 71 563 -20 hstem
          71 82 vstem
          490 715 rmoveto
          -71 callsubr
          -310 -461 rmoveto
          -79 callsubr
          endchar
        </CharString>
        <CharString name="Uhungarumlaut">
          -14 71 563 -20 hstem
          71 82 vstem
          251 689 rmoveto
          14 callsubr
          244 -27 rmoveto
          15 callsubr
          -266 -495 rmoveto
          -79 callsubr
          endchar
        </CharString>
        <CharString name="Umacron">
          -14 71 563 -20 137 66 hstem
          71 82 vstem
          555 803 rmoveto
          -26 callsubr
          -382 -516 rmoveto
          -79 callsubr
          endchar
        </CharString>
        <CharString name="Uogonek">
          -209 57 138 71 563 -20 hstemhm
          71 82 -43 73 hintmask 11101000
          337 -167 rmoveto
          -10 37 rlineto
          -103 -39 -41 17 0 33 0 35 44 34 116 57 65 32 44 63 19 100 rrcurveto
          82 418 -81 0 -82 -420 rlineto
          hintmask 11110000
          -19 -98 -46 -45 -72 0 -81 0 -35 50 23 114 rrcurveto
          77 399 -81 0 -78 -400 rlineto
          -29 -152 61 -76 119 -6 rrcurveto
          hintmask 11101000
          -81 -43 -38 -44 0 -40 rrcurveto
          0 -62 79 -40 148 76 rrcurveto
          endchar
        </CharString>
        <CharString name="Uring">
          -14 71 563 -20 77 210 hstem
          71 82 vstem
          394 887 rmoveto
          18 callsubr
          -234 -666 rmoveto
          -79 callsubr
          endchar
        </CharString>
        <CharString name="V">
          0 74 546 -20 23 -20 hstemhm
          109 80 hintmask 10110000
          284 hmoveto
          hintmask 11010000
          107 207 103 207 95 206 rrcurveto
          -81 hlineto
          -83 -182 -89 -182 -91 -182 rrcurveto
          -8 hlineto
          hintmask 10110000
          -18 182 -18 186 -12 181 rrcurveto
          -80 -6 rlineto
          15 -206 20 -204 26 -207 rrcurveto
          endchar
        </CharString>
        <CharString name="W">
          0 105 515 -20 hstemhm
          67 77 -77 513 hintmask 11010000
          324 hmoveto
          -78 callsubr
          hintmask 11100000
          -77 callsubr
          endchar
        </CharString>
        <CharString name="Wacute">
          0 105 515 -20 hstemhm
          67 77 -77 513 hintmask 11010000
          252 723 rmoveto
          -23 callsubr
          72 -723 rmoveto
          -78 callsubr
          hintmask 11100000
          -77 callsubr
          endchar
        </CharString>
        <CharString name="Wcircumflex">
          0 105 515 -20 hstemhm
          67 77 -77 513 hintmask 11010000
          499 688 rmoveto
          -16 callsubr
          -74 -803 rmoveto
          -78 callsubr
          hintmask 11100000
          -77 callsubr
          endchar
        </CharString>
        <CharString name="Wdieresis">
          0 105 515 -20 100.5 132 -130 132.5 hstemhm
          67 77 -77 513 hintmask 11010100
          514 703 rmoveto
          -29 callsubr
          hintmask 11100100
          -134 -1 rmoveto
          -28 callsubr
          106 -700 rmoveto
          -78 callsubr
          hintmask 11101000
          -77 callsubr
          endchar
        </CharString>
        <CharString name="Wgrave">
          0 105 515 -20 hstemhm
          67 77 -77 513 hintmask 11010000
          493 715 rmoveto
          -71 callsubr
          -149 -682 rmoveto
          -78 callsubr
          hintmask 11100000
          -77 callsubr
          endchar
        </CharString>
        <CharString name="X">
          18 -21 24 -21 24 -21 617 -20 23 -20 hstemhm
          -1 588 hintmask 10001100
          383 -3 rmoveto
          hintmask 00110100
          84 6 -128 302 248 315 -89 0 -192 -256 rlineto
          hintmask 01001100
          -106 259 -82 -6 128 -302 -247 -315 87 0 193 255 rlineto
          endchar
        </CharString>
        <CharString name="Y">
          21 -21 620 -20 22 -20 hstemhm
          105 489 hintmask 10110000
          269 hmoveto
          39 203 rlineto
          hintmask 11010000
          -76 callsubr
          hintmask 10110000
          -75 callsubr
          endchar
        </CharString>
        <CharString name="Yacute">
          21 -21 620 -20 22 -20 hstemhm
          105 489 hintmask 10110000
          244 725 rmoveto
          -23 callsubr
          25 -725 rmoveto
          39 203 rlineto
          hintmask 11010000
          -76 callsubr
          hintmask 10110000
          -75 callsubr
          endchar
        </CharString>
        <CharString name="Ycircumflex">
          21 -21 620 -20 22 -20 hstemhm
          105 489 hintmask 10110000
          492 690 rmoveto
          -16 callsubr
          -122 -805 rmoveto
          39 203 rlineto
          hintmask 11010000
          -76 callsubr
          hintmask 10110000
          -75 callsubr
          endchar
        </CharString>
        <CharString name="Ydieresis">
          21 -21 620 -20 22 -20 100.5 132 -130 132.5 hstemhm
          105 489 hintmask 10101100
          506 705 rmoveto
          -29 callsubr
          hintmask 11010100
          -134 -1 rmoveto
          -28 callsubr
          59 -702 rmoveto
          39 203 286 417 -87 0 -222 -334 rlineto
          hintmask 10110100
          -75 callsubr
          endchar
        </CharString>
        <CharString name="Ygrave">
          21 -21 620 -20 22 -20 hstemhm
          105 489 hintmask 10110000
          485 717 rmoveto
          -71 callsubr
          -196 -684 rmoveto
          39 203 rlineto
          hintmask 11010000
          -76 callsubr
          hintmask 10110000
          -75 callsubr
          endchar
        </CharString>
        <CharString name="Z">
          0 70.5 479 70.5 hstem
          23 529 vstem
          437 hmoveto
          -74 callsubr
          endchar
        </CharString>
        <CharString name="Zacute">
          0 70.5 479 70.5 hstem
          23 529 vstem
          244 723 rmoveto
          -23 callsubr
          193 -723 rmoveto
          -74 callsubr
          endchar
        </CharString>
        <CharString name="Zcaron">
          0 70.5 479 70.5 hstem
          23 542 vstem
          360 685 rmoveto
          9 callsubr
          81 -685 rmoveto
          -74 callsubr
          endchar
        </CharString>
        <CharString name="Zdotaccent">
          0 70.5 479 70.5 81.5 132 hstem
          23 529 vstem
          399 702 rmoveto
          8 callsubr
          120 -701 rmoveto
          -74 callsubr
          endchar
        </CharString>
        <CharString name="a">
          -10 69 374 67 0 -20 hstemhm
          50 79 211 73 hintmask 11011000
          193 63 rmoveto
          -70 callsubr
          320 -26 rmoveto
          -69 callsubr
          hintmask 10111000
          69 352 rlineto
          hintmask 11011000
          -68 callsubr
          endchar
        </CharString>
        <CharString name="aacute">
          -10 69 374 67 0 -20 hstemhm
          50 79 211 73 hintmask 11011000
          240 603 rmoveto
          -23 callsubr
          -47 -540 rmoveto
          -3 callsubr
          320 -26 rmoveto
          -69 callsubr
          hintmask 10111000
          69 352 rlineto
          hintmask 11011000
          -68 callsubr
          endchar
        </CharString>
        <CharString name="abreve">
          -10 69 374 67 0 -20 95 63 hstemhm
          50 79 211 73 hintmask 11011100
          529 747 rmoveto
          7 callsubr
          -381 -656 rmoveto
          -3 callsubr
          320 -26 rmoveto
          -69 callsubr
          hintmask 10111100
          69 352 rlineto
          hintmask 11011100
          -68 callsubr
          endchar
        </CharString>
        <CharString name="acircumflex">
          -10 69 374 67 0 -20 hstemhm
          50 79 211 73 hintmask 11011000
          487 568 rmoveto
          -16 callsubr
          -193 -620 rmoveto
          -3 callsubr
          320 -26 rmoveto
          -69 callsubr
          hintmask 10111000
          69 352 rlineto
          hintmask 11011000
          -68 callsubr
          endchar
        </CharString>
        <CharString name="acute">
          699 -20 hstem
          161 271 vstem
          161 593 rmoveto
          -23 callsubr
          endchar
        </CharString>
        <CharString name="adieresis">
          -10 69 374 67 0 -20 100.5 132 -130 132.5 hstemhm
          50 79 211 73 hintmask 11001110
          502 583 rmoveto
          -29 callsubr
          hintmask 11010110
          -134 -1 rmoveto
          -28 callsubr
          -13 -517 rmoveto
          -3 callsubr
          320 -26 rmoveto
          -69 callsubr
          hintmask 10110110
          69 352 rlineto
          hintmask 11010110
          -68 callsubr
          endchar
        </CharString>
        <CharString name="ae">
          -7 67 373 63 -62 65 hstemhm
          33 79 131 74 166 73 hintmask 10111100
          445 434 rmoveto
          -2 callsubr
          -298 -370 rmoveto
          -23 -12 26 52 hvcurveto
          hintmask 11011100
          -1 callsubr
          367 -7 rmoveto
          0 callsubr
          endchar
        </CharString>
        <CharString name="aeacute">
          -7 67 373 63 -62 65 204 -20 hstemhm
          33 79 131 74 166 73 hintmask 11011110
          245 597 rmoveto
          -23 callsubr
          hintmask 10111110
          200 -163 rmoveto
          -2 callsubr
          -298 -370 rmoveto
          -23 -12 26 52 hvcurveto
          hintmask 11011110
          -1 callsubr
          367 -7 rmoveto
          0 callsubr
          endchar
        </CharString>
        <CharString name="agrave">
          -10 69 374 67 0 -20 hstemhm
          50 79 211 73 hintmask 11011000
          481 595 rmoveto
          -71 callsubr
          -268 -499 rmoveto
          -3 callsubr
          320 -26 rmoveto
          -69 callsubr
          hintmask 10111000
          69 352 rlineto
          hintmask 11011000
          -68 callsubr
          endchar
        </CharString>
        <CharString name="amacron">
          -10 69 374 67 0 -20 137 66 hstemhm
          50 79 211 73 hintmask 11011100
          546 683 rmoveto
          -26 callsubr
          -340 -554 rmoveto
          -3 callsubr
          320 -26 rmoveto
          -69 callsubr
          hintmask 10111100
          69 352 rlineto
          hintmask 11011100
          -68 callsubr
          endchar
        </CharString>
        <CharString name="ampersand">
          -11 68 296 67 216 63 hstemhm
          15 82 -46 82 235 77 hintmask 11110100
          240 699 rmoveto
          hintmask 11101100
          -117 -72 -77 -88 hvcurveto
          0 -62 30 -61 90 -21 rrcurveto
          -3 vlineto
          hintmask 11110100
          -100 -21 -56 -68 0 -103 0 -103 67 -103 156 0 115 0 62 54 30 38 rrcurveto
          272 90 67 -278 vlineto
          hintmask 11101100
          -70 -54 53 61 59 35 43 71 hvcurveto
          50 0 33 -19 35 -39 rrcurveto
          50 46 rlineto
          -55 61 -52 14 -60 0 rrcurveto
          128 -346 rmoveto
          -244 vlineto
          -27 -34 -46 -18 -55 0 rrcurveto
          -101 -42 68 73 71 44 84 103 hvcurveto
          endchar
        </CharString>
        <CharString name="aogonek">
          -208 56 142 73 -38 -21 33 22 374 67 0 -20 hstemhm
          50 79 117 73 21 73 hintmask 1011101110000000
          473 -167 rmoveto
          -9 38 rlineto
          -104 -39 -41 16 0 34 0 42 53 49 141 64 rrcurveto
          hintmask 1011011010000000
          -8 40 rlineto
          -94 -35 -6 16 14 69 rrcurveto
          69 352 rlineto
          hintmask 1100101010000000
          -51 14 -47 7 -42 0 rrcurveto
          -177 -121 -174 -183 -103 44 -50 60 hvcurveto
          56 0 71 47 59 58 rrcurveto
          hintmask 1011101010000000
          -6 -51 9 -30 28 -10 rrcurveto
          hintmask 1011101110000000
          -89 -52 -36 -48 0 -45 rrcurveto
          0 -60 79 -41 148 75 rrcurveto
          hintmask 1100101010000000
          -280 230 rmoveto
          -70 callsubr
          endchar
        </CharString>
        <CharString name="approxequal">
          100 67 41 67 38 67 41 67 hstem
          34 497 vstem
          378 313 rmoveto
          57 0 39 46 57 100 rrcurveto
          -44 24 rlineto
          -37 -59 -31 -44 -29 0 -48 0 -28 108 -79 0 -57 0 -45 -49 -58 -101 rrcurveto
          44 -24 rlineto
          39 61 32 46 30 0 50 0 29 -108 79 0 rrcurveto
          -41 -213 rmoveto
          57 0 39 46 57 100 rrcurveto
          -44 24 rlineto
          -37 -59 -30 -44 -30 0 -48 0 -28 108 -78 0 -58 0 -46 -49 -57 -101 rrcurveto
          44 -24 rlineto
          39 62 32 45 29 0 51 0 29 -108 79 0 rrcurveto
          endchar
        </CharString>
        <CharString name="aring">
          -10 69 374 67 0 -20 77 210 hstemhm
          50 79 211 73 hintmask 11011100
          384 767 rmoveto
          -14 callsubr
          -191 -704 rmoveto
          -3 callsubr
          320 -26 rmoveto
          -69 callsubr
          hintmask 10111100
          69 352 rlineto
          hintmask 11011100
          -68 callsubr
          endchar
        </CharString>
        <CharString name="aringacute">
          -10 69 374 67 0 -20 77 210 hstemhm
          50 79 211 73 hintmask 11011100
          300 841 rmoveto
          -23 callsubr
          84 -74 rmoveto
          18 callsubr
          -191 -704 rmoveto
          -3 callsubr
          320 -26 rmoveto
          -69 callsubr
          hintmask 10111100
          69 352 rlineto
          hintmask 11011100
          -68 callsubr
          endchar
        </CharString>
        <CharString name="asciicircum">
          527 313 hstem
          49 452 vstem
          312 840 rmoveto
          -74 0 -189 -313 90 0 135 237 136 -237 91 0 rlineto
          endchar
        </CharString>
        <CharString name="asciitilde">
          228 73 27 73 hstem
          18 514 vstem
          180 401 rmoveto
          -89 0 -43 -70 -30 -58 rrcurveto
          60 -30 rlineto
          26 48 30 37 43 0 64 0 35 -100 94 0 rrcurveto
          88 0 44 69 30 57 rrcurveto
          -60 32 rlineto
          -26 -48 -32 -37 -41 0 -61 0 -32 100 -100 0 rrcurveto
          endchar
        </CharString>
        <CharString name="asterisk">
          98 480 hstem
          23 504 vstem
          233 578 rmoveto
          84 0 -6 -202 190 68 26 -79 -194 -58 123 -160 -67 -49 -114 168 -114 -168 -67 49 123 160 -194 58 26 79 190 -68 rlineto
          endchar
        </CharString>
        <CharString name="asterisk.alt">
          258 437 hstem
          94 437 vstem
          352 546 rmoveto
          53 130 -73 19 -19 -140 rlineto
          -40 -9 rmoveto
          -86 110 -54 -54 112 -85 rlineto
          147 -41 rmoveto
          139 21 -20 72 -131 -53 rlineto
          -147 -39 rmoveto
          -139 -20 21 -73 130 54 rlineto
          108 -31 rmoveto
          87 -110 52 54 -111 86 rlineto
          -107 -30 rmoveto
          -53 -130 73 -19 18 140 rlineto
          endchar
        </CharString>
        <CharString name="at">
          -156 62 152 67 294 60 143 61 hstem
          49 66 111 68 116.5 64.5 10 69 vstem
          407 -142 rmoveto
          9 63 rlineto
          -221 -50 -80 81 0 177 0 252 138 241 146 0 72 0 25 -52 -14 -95 -18 3 -17 1 -14 0 rrcurveto
          -127 -80 -153 -142 -86 30 -40 43 hvcurveto
          35 0 43 25 36 34 rrcurveto
          -5 -52 67 -1 rlineto
          8 56 10 62 10 50 rrcurveto
          41 200 rlineto
          33 163 -44 88 -120 0 -204 0 -160 -277 0 -282 0 -210 101 -111 257 55 rrcurveto
          -73 267 rmoveto
          -22 -18 21 52 100 55 121 57 hvcurveto
          16 0 24 -5 23 -8 rrcurveto
          -49 -240 rlineto
          -29 -25 -35 -16 -22 0 rrcurveto
          endchar
        </CharString>
        <CharString name="atilde">
          -10 69 374 67 0 -20 98 60 42 61 hstemhm
          50 79 211 73 hintmask 11011110
          451 638 rmoveto
          -15 callsubr
          -258 -575 rmoveto
          -3 callsubr
          320 -26 rmoveto
          -69 callsubr
          hintmask 10111110
          69 352 rlineto
          hintmask 11011110
          -68 callsubr
          endchar
        </CharString>
        <CharString name="b">
          -10 66 374 72 201 -20 hstem
          421 78 vstem
          201 -10 rmoveto
          177 121 168 180 110 -47 54 -64 hvcurveto
          -55 0 -70 -46 -58 -55 rrcurveto
          59 302 -77 -6 -133 -683 rlineto
          48 -14 55 -10 44 0 rrcurveto
          41 66 rmoveto
          -25 0 -36 6 -39 11 rrcurveto
          51 264 rlineto
          48 50 65 43 45 0 rrcurveto
          38 32 -34 -77 -133 -80 -130 -99 hvcurveto
          endchar
        </CharString>
        <CharString name="backslash">
          -103 912 hstem
          28 494 vstem
          28 777 rmoveto
          426 -880 68 30 -428 882 rlineto
          endchar
        </CharString>
        <CharString name="bar">
          -102 909 hstem
          237 75 vstem
          312 807 rmoveto
          -75 -909 75 hlineto
          endchar
        </CharString>
        <CharString name="braceleft">
          -207 930 -487 56 hstemhm
          109 80 15 73 -47 75 -35 73 hintmask 10101000
          365 -207 rmoveto
          -36 callsubr
          hintmask 10100100
          91 22 37 47 0 40 rrcurveto
          hintmask 10110000
          -35 callsubr
          hintmask 01110000
          0 -62 66 -54 0 -41 rrcurveto
          hintmask 01100100
          -34 callsubr
          hintmask 01101000
          -33 callsubr
          endchar
        </CharString>
        <CharString name="braceleft.cap">
          -158 930 -487 56 hstemhm
          119 80 15 73 -47 75 -35 73 hintmask 10101000
          375 -158 rmoveto
          -36 callsubr
          hintmask 10100100
          91 22 37 47 0 40 rrcurveto
          hintmask 10110000
          -35 callsubr
          hintmask 01110000
          0 -62 66 -54 0 -41 rrcurveto
          hintmask 01100100
          -34 callsubr
          hintmask 01101000
          -33 callsubr
          endchar
        </CharString>
        <CharString name="braceright">
          -207 931 -500 57 hstemhm
          205 72 -35 76 -48 74 15 79 hintmask 10010100
          11 -207 rmoveto
          hintmask 10001100
          251 60 82 74 0 72 rrcurveto
          hintmask 01001100
          0 62 -67 54 0 40 rrcurveto
          hintmask 01100100
          -32 callsubr
          hintmask 01010100
          -31 callsubr
          hintmask 01100100
          -92 -22 -36 -47 0 -41 rrcurveto
          hintmask 10001100
          -30 callsubr
          endchar
        </CharString>
        <CharString name="braceright.cap">
          -158 931 -500 57 hstemhm
          215 72 -35 76 -48 74 15 79 hintmask 10010100
          21 -158 rmoveto
          hintmask 10001100
          251 60 82 74 0 72 rrcurveto
          hintmask 01001100
          0 62 -67 54 0 40 rrcurveto
          hintmask 01100100
          -32 callsubr
          hintmask 01010100
          -31 callsubr
          hintmask 01100100
          -92 -22 -36 -47 0 -41 rrcurveto
          hintmask 10001100
          -30 callsubr
          endchar
        </CharString>
        <CharString name="bracketleft">
          -179 64 745 64 hstem
          61 481 vstem
          61 -179 rmoveto
          -73 callsubr
          endchar
        </CharString>
        <CharString name="bracketleft.cap">
          -130 64 745 64 hstem
          71 481 vstem
          71 -130 rmoveto
          -73 callsubr
          endchar
        </CharString>
        <CharString name="bracketright">
          -178 64 745 64 hstem
          6 480 vstem
          486 695 rmoveto
          -72 callsubr
          endchar
        </CharString>
        <CharString name="bracketright.cap">
          -129 64 745 64 hstem
          16 480 vstem
          496 744 rmoveto
          -72 callsubr
          endchar
        </CharString>
        <CharString name="breve">
          565 63 hstem
          104 371 vstem
          430 737 rmoveto
          7 callsubr
          endchar
        </CharString>
        <CharString name="bullet">
          172 252 hstem
          163 239 vstem
          402 312 rmoveto
          66 -45 46 -65 -66 -63 -56 -84 -65 47 -47 61 67 64 57 83 vhcurveto
          endchar
        </CharString>
        <CharString name="bullet.alt">
          190 215 hstem
          158 254 vstem
          369 190 rmoveto
          43 215 -211 0 -43 -215 rlineto
          endchar
        </CharString>
        <CharString name="c">
          -10 67 377 67 hstem
          70 78 273 72 vstem
          493 334 rmoveto
          -67 callsubr
          endchar
        </CharString>
        <CharString name="cacute">
          -10 67 377 67 hstem
          70 78 273 72 vstem
          236 604 rmoveto
          -23 callsubr
          257 -270 rmoveto
          -67 callsubr
          endchar
        </CharString>
        <CharString name="caron">
          631 -20 90 -20 24 -20 hstemhm
          125 349 hintmask 10110000
          269 555 rmoveto
          hintmask 11010000
          19 callsubr
          hintmask 10110000
          20 callsubr
          endchar
        </CharString>
        <CharString name="caron.alt">
          549 254 hstem
          282 90 vstem
          282 798 rmoveto
          10 callsubr
          endchar
        </CharString>
        <CharString name="ccaron">
          -10 67 377 67 141 -20 hstem
          70 78 273 72 vstem
          352 566 rmoveto
          9 callsubr
          145 -232 rmoveto
          -67 callsubr
          endchar
        </CharString>
        <CharString name="ccedilla">
          -54 111 -65 65 -62 62 377 67 hstemhm
          70 78 131 70 72 72 hintmask 01011110
          349 -184 rmoveto
          6 95 -27 57 -41 24 49 6 58 17 65 32 rrcurveto
          -10 42 rlineto
          -209 -66 -92 38 0 128 0 130 88 115 108 0 53 0 23 -26 1 -74 rrcurveto
          72 hlineto
          5 118 -42 49 -92 0 -158 0 -136 -154 0 -171 rrcurveto
          hintmask 00111110
          0 -92 44 -69 84 -20 -40 -17 -35 -46 -32 -77 rrcurveto
          42 -13 rlineto
          hintmask 10011110
          -12 callsubr
          endchar
        </CharString>
        <CharString name="cdotaccent">
          -10 67 377 67 81.5 132 hstem
          70 78 273 72 vstem
          390 583 rmoveto
          8 callsubr
          185 -248 rmoveto
          -67 callsubr
          endchar
        </CharString>
        <CharString name="cedilla">
          -152 -21 130 58 hstem
          292 70 vstem
          146 -147 rmoveto
          32 65 31 39 33 0 34 0 22 -37 -6 -95 rrcurveto
          70 2 rlineto
          8 129 -52 59 -67 0 -57 0 -48 -47 -42 -102 rrcurveto
          endchar
        </CharString>
        <CharString name="cent">
          31 70 305 76 138 -20 hstem
          79 74 vstem
          153 257 rmoveto
          0 68 39 58 125 19 rrcurveto
          -62 -270 rlineto
          -75 28 -27 44 0 53 rrcurveto
          270 -226 rmoveto
          13 70 rlineto
          -49 3 -42 5 -35 7 rrcurveto
          66 292 rlineto
          33 1 38 0 42 -3 rrcurveto
          14 76 rlineto
          -38 3 -36 0 -32 -2 rrcurveto
          31 137 -71 0 -30 -144 rlineto
          -181 -30 -67 -105 0 -98 0 -79 48 -65 105 -37 rrcurveto
          -34 -147 71 0 28 130 rlineto
          37 -7 42 -5 47 -2 rrcurveto
          endchar
        </CharString>
        <CharString name="check.1">
          2 -21 0 103 552 -20 hstemhm
          76 503 hintmask 10110000
          579 636 rmoveto
          -76 36 rlineto
          hintmask 01110000
          -114 -174 -99 -203 -79 -211 rrcurveto
          -4 0 -59 281 -72 -22 84 -361 69 -1 rlineto
          98 242 118 215 134 198 rrcurveto
          endchar
        </CharString>
        <CharString name="check.2">
          16 -21 23 -21 29 -21 504 -20 148 -20 hstemhm
          29 534 hintmask 10011100
          298 -5 rmoveto
          hintmask 00111100
          78 10 -87 263 274 369 -73 37 -227 -337 -52 172 -76 -21 73 -215 rlineto
          hintmask 01011100
          -179 -253 49 -23 154 210 rlineto
          endchar
        </CharString>
        <CharString name="circumflex">
          558 192 hstem
          102 348 vstem
          396 558 rmoveto
          -16 callsubr
          endchar
        </CharString>
        <CharString name="colon">
          -11 162 198 162 hstem
          194 161 vstem
          194 431 rmoveto
          -45 34 -37 46 47 34 37 45 44 -34 36 -47 -46 -34 -36 -44 vhcurveto
          -361 vmoveto
          -46 34 -35 46 47 34 35 46 44 -34 37 -47 -46 -34 -37 -44 vhcurveto
          endchar
        </CharString>
        <CharString name="colon.alt">
          86 117 213 117 hstem
          189 202 vstem
          368 416 rmoveto
          23 117 -109 0 -23 -117 rlineto
          40 -330 rmoveto
          24 117 -110 0 -24 -117 rlineto
          endchar
        </CharString>
        <CharString name="colonmonetary">
          23 67 436 72 hstem
          70 72 vstem
          316 114 rmoveto
          -27 7 -24 8 -20 9 rrcurveto
          99 360 rlineto
          24 7 28 6 30 4 rrcurveto
          -284 -231 rmoveto
          0 80 37 72 109 44 rrcurveto
          -87 -317 rlineto
          -40 30 -19 39 0 52 rrcurveto
          118 -358 rmoveto
          59 0 29 107 rlineto
          23 -4 26 -3 27 -3 rrcurveto
          28 67 rlineto
          -32 4 -29 4 -27 5 rrcurveto
          114 418 rlineto
          27 3 28 1 30 1 rrcurveto
          8 72 rlineto
          -24 -1 -23 -1 -23 -3 rrcurveto
          28 100 -58 0 -28 -106 rlineto
          -28 -5 -27 -5 -24 -6 rrcurveto
          33 122 -58 0 -38 -140 rlineto
          -170 -59 -61 -109 0 -113 0 -79 34 -60 71 -42 rrcurveto
          -47 -165 59 0 38 140 rlineto
          21 -8 23 -7 25 -6 rrcurveto
          endchar
        </CharString>
        <CharString name="comma">
          -155 -21 hstem
          201 105 vstem
          115 -157 rmoveto
          32 -19 rlineto
          107 89 49 83 3 124 rrcurveto
          -109 -3 rlineto
          13 -116 -16 -71 -79 -87 rrcurveto
          endchar
        </CharString>
        <CharString name="commaaccent">
          -275 207 hstem
          225 98 vstem
          183 -259 rmoveto
          12 callsubr
          endchar
        </CharString>
        <CharString name="commaaccent.rot">
          562 206 hstem
          217 97 vstem
          357 753 rmoveto
          13 callsubr
          endchar
        </CharString>
        <CharString name="copyright">
          7 45 89 53 235 52 87 45 hstem
          43 49 74 54 119 48 85 49 vstem
          316 613 rmoveto
          -149 -124 -146 -212 -157 89 -91 120 154 115 148 212 156 -86 90 -119 hvcurveto
          -7 -45 rmoveto
          93 70 -74 -137 -174 -90 -131 -123 -94 -73 76 136 175 98 129 119 hvcurveto
          7 -87 rmoveto
          -84 -66 -105 -113 hvcurveto
          0 -102 63 -47 117 44 rrcurveto
          8 50 rlineto
          -90 -32 -44 21 0 77 0 76 37 79 50 0 26 0 7 -25 -1 -43 rrcurveto
          48 1 rlineto
          3 77 -20 42 -54 0 rrcurveto
          endchar
        </CharString>
        <CharString name="d">
          -10 73 -72 68 377 65 -6 -20 228 -20 hstemhm
          50 78 212 75 hintmask 10101110
          197 63 rmoveto
          -66 callsubr
          hintmask 01011110
          320 -25 rmoveto
          -65 callsubr
          hintmask 10101110
          -64 callsubr
          endchar
        </CharString>
        <CharString name="dagger">
          491 -20 226 -20 hstem
          122 398 vstem
          270 126 rmoveto
          82 342 155 -15 13 62 -154 16 33 158 -75 8 -32 -158 -157 16 -13 -64 157 -16 -73 -361 11 -8 rlineto
          endchar
        </CharString>
        <CharString name="daggerdbl">
          491 -20 226 -20 hstem
          82 438 vstem
          260 76 rmoveto
          46 193 161 -16 13 63 -160 16 32 136 155 -15 13 62 -154 16 33 158 -75 8 -32 -158 -157 16 -13 -64 157 -16 -27 -136 rlineto
          -157 16 -13 -63 157 -16 -43 -212 10 -9 rlineto
          endchar
        </CharString>
        <CharString name="dcaron">
          -10 73 -72 68 377 65 -6 -20 228 -20 hstemhm
          50 78 212 75 212 90 hintmask 01101111
          627 798 rmoveto
          10 callsubr
          hintmask 10101111
          -520 -740 rmoveto
          -66 callsubr
          hintmask 01011111
          320 -25 rmoveto
          -65 callsubr
          hintmask 10101111
          -64 callsubr
          endchar
        </CharString>
        <CharString name="dcroat">
          -10 73 -72 68 377 65 -6 -20 104 52 72 -20 hstemhm
          50 78 212 75 hintmask 10101111
          197 63 rmoveto
          -66 callsubr
          hintmask 01011111
          320 -25 rmoveto
          -9 39 rlineto
          -95 -36 -6 16 14 72 rrcurveto
          88 449 69 0 10 53 -69 0 14 72 -78 -6 -13 -66 -135 0 -11 -52 136 0 -16 -84 rlineto
          hintmask 10101111
          -64 callsubr
          endchar
        </CharString>
        <CharString name="degree">
          314 60 241 60 hstem
          147 64 222 64 vstem
          339 675 rmoveto
          -99 -93 -79 -119 -100 65 -63 91 100 94 78 119 100 -66 64 -92 hvcurveto
          -27 -301 rmoveto
          -62 -39 46 63 78 53 54 67 62 40 -47 -63 -78 -54 -53 -67 hvcurveto
          endchar
        </CharString>
        <CharString name="dieresis">
          570.5 132.5 -130.5 133.5 hstemhm
          122 336 hintmask 01100000
          418 573 rmoveto
          -29 callsubr
          hintmask 10100000
          -134 -1 rmoveto
          -28 callsubr
          endchar
        </CharString>
        <CharString name="divide">
          66 93 100 67 101 93 hstem
          61 448 vstem
          354 427 rmoveto
          19 93 -90 0 -19 -93 rlineto
          245 -101 rmoveto
          -435 0 -13 -67 434 0 rlineto
          -209 -193 rmoveto
          18 93 -89 0 -19 -93 rlineto
          endchar
        </CharString>
        <CharString name="dollar">
          -80.5 174.5 -69 65 438 172 0 -20 hstemhm
          129 74 178 74 hintmask 01101100
          203 473 rmoveto
          0 32 37 27 91 -4 rrcurveto
          -49 -163 rlineto
          -44 40 -35 36 0 32 rrcurveto
          178 -323 rmoveto
          0 -34 -40 -27 -92 1 rrcurveto
          50 168 rlineto
          46 -39 36 -36 0 -33 rrcurveto
          hintmask 10011100
          -173 -231 rmoveto
          hintmask 01011100
          28 106 rlineto
          158 1 61 62 0 61 0 63 -67 61 -65 56 rrcurveto
          60 194 rlineto
          35 -5 41 -9 48 -13 rrcurveto
          14 72 rlineto
          -40 9 -37 7 -33 4 rrcurveto
          37 112 -72 0 -33 -107 rlineto
          -154 2 -60 -62 0 -63 0 -62 65 -59 63 -55 rrcurveto
          hintmask 10011100
          -61 -200 rlineto
          -40 4 -48 9 -55 14 rrcurveto
          -16 -73 rlineto
          49 -10 44 -7 39 -3 rrcurveto
          -32 -108 rlineto
          endchar
        </CharString>
        <CharString name="dotaccent">
          571.5 132.5 hstem
          219 123 vstem
          301 572 rmoveto
          8 callsubr
          endchar
        </CharString>
        <CharString name="dotlessi">
          -10 69 431 -20 hstem
          172 80 vstem
          473 44 rmoveto
          -57 callsubr
          endchar
        </CharString>
        <CharString name="e">
          -10 68 127 46 206 65 hstem
          62 76 284 75 vstem
          470 56 rmoveto
          -63 callsubr
          -131 381 rmoveto
          -62 callsubr
          endchar
        </CharString>
        <CharString name="eacute">
          -10 68 127 46 206 65 hstem
          62 76 284 75 vstem
          233 605 rmoveto
          -23 callsubr
          237 -549 rmoveto
          -63 callsubr
          -131 381 rmoveto
          -62 callsubr
          endchar
        </CharString>
        <CharString name="ebreve">
          -10 68 127 46 206 65 75 63 hstem
          62 76 284 75 vstem
          522 749 rmoveto
          7 callsubr
          -97 -665 rmoveto
          -63 callsubr
          -131 381 rmoveto
          -62 callsubr
          endchar
        </CharString>
        <CharString name="ecaron">
          -10 68 127 46 206 65 141 -20 hstem
          62 76 284 75 vstem
          350 567 rmoveto
          9 callsubr
          124 -511 rmoveto
          -63 callsubr
          -131 381 rmoveto
          -62 callsubr
          endchar
        </CharString>
        <CharString name="ecircumflex">
          -10 68 127 46 206 65 hstem
          62 76 284 75 vstem
          481 570 rmoveto
          -16 callsubr
          90 -629 rmoveto
          -63 callsubr
          -131 381 rmoveto
          -62 callsubr
          endchar
        </CharString>
        <CharString name="edieresis">
          -10 68 127 46 206 65 80.5 132 -130 132.5 hstemhm
          62 76 284 75 hintmask 11101110
          495 585 rmoveto
          -29 callsubr
          hintmask 11110110
          -134 -1 rmoveto
          -28 callsubr
          271 -526 rmoveto
          -63 callsubr
          -131 381 rmoveto
          -62 callsubr
          endchar
        </CharString>
        <CharString name="edotaccent">
          -10 68 127 46 206 65 81.5 132 hstem
          62 76 284 75 vstem
          388 584 rmoveto
          8 callsubr
          164 -527 rmoveto
          -63 callsubr
          -131 381 rmoveto
          -62 callsubr
          endchar
        </CharString>
        <CharString name="egrave">
          -10 68 127 46 206 65 hstem
          62 76 284 75 vstem
          474 597 rmoveto
          -71 callsubr
          16 -508 rmoveto
          -63 callsubr
          -131 381 rmoveto
          -62 callsubr
          endchar
        </CharString>
        <CharString name="eight">
          -12 64 439 -20 91 67 -7 7 hstemhm
          51 76 11 74 165 73 hintmask 11100110
          450 148 rmoveto
          0 66 -59 61 -60 57 53 31 65 37 81 43 rrcurveto
          -25 48 rlineto
          -86 -46 -71 -40 -57 -35 -44 42 -35 40 0 38 0 53 58 43 175 -40 rrcurveto
          hintmask 11010110
          22 76 rlineto
          hintmask 11100110
          -213 32 -116 -82 0 -93 0 -54 41 -49 47 -47 rrcurveto
          hintmask 11101110
          -143 -94 -32 -54 0 -59 rrcurveto
          -80 72 -54 109 vhcurveto
          126 92 74 86 hvcurveto
          -200 -96 rmoveto
          -69 -54 31 56 hvcurveto
          0 36 20 38 120 78 56 -51 54 -49 0 -49 rrcurveto
          -50 -54 -40 -73 vhcurveto
          endchar
        </CharString>
        <CharString name="eight.den">
          -220 50 191 -21 22 -21 139 53 hstemhm
          60 61 -4 59 113 59 hintmask 10110110
          348 -113 rmoveto
          36 callsubr
          hintmask 11010110
          37 callsubr
          hintmask 10111010
          31 callsubr
          -144 -57 rmoveto
          32 callsubr
          endchar
        </CharString>
        <CharString name="eight.inf">
          -160 50 310 53 hstemhm
          72 61 -4 59 113 59 hintmask 11011000
          360 -53 rmoveto
          30 callsubr
          hintmask 11101000
          31 callsubr
          -144 -57 rmoveto
          32 callsubr
          endchar
        </CharString>
        <CharString name="eight.num">
          415 50 170 -20 21 -20 159 53 hstemhm
          172 61 -4 59 113 59 hintmask 10110110
          460 522 rmoveto
          36 callsubr
          hintmask 11010110
          37 callsubr
          hintmask 10111010
          31 callsubr
          -144 -57 rmoveto
          32 callsubr
          endchar
        </CharString>
        <CharString name="eight.small">
          -10 50 310 53 hstemhm
          95 61 -4 59 113 59 hintmask 11011000
          383 97 rmoveto
          30 callsubr
          hintmask 11101000
          31 callsubr
          -144 -57 rmoveto
          32 callsubr
          endchar
        </CharString>
        <CharString name="eight.sup">
          321 50 271 -20 59 53 hstemhm
          154 61 -4 59 113 59 hintmask 11101100
          442 428 rmoveto
          30 callsubr
          hintmask 11110100
          31 callsubr
          -144 -57 rmoveto
          32 callsubr
          endchar
        </CharString>
        <CharString name="ellipsis">
          0 119 hstem
          19 122 61 122 61 122 vstem
          cntrmask 01110000
          481 hmoveto
          21 callsubr
          -87 hmoveto
          21 callsubr
          -87 hmoveto
          21 callsubr
          endchar
        </CharString>
        <CharString name="emacron">
          -10 68 127 46 206 65 117 66 hstem
          62 76 284 75 vstem
          540 685 rmoveto
          -26 callsubr
          -57 -563 rmoveto
          -63 callsubr
          -131 381 rmoveto
          -62 callsubr
          endchar
        </CharString>
        <CharString name="emdash">
          262 62 hstem
          68 455 vstem
          523 324 rmoveto
          -443 0 -12 -62 443 0 rlineto
          endchar
        </CharString>
        <CharString name="endash">
          262 62 hstem
          76 415 vstem
          491 324 rmoveto
          -403 0 -12 -62 403 0 rlineto
          endchar
        </CharString>
        <CharString name="eogonek">
          -208 56 144 66 127 46 206 65 hstem
          62 76 36 72 176 75 vstem
          401 -167 rmoveto
          -10 37 rlineto
          -104 -39 -41 17 0 33 0 50 86 63 138 62 rrcurveto
          -10 41 rlineto
          -227 -75 -95 33 0 129 rrcurveto
          1 vlineto
          230 17 129 69 0 114 rrcurveto
          72 -53 45 -86 -169 -127 -173 -155 vhcurveto
          0 -119 75 -81 143 18 -74 -45 -32 -45 0 -43 0 -61 78 -41 149 76 rrcurveto
          -62 604 rmoveto
          -62 callsubr
          endchar
        </CharString>
        <CharString name="equal">
          180 72 118 72 hstem
          81 388 vstem
          469 442 rmoveto
          -388 -72 388 hlineto
          -118 vmoveto
          -388 -72 388 hlineto
          endchar
        </CharString>
        <CharString name="eth">
          -12 64 343 64 hstem
          55 79 289 77 vstem
          242 -12 rmoveto
          150 108 126 197 hvcurveto
          0 94 -29 86 -59 81 rrcurveto
          95 26 -12 49 -117 -33 rlineto
          -29 34 -34 32 -40 32 rrcurveto
          -59 -44 rlineto
          32 -25 28 -25 24 -26 rrcurveto
          -127 -35 14 -48 149 41 rlineto
          26 -33 19 -33 14 -35 -27 7 -27 3 -24 0 rrcurveto
          -151 -111 -128 -149 -115 73 -79 114 hvcurveto
          15 64 rmoveto
          -74 -49 59 88 103 68 93 94 hvcurveto
          29 0 46 -8 47 -19 3 -22 2 -23 0 -23 rrcurveto
          -142 -64 -106 -102 vhcurveto
          endchar
        </CharString>
        <CharString name="exclam">
          -11 134 566 -20 hstemhm
          208 134 -110 84.5 hintmask 11010000
          321 689 rmoveto
          -94 0 10 -462 75 0 rlineto
          hintmask 11100000
          -37 -104 rmoveto
          -107 callsubr
          endchar
        </CharString>
        <CharString name="exclamdown">
          510 110 hstem
          156 245 vstem
          293 620 rmoveto
          -23 -110 108 0 23 110 rlineto
          -131 -233 rmoveto
          -19 -89 -73 -261 -22 -93 rrcurveto
          102 hlineto
          17 93 30 261 18 89 rrcurveto
          endchar
        </CharString>
        <CharString name="f">
          -179 64 372 62 304 82 hstem
          75 76 197 55 91 69 vstem
          403 2 rmoveto
          0 77 -51 89 -120 91 rrcurveto
          251 -4 12 64 -296 0 rlineto
          58 167 100 137 88 0 61 0 10 -67 -77 -91 rrcurveto
          33 -17 rlineto
          131 136 -20 121 -109 0 -133 0 -143 -178 -73 -208 rrcurveto
          -46 0 -11 -47 37 -16 rlineto
          -19 -69 -11 -70 0 -67 rrcurveto
          -158 67 -71 85 91 85 74 107 vhcurveto
          -148 -117 rmoveto
          -56 -48 43 127 hvcurveto
          0 58 8 61 15 60 122 -87 52 -85 0 -75 rrcurveto
          -63 -42 -39 -51 vhcurveto
          endchar
        </CharString>
        <CharString name="f.lig">
          -151 64 344 62 304 82 hstem
          76 77 195 55 91 69 vstem
          403 16 rmoveto
          0 73 -51 84 -119 86 rrcurveto
          250 -4 12 64 -297 0 rlineto
          57 164 101 140 89 0 61 0 10 -67 -77 -91 rrcurveto
          33 -17 rlineto
          131 136 -20 121 -109 0 -134 0 -144 -182 -73 -204 rrcurveto
          -44 0 -11 -47 36 -16 rlineto
          -18 -63 -10 -65 0 -60 rrcurveto
          -153 66 -66 85 91 85 68 99 vhcurveto
          -148 -103 rmoveto
          -56 -46 38 123 hvcurveto
          0 52 7 55 14 54 122 -82 52 -81 0 -67 rrcurveto
          -58 -42 -34 -51 vhcurveto
          endchar
        </CharString>
        <CharString name="five">
          -3 72 -48 -21 551 69 hstemhm
          395 75 hintmask 10110000
          470 197 rmoveto
          0 74 -62 70 -195 39 rrcurveto
          40 171 256 0 20 69 -331 0 -69 -290 rlineto
          201 -34 65 -53 0 -60 0 -66 -76 -68 -257 26 rrcurveto
          hintmask 01110000
          -10 -75 rlineto
          306 -26 112 117 0 106 rrcurveto
          endchar
        </CharString>
        <CharString name="five.den">
          -211 55 171 -21 137 54 hstem
          295 62 vstem
          357 -84 rmoveto
          26 callsubr
          endchar
        </CharString>
        <CharString name="five.inf">
          -151 55 287 54 hstem
          307 62 vstem
          369 -24 rmoveto
          26 callsubr
          endchar
        </CharString>
        <CharString name="five.num">
          424 55 150 -20 157 54 hstem
          407 62 vstem
          469 551 rmoveto
          26 callsubr
          endchar
        </CharString>
        <CharString name="five.small">
          -1 55 287 54 hstem
          330 62 vstem
          392 126 rmoveto
          26 callsubr
          endchar
        </CharString>
        <CharString name="five.sup">
          330 55 287 54 hstem
          389 62 vstem
          451 457 rmoveto
          26 callsubr
          endchar
        </CharString>
        <CharString name="fiveeighths">
          -220 50 191 -21 22 -21 139 53 86 52 93 55 150 -20 157 54 hstemhm
          60 61 -4 59 113 59 59 62 hintmask 1011111101110000
          469 551 rmoveto
          26 callsubr
          -408 -272 rmoveto
          -19 callsubr
          276 -444 rmoveto
          36 callsubr
          hintmask 1101111101110000
          37 callsubr
          hintmask 1011111110110000
          38 callsubr
          -144 -57 rmoveto
          32 callsubr
          endchar
        </CharString>
        <CharString name="fivesixths">
          -219 49 156 43 250 52 93 55 150 -20 157 54 hstem
          70 61 178 59 39 62 vstem
          469 551 rmoveto
          26 callsubr
          -408 -272 rmoveto
          -19 callsubr
          139 -550 rmoveto
          27 callsubr
          10 49 rmoveto
          28 callsubr
          endchar
        </CharString>
        <CharString name="four">
          0 200 -69 69 422 -20 25 -20 hstemhm
          50 452 hintmask 01011000
          481 131 rmoveto
          21 69 -74 0 42 219 -73 -7 -42 -212 -224 0 rlineto
          hintmask 01101000
          77 118 57 110 64 194 rrcurveto
          hintmask 01011000
          -83 5 rlineto
          -58 -191 -54 -116 -80 -137 rrcurveto
          -4 -52 292 0 rlineto
          hintmask 10011000
          -26 -131 73 0 rlineto
          hintmask 01011000
          25 131 rlineto
          endchar
        </CharString>
        <CharString name="four.den">
          -129 53 hstem
          57 326 vstem
          367 -129 rmoveto
          -18 callsubr
          endchar
        </CharString>
        <CharString name="four.inf">
          -69 53 hstem
          69 326 vstem
          379 -69 rmoveto
          -18 callsubr
          endchar
        </CharString>
        <CharString name="four.num">
          506 53 hstem
          169 326 vstem
          479 506 rmoveto
          -18 callsubr
          endchar
        </CharString>
        <CharString name="four.small">
          0 134 -53 53 hstemhm
          92 326 hintmask 01100000
          402 81 rmoveto
          hintmask 10100000
          16 53 -53 0 26 134 -60 -5 -25 -129 -146 0 rlineto
          51 73 37 69 40 120 rrcurveto
          -67 3 rlineto
          hintmask 01100000
          -36 -117 -36 -71 -52 -87 rrcurveto
          -5 -43 204 0 rlineto
          hintmask 10100000
          -16 -81 59 0 rlineto
          hintmask 01100000
          16 81 rlineto
          endchar
        </CharString>
        <CharString name="four.sup">
          412 53 hstem
          151 326 vstem
          461 412 rmoveto
          -18 callsubr
          endchar
        </CharString>
        <CharString name="fourfifths">
          -211 55 171 -21 137 54 94 52 175 53 hstem
          295 62 vstem
          479 506 rmoveto
          -18 callsubr
          -371 -227 rmoveto
          -19 callsubr
          285 -415 rmoveto
          26 callsubr
          endchar
        </CharString>
        <CharString name="fraction">
          -160 914 hstem
          -42 640 vstem
          20 -160 rmoveto
          578 880 -61 34 -579 -880 rlineto
          endchar
        </CharString>
        <CharString name="fraction.afrc">
          279 52 hstem
          61 444 vstem
          61 279 rmoveto
          -19 callsubr
          endchar
        </CharString>
        <CharString name="g">
          -173 73 -73 79 -76 70 124 72 340 65 hstemhm
          56 78 229 59 hintmask 10011110
          211 96 rmoveto
          -44 -33 32 69 115 73 124 100 hvcurveto
          27 0 36 -9 39 -20 -23 -58 -22 -78 -9 -71 rrcurveto
          -44 -67 -52 -37 -48 0 rrcurveto
          211 -178 rmoveto
          -61 callsubr
          hintmask 01011110
          -60 callsubr
          hintmask 00111110
          -59 callsubr
          endchar
        </CharString>
        <CharString name="gbreve">
          -173 73 -73 79 -76 70 124 72 340 65 77 63 hstemhm
          56 78 229 59 hintmask 10011111
          519 750 rmoveto
          7 callsubr
          -353 -626 rmoveto
          11 callsubr
          211 -178 rmoveto
          -61 callsubr
          hintmask 01011111
          -60 callsubr
          hintmask 00111111
          -59 callsubr
          endchar
        </CharString>
        <CharString name="gcommaaccent">
          -173 73 -73 79 -76 70 124 72 340 65 hstemhm
          56 78 152 97 -20 59 hintmask 10011110
          426 766 rmoveto
          13 callsubr
          -215 -670 rmoveto
          11 callsubr
          hintmask 01011101
          211 -178 rmoveto
          25 50 -25 70 0 130 0 13 1 16 1 17 52 101 45 124 0 35 0 15 -32 13 -20 0 -7 0 -9 -9 -10 -16 -34 16 -34 8 -36 0 rrcurveto
          -165 -118 -158 -165 -103 51 -51 68 hvcurveto
          65 0 63 46 49 61 2 -103 22 -74 -25 -24 -20 -21 -84 -19 -194 16 rrcurveto
          hintmask 00111101
          -59 callsubr
          endchar
        </CharString>
        <CharString name="gdotaccent">
          -173 73 -73 79 -76 70 124 72 340 65 83.5 132 hstemhm
          56 78 229 59 hintmask 10011111
          385 585 rmoveto
          8 callsubr
          -92 -488 rmoveto
          11 callsubr
          211 -178 rmoveto
          -61 callsubr
          hintmask 01011111
          -60 callsubr
          hintmask 00111111
          -59 callsubr
          endchar
        </CharString>
        <CharString name="germandbls">
          -7 69 -62 62 573 66 hstemhm
          416 78 -66 79 hintmask 10110000
          205 -7 rmoveto
          214 -12 75 74 0 83 0 63 -52 68 -84 71 rrcurveto
          hintmask 01101000
          97 90 52 75 0 75 0 66 -41 55 -90 0 -119 0 -90 -91 -29 -149 rrcurveto
          -90 -461 78 0 91 466 rlineto
          21 111 50 58 66 0 49 0 25 -31 0 -43 0 -63 -47 -62 -116 -112 rrcurveto
          hintmask 10110000
          107 -88 44 -61 0 -48 0 -50 -54 -27 -148 16 rrcurveto
          endchar
        </CharString>
        <CharString name="grave">
          705 -20 hstem
          147 240 vstem
          387 585 rmoveto
          -71 callsubr
          endchar
        </CharString>
        <CharString name="greater">
          530 -20 hstem
          415 72 vstem
          103 594 rmoveto
          -41 -64 353 -217 -353 -218 45 -62 380 237 0 86 rlineto
          endchar
        </CharString>
        <CharString name="greaterequal">
          15 67 hstem
          32 461 vstem
          406 358 rmoveto
          -1 -7 -322 -154 17 -63 382 184 11 61 -297 214 -42 -57 rlineto
          289 -454 rmoveto
          -399 0 -12 -67 399 0 rlineto
          endchar
        </CharString>
        <CharString name="guillemotleft">
          9 -21 515 -20 21 -20 hstemhm
          45 518 hintmask 10110000
          176 -12 rmoveto
          -27 callsubr
          367 -218 rmoveto
          64 40 -130 216 rlineto
          hintmask 11010000
          217 209 -49 50 -212 -213 -20 -82 rlineto
          endchar
        </CharString>
        <CharString name="guillemotleft.cap">
          54 516 hstem
          58 518 vstem
          189 54 rmoveto
          -27 callsubr
          367 -218 rmoveto
          64 40 -130 216 217 209 -49 50 -212 -213 -20 -82 rlineto
          endchar
        </CharString>
        <CharString name="guillemotright">
          9 -21 23 -21 514 -20 hstemhm
          7 518 hintmask 10110000
          297 -12 rmoveto
          -21 callsubr
          hintmask 01110000
          -190 -47 rmoveto
          -20 callsubr
          endchar
        </CharString>
        <CharString name="guillemotright.cap">
          54 516 hstem
          20 518 vstem
          310 54 rmoveto
          -21 callsubr
          -190 -47 rmoveto
          -20 callsubr
          endchar
        </CharString>
        <CharString name="guilsinglleft">
          3 -21 526 -20 hstem
          118 344 vstem
          311 -18 rmoveto
          22 callsubr
          endchar
        </CharString>
        <CharString name="guilsinglleft.cap">
          48 526 hstem
          131 344 vstem
          324 48 rmoveto
          22 callsubr
          endchar
        </CharString>
        <CharString name="guilsinglright">
          5 -21 hstem
          82 343 vstem
          127 -16 rmoveto
          23 callsubr
          endchar
        </CharString>
        <CharString name="guilsinglright.cap">
          50 526 hstem
          95 343 vstem
          140 50 rmoveto
          23 callsubr
          endchar
        </CharString>
        <CharString name="h">
          -10 68 -37 -21 428 73 202 -20 hstemhm
          337 81 -16 83 hintmask 10111000
          514 36 rmoveto
          -58 callsubr
          hintmask 01110100
          0 57 67 170 0 99 0 52 -23 41 -63 0 -61 0 -69 -37 -70 -75 rrcurveto
          61 314 -78 -6 -135 -697 76 0 63 323 rlineto
          65 70 58 35 43 0 34 0 16 -20 0 -37 rrcurveto
          hintmask 10110100
          0 -80 -65 -164 0 -77 rrcurveto
          0 -66 57 -22 120 74 rrcurveto
          endchar
        </CharString>
        <CharString name="hbar">
          -10 68 -37 -21 426 74 79 52 -52 124 hstemhm
          337 81 -16 83 hintmask 10110100
          514 36 rmoveto
          -58 callsubr
          hintmask 10110010
          0 57 67 169 0 98 0 52 -23 42 -63 0 -61 0 -69 -38 -70 -74 rrcurveto
          37 191 135 0 10 52 -135 0 rlineto
          hintmask 10101010
          14 72 -78 -6 rlineto
          hintmask 01110010
          -13 -66 -71 0 -10 -53 71 0 -112 -578 76 0 63 322 rlineto
          64 69 59 35 43 0 34 0 16 -20 0 -36 rrcurveto
          hintmask 10110010
          0 -80 -65 -163 0 -77 rrcurveto
          0 -66 57 -22 120 74 rrcurveto
          endchar
        </CharString>
        <CharString name="hcoslug">
          -100 75 4 9 -8 10 -10 14 -4 11 -10 10 -9 7 0 12 -11 11 -7 15 -15 26 -25 26 -15 8 -8 15 -12 12 0 14 -9 10 -10 19 -9 11 2 8 -7 32 71.5 22.5 hstemhm
          50 64 10 16 -3 8 5 40 -35 12 -1 12 14 10 -2 10 -10 42 -31 9 -1 7 3 12 -6 11 9 40 -29 13 -9 10 0 12 -4 11 -2 12 -5 16 18 11 10 8 hintmask 001000000000000010000010000010000010000010010000
          500 700 rmoveto
          -450 hlineto
          hintmask 100000000000000000001110000000100000001000000000
          -800 450 vlineto
          -300 396 rmoveto
          0 -17 11 -11 17 -16 9 13 5 12 0 12 rrcurveto
          18 -9 11 -13 -12 -8 -9 -13 vhcurveto
          49 -64 rmoveto
          12 -12 9 -12 9 -11 15 25 3 18 -17 17 -7 -7 -10 -9 -14 -9 rrcurveto
          -39 -93 rmoveto
          12 0 9 3 8 6 -21 27 -21 22 -14 13 -8 -8 -4 -11 0 -11 0 -23 17 -18 22 0 rrcurveto
          91 34 rmoveto
          19 -22 13 -9 15 0 15 0 9 9 8 13 rrcurveto
          5 -1 rlineto
          -1 -44 -27 -27 -32 0 -22 0 -17 8 -25 26 -21 -23 -25 -11 -32 0 -45 0 -36 30 0 40 0 31 21 24 40 13 -16 17 -7 13 0 22 rrcurveto
          32 31 32 51 46 25 -30 -26 vhcurveto
          0 -10 -2 -8 -5 -7 20 0 15 -8 2 -20 12 18 14 10 19 0 rrcurveto
          21 16 -15 -24 -23 -16 -17 -21 hvcurveto
          -14 0 -12 7 -6 12 -12 -7 -12 -10 -11 -15 rrcurveto
          hintmask 000000000000000000001000000000000100000000000000
          -72 -105 rmoveto
          -8 10 -5 -10 vlineto
          hintmask 000000000000000001000000000000000100000000000000
          -15 vlineto
          -3 1 -1 2 vhcurveto
          2 0 1 1 1 4 rrcurveto
          4 -1 rlineto
          -2 -7 -3 -3 -6 0 rrcurveto
          -6 -3 4 6 hvcurveto
          hintmask 000000000000000000100000000000010000000000000000
          15 -5 5 5 7 vlineto
          hintmask 000000000000000010000000100000000000000000000000
          -75 -21 rmoveto
          39 callsubr
          hintmask 000000000000000010000010000000000000000000000000
          22 hmoveto
          40 callsubr
          hintmask 000000000000000100000000000000000000000100000000
          132 -1 rmoveto
          6 -2 4 -3 -5 -1 -5 -5 -6 1 -4 5 vhcurveto
          3 2 4 6 hvcurveto
          hintmask 000000000000000010000010000000000000000000000000
          -120 -9 rmoveto
          4 hlineto
          hintmask 000000000000000000100010000000000000000000000000
          19 -4 5 vlineto
          hintmask 000000000000000000001000000010000000000000000000
          13 -6 hlineto
          2 4 3 3 5 0 rrcurveto
          7 2 -5 -6 hvcurveto
          hintmask 000000000000000010000000000000010000000000000000
          -14 5 -5 vlineto
          hintmask 000000000001000000000000000010000000000000000000
          -17 5 3 hlineto
          hintmask 000000000000000000100000000010000000000000000000
          13 vlineto
          3 -1 3 -3 -3 -3 -3 -5 vhcurveto
          -11 3 -5 vlineto
          hintmask 000000000000000010000010000000000000000000000000
          -16 hlineto
          -71 5 rmoveto
          6 hlineto
          hintmask 000000000000000000010010000000000000000000000000
          31 -6 5 vlineto
          hintmask 000000000000000000001000001000000000000000000000
          38 hlineto
          hintmask 000000000000000000100000001000000000000000000000
          -15 -5 vlineto
          -2 8 -1 2 -6 0 rrcurveto
          -8 hlineto
          hintmask 000000000000000000010001000000000000000000000000
          -14 3 vlineto
          4 0 0 1 1 5 rrcurveto
          5 hlineto
          hintmask 000000000000000010000000100000000000000000000000
          -17 -5 vlineto
          -1 5 0 1 -4 0 rrcurveto
          -3 hlineto
          hintmask 000000000000000010000001000000000000000000000000
          -12 7 -5 vlineto
          hintmask 000000000000000010000010000000000000000000000000
          -23 hlineto
          hintmask 000000000000000001000000000000000100000000000000
          133 10 rmoveto
          5 hlineto
          3 -4 3 -3 3 0 3 0 1 2 0 1 rrcurveto
          hintmask 000000000000000000010000000000000100000000000000
          0 7 -18 -4 0 12 0 4 4 5 7 0 3 0 3 -1 2 -3 rrcurveto
          1 4 5 0 0 -10 -5 0 rlineto
          -3 4 -2 1 -3 0 -2 0 -2 -1 0 -2 rrcurveto
          hintmask 000000000001000000000000000000000000100000000000
          0 -5 18 2 0 -11 0 -5 -3 -4 -7 0 -5 0 -3 2 -2 2 rrcurveto
          -1 -3 -5 0 rlineto
          hintmask 000000000000000000010000000000000000100000000000
          38 38 rmoveto
          -5 5 hlineto
          hintmask 000000000000000000001000000000000000000100000000
          14 hlineto
          hintmask 000000000000000000010000000000000000000100000000
          -20 vlineto
          1 4 4 3 4 0 rrcurveto
          hintmask 000000000010000000000000000000000000000010000000
          7 5 -6 -9 -7 -3 -9 -9 hvcurveto
          -6 0 -3 2 -2 4 rrcurveto
          -3 -6 -4 0 rlineto
          hintmask 100000000000000000001000000000000000000010000000
          39 -6 rmoveto
          3 3 2 4 hvcurveto
          -3 7 -9 18 0 0 rrcurveto
          -3 5 18 -5 -4 hlineto
          7 -15 6 15 -4 0 0 5 13 0 0 -5 -4 0 rlineto
          hintmask 000000000100000000000000000000000000000010000000
          -10 -24 rlineto
          -3 -7 -4 -5 -6 0 rrcurveto
          -6 -3 3 4 3 2 2 3 hvcurveto
          5 0 1 -5 -2 -2 rrcurveto
          hintmask 000000001000000000000000000000000000000000000000
          45 -24 rmoveto
          -6 -4 vlineto
          -2 -4 -2 -3 -3 -3 2 -2 2 -2 1 0 1 0 1 1 1 3 rrcurveto
          3 -1 rlineto
          -1 -5 -2 -4 -6 0 rrcurveto
          hintmask 100000000000000000000000000000000000000001000000
          -4 0 -2 2 -3 3 -3 -3 -4 -2 -6 0 -7 0 -5 4 0 6 0 6 4 3 6 2 -3 3 -2 3 0 4 rrcurveto
          hintmask 000000000000100000000000000000000000000000100000
          5 4 6 9 6 4 -4 -5 vhcurveto
          0 -5 -3 -2 -5 -3 2 -2 4 -5 3 -3 2 2 2 3 1 2 rrcurveto
          -5 6 hlineto
          hintmask 000000000010000000000000000000000010000000000000
          -114 4 rmoveto
          11 4 hlineto
          -3 -2 2 2 2 1 1 0 hvcurveto
          0 -1 1 -2 -2 -2 -2 -6 vhcurveto
          hintmask 100000000000000000000000000000000000000000010000
          132 -13 rmoveto
          hintmask 000010000000000000000000000000000000000000010000
          15 9 8 11 vhcurveto
          hintmask 000010000000000000000000000000000000000000000000
          5 0 4 -2 3 -3 rrcurveto
          4 6 -16 -6 vlineto
          hintmask 000000010000000000000000000000000000000000000000
          -3 9 -2 3 -6 0 rrcurveto
          -6 -4 -5 -12 hvcurveto
          hintmask 010000000000000000000000000000000000000000000000
          -11 4 -6 8 vhcurveto
          hintmask 000001000000000000000000000000000000000000000000
          6 0 3 6 1 6 rrcurveto
          6 hlineto
          hintmask 100000000000000000000000000000000000000000000000
          -1 -10 -6 -7 -11 0 rrcurveto
          -13 -8 7 14 hvcurveto
          hintmask 000000010000000000000000000000000000000000100000
          -29 4 rmoveto
          2 1 2 3 0 3 rrcurveto
          3 -2 2 -3 -2 -2 -1 -3 vhcurveto
          0 -2 2 -3 3 -3 rrcurveto
          hintmask 001000000000000000000000000000000000010000000000
          -68 -11 rmoveto
          41 callsubr
          hintmask 100000000000000000000000000000000000010000000000
          -1 -6 -4 -5 -8 0 rrcurveto
          -10 -6 6 9 hvcurveto
          hintmask 000000000001000000000000000000000000010000000000
          10 7 6 8 vhcurveto
          11 0 4 -7 -1 -10 rrcurveto
          hintmask 001000000000000000000000000001000000000000000000
          -89 hmoveto
          41 callsubr
          hintmask 100000000000000000000000000000001000000000000000
          -1 -6 -4 -5 -8 0 rrcurveto
          hintmask 100000000000000000000000010000000000000000000000
          -10 -6 6 9 hvcurveto
          hintmask 000000000001000000000000010000000000000000000000
          10 7 6 8 vhcurveto
          hintmask 000000000001000000000000000000001000000000000000
          11 0 4 -7 -1 -10 rrcurveto
          hintmask 001000000000000000000010000001000000000000000000
          -63 2 rmoveto
          39 callsubr
          252 hmoveto
          hintmask 001000000000000000000000000000000000000000000000
          9 7 6 9 9 7 -6 -9 vhcurveto
          hintmask 001000000000000000000010000001000000000000000000
          -9 -7 -7 -9 -9 -7 6 10 vhcurveto
          hintmask 000000100000000000000000000001000000010000000000
          -138 2 rmoveto
          10 hlineto
          6 -1 3 -4 vhcurveto
          -3 -2 -2 -7 hvcurveto
          -70 hmoveto
          10 hlineto
          6 -1 3 -4 -3 -2 -2 -7 vhcurveto
          hintmask 001000000000000000000000000100000000000000000000
          -22 -2 rmoveto
          40 callsubr
          hintmask 001000000000000000000000000000000000000000000000
          252 hmoveto
          40 callsubr
          hintmask 100000000000000000000000000000001000000000000000
          -208 -10 rmoveto
          4 hlineto
          hintmask 000000100000000000000000000000001000000000000000
          19 -5 5 5 1 vlineto
          hintmask 000000000000001000000000000000001000000000000000
          10 7 4 6 vhcurveto
          4 0 2 -1 2 -1 rrcurveto
          8 2 rlineto
          hintmask 001000000000000000000000000000000000100000000000
          -39 4 -5 vlineto
          hintmask 100000000000000000000000000000000010000000000000
          -17 5 4 hlineto
          hintmask 000000100000000000000000000000000010000000000000
          19 -11 vlineto
          hintmask 001000000000000000000000000000000010000000000000
          -19 4 -5 vlineto
          hintmask 100000000000000000000000000000001000000000000000
          -17 hlineto
          hintmask 100000000000000000000000000000000001000000000000
          69 5 rmoveto
          4 hlineto
          hintmask 000000100000000000000000000000000001000000000000
          19 -4 5 vlineto
          hintmask 000000000001000000000000000000000000000001000000
          13 -6 hlineto
          2 5 3 2 4 0 rrcurveto
          4 2 -2 -4 -3 -2 -2 -3 -2 -3 1 3 hvcurveto
          1 vlineto
          -1 0 -3 -3 -1 -4 rrcurveto
          hintmask 001000000000000000000000000000000000000001000000
          -12 6 -5 vlineto
          hintmask 100000000000000000000000000000000001000000000000
          -19 hlineto
          hintmask 100000000000000000000010000000000000000000000000
          -183 5 rmoveto
          6 hlineto
          hintmask 000000010000000000000010000000000000000000000000
          31 -6 5 vlineto
          hintmask 000000000000010000000001000000000000000000000000
          21 -5 -5 hlineto
          hintmask 000000010000000000000001000000000000000000000000
          -12 16 12 -5 5 vlineto
          hintmask 000000000000010000000000000100000000000000000000
          21 -5 -6 hlineto
          hintmask 001000000000000000000000000100000000000000000000
          -31 6 -5 vlineto
          hintmask 100000000000000000000001000000000000000000000000
          -21 5 5 hlineto
          hintmask 000100000000000000000001000000000000000000000000
          14 -16 vlineto
          hintmask 001000000000000000000001000000000000000000000000
          -14 5 -5 vlineto
          hintmask 100000000000000000000010000000000000000000000000
          -21 hlineto
          hintmask 001000000000000000000000000000000000000000100000
          234 7 rmoveto
          -2 2 -4 5 -4 4 -2 -2 -1 -2 0 -3 0 -4 3 -3 4 0 rrcurveto
          2 0 2 1 2 2 rrcurveto
          hintmask 100000000000000000000000000000000000000000000000
          111 -2 rmoveto
          -3 -2 -3 -4 -4 -2 3 3 3 2 3 4 vhcurveto
          4 2 -3 -3 hvcurveto
          endchar
        </CharString>
        <CharString name="hungarumlaut">
          559 221 hstem
          131 421 vstem
          165 559 rmoveto
          14 callsubr
          244 -27 rmoveto
          15 callsubr
          endchar
        </CharString>
        <CharString name="hyphen">
          277 72 hstem
          75 400 vstem
          75 277 rmoveto
          400 72 -400 hlineto
          endchar
        </CharString>
        <CharString name="i">
          -10 69 431 -20 102 131 hstem
          172 80 vstem
          370 574 rmoveto
          40 134 -90 -5 -31 -133 rlineto
          184 -526 rmoveto
          -57 callsubr
          endchar
        </CharString>
        <CharString name="iacute">
          -10 69 431 -20 230 -20 hstem
          172 80 vstem
          208 594 rmoveto
          -23 callsubr
          265 -550 rmoveto
          -57 callsubr
          endchar
        </CharString>
        <CharString name="ibreve">
          -10 69 431 -20 96 63 hstem
          172 80 vstem
          497 738 rmoveto
          7 callsubr
          -69 -666 rmoveto
          -57 callsubr
          endchar
        </CharString>
        <CharString name="icircumflex">
          -10 69 431 -20 hstem
          172 80 vstem
          456 559 rmoveto
          -16 callsubr
          118 -630 rmoveto
          -57 callsubr
          endchar
        </CharString>
        <CharString name="idieresis">
          -10 69 431 -20 101.5 132.5 -130.5 131.5 hstemhm
          172 80 hintmask 11011000
          470 574 rmoveto
          -29 callsubr
          hintmask 11101000
          -134 -1 rmoveto
          -28 callsubr
          299 -527 rmoveto
          -57 callsubr
          endchar
        </CharString>
        <CharString name="igrave">
          -10 69 431 -20 236 -20 hstem
          172 80 vstem
          449 586 rmoveto
          -71 callsubr
          44 -509 rmoveto
          -57 callsubr
          endchar
        </CharString>
        <CharString name="imacron">
          -10 69 431 -20 138 66 hstem
          172 80 vstem
          515 674 rmoveto
          -26 callsubr
          -29 -564 rmoveto
          -57 callsubr
          endchar
        </CharString>
        <CharString name="iogonek">
          -208 56 142 69 431 -20 102 131 hstemhm
          160 73 -62 81 hintmask 11110100
          370 574 rmoveto
          40 134 -90 -5 -31 -133 rlineto
          hintmask 11111000
          99 -737 rmoveto
          -10 37 rlineto
          -104 -39 -41 17 0 33 0 41 47 47 193 75 rrcurveto
          -9 43 rlineto
          hintmask 11110100
          -202 -51 -26 19 23 90 rrcurveto
          90 344 -69 1 -206 -51 5 -42 177 24 -76 -289 rlineto
          -25 -92 24 -53 92 3 rrcurveto
          hintmask 11111000
          -81 -45 -30 -44 0 -42 rrcurveto
          0 -61 79 -41 149 76 rrcurveto
          endchar
        </CharString>
        <CharString name="j">
          -173 76 588 -20 101 133 hstem
          315 39.35 vstem
          430 574 rmoveto
          41 135 -90 -4 -33 -135 rlineto
          -346 -743 rmoveto
          195 1 59 12 37 37 67 66 -64 161 113 386 rrcurveto
          -71 1 -219 -45 7 -41 189 18 rlineto
          -83 -323 44 -141 -38 -38 -19 -19 -25 -3 -187 4 rrcurveto
          endchar
        </CharString>
        <CharString name="k">
          15 -21 27 -21 27 -21 423 72 202 -20 hstemhm
          432 84 hintmask 10011100
          403 -6 rmoveto
          hintmask 00111100
          -56 callsubr
          hintmask 01011100
          -55 callsubr
          endchar
        </CharString>
        <CharString name="kcommaaccent">
          15 -21 27 -21 27 -21 423 72 202 -20 hstemhm
          198 98 136 84 hintmask 10011110
          403 -6 rmoveto
          hintmask 00111110
          -56 callsubr
          hintmask 01011110
          -55 callsubr
          -67 -463 rmoveto
          12 callsubr
          endchar
        </CharString>
        <CharString name="l">
          -8 65 572 77 hstem
          125 79 255 74 vstem
          463 65 rmoveto
          -54 callsubr
          -51 564 rmoveto
          -53 callsubr
          endchar
        </CharString>
        <CharString name="l.ultra">
          -7 66 570 77 hstem
          117 79 255 73 vstem
          454 65 rmoveto
          -15 40 rlineto
          -145 -70 -79 5 -16 108 228 174 97 160 0 120 rrcurveto
          66 -35 38 -59 -140 -173 -257 -271 vhcurveto
          0 -199 129 -39 208 125 rrcurveto
          -50 564 rmoveto
          27 20 -20 -40 hvcurveto
          0 -84 -70 -131 -185 -154 rrcurveto
          222 120 207 88 vhcurveto
          endchar
        </CharString>
        <CharString name="lacute">
          -8 65 572 77 hstem
          125 79 255 74 vstem
          373 806 rmoveto
          -23 callsubr
          90 -741 rmoveto
          -54 callsubr
          -51 564 rmoveto
          -53 callsubr
          endchar
        </CharString>
        <CharString name="lcaron">
          -8 65 572 77 hstem
          125 79 255 74 92 90 vstem
          625 798 rmoveto
          10 callsubr
          -252 -738 rmoveto
          -54 callsubr
          -51 564 rmoveto
          -53 callsubr
          endchar
        </CharString>
        <CharString name="lcommaaccent">
          -8 65 572 77 hstem
          125 79 8 98 149 74 vstem
          463 65 rmoveto
          -54 callsubr
          -51 564 rmoveto
          -53 callsubr
          -242 -896 rmoveto
          12 callsubr
          endchar
        </CharString>
        <CharString name="ldot">
          -8 65 206 108 258 77 hstem
          125 79 255 74 vstem
          463 65 rmoveto
          -54 callsubr
          -51 564 rmoveto
          -53 callsubr
          174 -366 rmoveto
          24 108 -88 0 -24 -108 rlineto
          endchar
        </CharString>
        <CharString name="less">
          530 -20 hstem
          62 72 vstem
          446 594 rmoveto
          -384 -237 0 -87 380 -237 45 61 -353 219 353 217 rlineto
          endchar
        </CharString>
        <CharString name="lessequal">
          15 67 hstem
          32 480 vstem
          189 356 rmoveto
          323 175 -23 62 -377 -209 -14 -64 312 -184 38 59 -261 153 rlineto
          256 -266 rmoveto
          -399 0 -12 -67 399 0 rlineto
          endchar
        </CharString>
        <CharString name="lig.1">
          -11 68 296 67 216 63 hstemhm
          -454.66699 75.16699 -42.16699 75.16699 215.41699 70.58301 64.16699 75.16602 -42.16602 75.16602 215.41699 70.58301 hintmask 1110110110000000
          225.5 420 rmoveto
          -64.16699 -49.5 53 61 59 32.08398 43 65.08301 hvcurveto
          45.83301 0 30.25 -19 32.08398 -39 rrcurveto
          45.83301 46 rlineto
          -50.41699 61 -47.66602 14 -55 0 -107.25 0 -66 -77 0 -88 0 -43 12.83301 -42 35.75 -29 rrcurveto
          -318.08301 hlineto
          -64.16699 -49.5 53 61 59 32.08301 43 65.08398 hvcurveto
          45.83301 0 30.25 -19 32.08301 -39 rrcurveto
          45.83398 46 rlineto
          -50.41699 61 -47.66699 14 -55 0 -107.25 0 -66 -77 0 -88 0 -62 27.5 -61 82.5 -21 rrcurveto
          -3 vlineto
          hintmask 1111011010000000
          -91.66602 -21 -51.33398 -68 0 -103 0 -103 61.41699 -103 143 0 105.41699 0 56.83301 54 27.5 38 rrcurveto
          272 132 vlineto
          -44 -34 -23.83301 -54 0 -70 0 -103 61.41602 -103 143 0 105.41699 0 56.83301 54 27.5 38 rrcurveto
          272 82.5 67 vlineto
          -611.41602 -311 rmoveto
          -24.75 -34 -42.16699 -18 -50.41699 0 rrcurveto
          -92.58301 -38.5 68 73 71 40.33301 84 94.41699 hvcurveto
          113.66699 hlineto
          458.33301 -244 rmoveto
          -24.75 -34 -42.16699 -18 -50.41602 0 rrcurveto
          -92.58398 -38.5 68 73 71 40.33398 84 94.41602 hvcurveto
          113.66699 hlineto
          endchar
        </CharString>
        <CharString name="lig.10">
          34.83301 -103 rmoveto
          46 callsubr
          -253 675 rmoveto
          47 callsubr
          endchar
        </CharString>
        <CharString name="lig.100">
          26 -21 626 -20 hstemhm
          -314.41699 81.58398 -71.5 61.41602 hintmask 11100000
          -314.41699 631 rmoveto
          hintmask 11010000
          10.08398 -261 -223.66699 89 -27.5 -85 231.91699 -68 -139.33398 -197 68.75 -52 121.91699 210 135.66699 -216 66.91602 56 -152.16602 199 227.33301 69 -22.91699 84 -225.5 -88 rlineto
          hintmask 11100000
          10.08398 260 rlineto
          -305.25 -12 rmoveto
          96 callsubr
          527.08301 89 rmoveto
          97 callsubr
          endchar
        </CharString>
        <CharString name="lig.101">
          -292.41699 69.66699 296.08301 69.66699 vstem
          -292.41699 712 rmoveto
          -528.91602 -356 0 -86 528.91602 -359 69.66699 0 0 801 rlineto
          296.08301 hmoveto
          98 callsubr
          -435.41699 -711 rmoveto
          -462.91602 312 462.91602 310 rlineto
          endchar
        </CharString>
        <CharString name="lig.102">
          5 -21 657 -20 hstem
          -309.83301 68.75 vstem
          -241.08301 724 rmoveto
          -68.75 -826 68.75 hlineto
          -174.16699 743 rmoveto
          -420.75 -284 0 -87 420.75 -286 0 90 -354.75 239 354.75 239 rlineto
          279.58301 89 rmoveto
          0 -89 356.58398 -239 -356.58398 -240 0 -90 422.58398 287 0 86 rlineto
          endchar
        </CharString>
        <CharString name="lig.103">
          -57 77 616 66 hstem
          -462.91699 81.58398 86.16602 62.33398 115.5 83.41602 vstem
          -11 619 rmoveto
          -62.33301 44 -87.08398 31 -72.41602 8 rrcurveto
          146 -62.33398 -145 vlineto
          -112.75 -12 -55 -83 0 -80 0 -93 60.5 -59 107.25 -39 rrcurveto
          -317 vlineto
          -60.5 -4 -47.66602 8 -107.25 70 rrcurveto
          -323.58398 219 272.25 181 13.75 100 -352 -237 0 -87 389.58398 -265 rlineto
          90.75 -53 44.91602 -12 79.75 3 rrcurveto
          -96 62.33398 98 vlineto
          113.66602 18 85.25 88 0 126 0 124 -107.25 67 -91.66602 33 rrcurveto
          235 vlineto
          45.83301 -6 66 -23 110 -77 rrcurveto
          323.58301 -217 -253 -168 -20.16602 -108 339.16602 233 0 86 rlineto
          -673.75 67 rmoveto
          -66.91602 29 -19.25 30 0 47 0 57 36.66602 39 49.5 9 rrcurveto
          177.83398 -457 rmoveto
          57 callsubr
          endchar
        </CharString>
        <CharString name="lig.104">
          27 -21 174 72 118 72 hstem
          433.58301 370 rmoveto
          72 -1275.08301 vlineto
          27.5 18 15.58301 17 13.75 17 rrcurveto
          57.75 68 -57.75 54 -248.41602 -305 248.41602 -305 57.75 54 -57.75 69 rlineto
          -13.75 17 -15.58301 16 -27.5 18 rrcurveto
          1275.08301 72 -1321.83301 hlineto
          -48.58301 59 48.58301 59 rlineto
          endchar
        </CharString>
        <CharString name="lig.105">
          27 -21 174 72 118 72 hstem
          234.66699 616 rmoveto
          -57.75 -54 57.75 -68 rlineto
          13.75 -17 15.58301 -17 27.5 -18 rrcurveto
          -1133 hlineto
          27.5 18 15.58301 17 13.75 17 rrcurveto
          57.75 68 -57.75 54 -248.41602 -305 248.41602 -305 57.75 54 -57.75 69 rlineto
          -13.75 17 -15.58301 16 -27.5 18 rrcurveto
          1133 hlineto
          -27.5 -18 -15.58301 -16 -13.75 -17 rrcurveto
          -57.75 -69 57.75 -54 248.41602 305 rlineto
          -1371.33301 -59 rmoveto
          -48.58301 59 48.58301 59 1226.5 0 48.58301 -59 -48.58301 -59 rlineto
          endchar
        </CharString>
        <CharString name="lig.106">
          27 -21 174 72 118 72 hstem
          -842.41699 252 rmoveto
          -48.58301 59 48.58301 59 1101.83398 0 160.41602 192 -57.75 54 -141.16602 -174 -1016.58398 0 rlineto
          27.5 18 15.58398 17 13.75 17 rrcurveto
          57.75 68 -57.75 54 -248.41699 -305 248.41699 -305 57.75 54 -57.75 69 rlineto
          -13.75 17 -15.58398 16 -27.5 18 rrcurveto
          1016.58398 0 141.16602 -174 57.75 54 -160.41602 192 rlineto
          endchar
        </CharString>
        <CharString name="lig.107">
          276 74 268 -20 hstem
          188.83301 618 rmoveto
          -57.75 -54 131.08398 -156 rlineto
          25.66602 -31 6.41699 -9 26.58301 -18 rrcurveto
          -1191.66602 hlineto
          26.58301 18 6.41699 9 25.66602 31 rrcurveto
          131.08398 156 -57.75 54 -248.41699 -305 248.41699 -305 57.75 54 -131.08398 156 rlineto
          -18.33301 22 -18.33301 20 -22 16 rrcurveto
          1191.66602 hlineto
          -22 -16 -18.33301 -20 -18.33301 -22 rrcurveto
          -131.08398 -156 57.75 -54 248.41699 305 rlineto
          endchar
        </CharString>
        <CharString name="lig.108">
          276 74 268 -20 hstem
          -738.83301 618 rmoveto
          -248.41699 -305 248.41699 -305 57.75 54 -131.08398 156 rlineto
          -18.33301 22 -18.33301 20 -22 16 rrcurveto
          1306.25 74 -1306.25 hlineto
          26.58301 18 6.41699 9 25.66602 31 rrcurveto
          131.08398 156 rlineto
          endchar
        </CharString>
        <CharString name="lig.109">
          276 74 268 -20 hstem
          418.91699 564 rmoveto
          -57.75 54 -218.16699 -268 -1028.5 0 rlineto
          25.66699 18 7.33301 9 25.66699 31 rrcurveto
          137.5 163 -50.41699 47 -249.33301 -305 249.33301 -305 50.41699 47 -137.5 163 rlineto
          -18.33398 22 -18.33301 20 -22 16 rrcurveto
          1028.5 0 218.16699 -268 57.75 54 -209.91699 251 rlineto
          endchar
        </CharString>
        <CharString name="lig.11">
          -199.83301 68.75 261.25 68.75 vstem
          -131.08301 807 rmoveto
          48 callsubr
          330 909 rmoveto
          48 callsubr
          endchar
        </CharString>
        <CharString name="lig.110">
          27 -21 174 72 118 72 hstem
          -681.08301 562 rmoveto
          94 callsubr
          1324.58301 59 rmoveto
          72 -997.33301 vlineto
          27.5 18 15.58301 17 13.75 17 rrcurveto
          57.75 68 -57.75 54 -248.41602 -305 248.41602 -305 57.75 54 -57.75 69 rlineto
          -13.75 17 -15.58301 16 -27.5 18 rrcurveto
          997.33301 72 -1044.08301 hlineto
          -48.58301 59 48.58301 59 rlineto
          endchar
        </CharString>
        <CharString name="lig.111">
          276 74 268 -20 hstem
          -738.83301 618 rmoveto
          92 callsubr
          220.91602 54 rmoveto
          -249.33301 -305 249.33301 -305 56.83398 54 -131.08398 156 rlineto
          -17.41602 22 -18.33398 20 -22.91602 16 rrcurveto
          1028.5 74 -1027.58398 hlineto
          25.66699 18 7.33301 9 24.75 31 rrcurveto
          131.08398 156 rlineto
          endchar
        </CharString>
        <CharString name="lig.112">
          -523.41699 582 rmoveto
          70 callsubr
          428.08398 65 rmoveto
          69 callsubr
          428.08301 65 rmoveto
          69 callsubr
          endchar
        </CharString>
        <CharString name="lig.113">
          26 -21 271 70 273 -20 hstem
          -311.66699 71.5 vstem
          -538.08301 619 rmoveto
          96 callsubr
          527.08301 89 rmoveto
          97 callsubr
          -618.75 239 rmoveto
          -71.5 -249 -223.66602 -70 223.66602 -249 71.5 249 225.5 70 -225.5 hlineto
          endchar
        </CharString>
        <CharString name="lig.114">
          -93.5 675 rmoveto
          44.91699 102 -61.41699 32 -343.75 -772 -407.91699 276 323.58398 217 -37.58398 64 -352 -237 0 -87 443.66699 -301 -38.5 -87 62.33301 -30 336.41699 755 436.33301 -294 -323.58301 -218 41.25 -62 rlineto
          348.33301 237 0 86 rlineto
          endchar
        </CharString>
        <CharString name="lig.115">
          21 -21 170 64 222 66 hstem
          501.41699 456 rmoveto
          66 -73.33398 vlineto
          21.08398 167 -65.08398 0 -21.08301 -167 -133.83301 0 21.08301 167 -65.08301 0 -21.08398 -167 -286 0 21.08398 167 -65.08398 0 -21.08301 -167 -133.83301 0 21.08301 167 -65.08301 0 -21.08398 -167 rlineto
          -286 0 21.08398 167 -65.08398 0 -21.08301 -167 -133.83301 0 21.08301 167 -65.08301 0 -21.08398 -167 -81.58301 0 0 -66 74.25 0 -28.41699 -222 -79.75 0 0 -64 72.41699 0 rlineto
          -20.16699 -170 65.08398 0 21.08301 170 132.91699 0 -20.16699 -170 65.08301 0 19.25 170 286.91699 0 -20.16699 -170 65.08398 0 21.08301 170 132.91699 0 -20.16699 -170 65.08301 0 19.25 170 rlineto
          286.91699 0 -20.16699 -170 65.08398 0 21.08301 170 132.91699 0 -20.16699 -170 65.08301 0 19.25 170 83.41699 0 0 64 -74.25 0 26.58301 222 rlineto
          -1192.58301 -222 rmoveto
          50 callsubr
          322.66602 -222 rmoveto
          75 callsubr
          170.5 -222 rmoveto
          50 callsubr
          322.66602 -222 rmoveto
          75 callsubr
          170.5 -222 rmoveto
          50 callsubr
          endchar
        </CharString>
        <CharString name="lig.116">
          -182 74 129 -21 170 64 222 66 hstem
          114.58301 80.66699 vstem
          429.91699 -139 rmoveto
          -134.75 120 -106.33398 148 6.41699 221 6.41699 210 56.83301 106 132 128 rrcurveto
          -39.41699 46 rlineto
          -149.41602 -133 -89.83398 -129 2.75 -228 1.83398 -209 83.41602 -140 111.83398 -109 rrcurveto
          -1003.75 0 31.16602 278 83.41699 0 0 64 -74.25 0 26.58301 222 81.58398 0 0 66 -73.33398 0 21.08398 167 -65.08398 0 -21.08301 -167 -133.83301 0 21.08301 167 -65.08301 0 rlineto
          -21.08398 -167 -81.58301 0 0 -66 74.25 0 -28.41699 -222 -79.75 0 0 -64 72.41699 0 -20.16699 -170 65.08398 0 21.08301 170 132.91699 0 -41.25 -352 1160.5 1 0 1 rlineto
          0.91602 -1 rlineto
          -1245.75 415 rmoveto
          76 callsubr
          endchar
        </CharString>
        <CharString name="lig.117">
          180 72 -65 243 -60 72 hstemhm
          -936.83301 223.66602 188.83398 223.66602 hintmask 00111000
          452.83301 442 rmoveto
          -550 -72 550 hlineto
          hintmask 01011000
          -1277.83301 -183 rmoveto
          64.16699 47.66602 51 70 70 -47.66602 52 -64.16699 -64.16699 -47.66602 -51 -70 hvcurveto
          -70 47.66602 -52 64.16699 vhcurveto
          412.5 hmoveto
          64.16699 47.66602 51 70 70 -47.66602 52 -64.16699 -64.16699 -47.66602 -51 -70 -70 47.66602 -52 64.16699 hvcurveto
          hintmask 10011000
          865.33301 65 rmoveto
          -550 -72 550 hlineto
          endchar
        </CharString>
        <CharString name="lig.118">
          -11 176 hstem
          -732.41699 161.33398 168.66602 161.33398 vstem
          249.33301 594 rmoveto
          95 callsubr
          -1019.33398 -453 rmoveto
          99 callsubr
          330 hmoveto
          99 callsubr
          endchar
        </CharString>
        <CharString name="lig.119">
          -11 176 hstem
          -722.33301 161.33301 205.33301 161.33398 205.33301 161.33301 vstem
          cntrmask 01110000
          -722.33301 77 rmoveto
          78 callsubr
          366.66602 hmoveto
          99 callsubr
          366.66699 hmoveto
          -50 34.83301 -38 45.83398 46.75 33.91602 38 50 49 -33.91602 39 -46.75 -45.83398 -34.83301 -39 -49 vhcurveto
          endchar
        </CharString>
        <CharString name="lig.12">
          -138 66 388 68 388 66 hstem
          -267.66699 68.75 417.08398 71.5 vstem
          cntrmask 11100000
          -267.66699 838 rmoveto
          -976 68.75 976 vlineto
          320.83398 hmoveto
          -253 -66 253 hlineto
          66.91602 29.33398 -16 -61 hvcurveto
          -211 vlineto
          0 -84 22.91602 -37 62.33398 -13 -64.16699 -13 -21.08301 -33 0 -88 rrcurveto
          -208 vlineto
          -63 -28.41699 -17 -67.83301 vhcurveto
          -253 -66 253 hlineto
          102.66602 65.08398 33 123 hvcurveto
          192 vlineto
          69 15.58301 37 122.83301 vhcurveto
          68 vlineto
          -122.83301 -15.58301 36 68 hvcurveto
          -0.91699 199 rlineto
          -0.91699 124 -63.25 27 -102.66602 0 rrcurveto
          endchar
        </CharString>
        <CharString name="lig.120">
          276 70 hstem
          -770 71.5 386.83301 71.5 386.83398 71.5 vstem
          -240.16699 276 rmoveto
          386.83398 -199 71.5 199 179.66602 70 -179.66602 199 -71.5 -199 -386.83398 199 -71.5 -199 -386.83301 hlineto
          199 -71.5 -199 -177.83301 -70 177.83301 -199 71.5 199 386.83301 -199 71.5 vlineto
          endchar
        </CharString>
        <CharString name="lig.121">
          180 72 118 72 hstem
          -943.25 -103 rmoveto
          83 callsubr
          862.58301 515 rmoveto
          84 callsubr
          595.83301 72 rmoveto
          -528 -72 528 hlineto
          -595.83301 -118 rmoveto
          85 callsubr
          595.83301 72 rmoveto
          -528 -72 528 hlineto
          endchar
        </CharString>
        <CharString name="lig.122">
          -897.41699 -103 rmoveto
          46 callsubr
          520.66699 -30 rmoveto
          390.5 880 -61.41699 32 -391.41699 -882 rlineto
          520.66699 -30 rmoveto
          83 callsubr
          endchar
        </CharString>
        <CharString name="lig.123">
          -182 74 hstem
          -309.83301 68.75 vstem
          -241.08301 -108 rmoveto
          832 -68.75 -832 -606.83398 -74 1283.33398 74 vlineto
          endchar
        </CharString>
        <CharString name="lig.124">
          -11 134 hstemhm
          -841.5 122.83301 -105.41602 86.16602 -77 68.75 408.83398 122.83301 -105.41699 86.16699 -77 68.75 410.66699 122.83301 hintmask 10100001
          -737.91699 689 rmoveto
          -86.16602 0 rlineto
          hintmask 10010001
          9.16602 -462 68.75 0 rlineto
          hintmask 10000101
          512.41699 462 rmoveto
          59 callsubr
          hintmask 10000011
          60 callsubr
          -538.08301 -104 rmoveto
          hintmask 11000001
          80 callsubr
          504.16602 hmoveto
          hintmask 10001001
          61 callsubr
          505.08398 hmoveto
          -34.83398 -25.66602 -30 -37 -38 25.66602 -29 34.83398 35.75 26.58301 29 38 37 -26.58301 30 -35.75 hvcurveto
          endchar
        </CharString>
        <CharString name="lig.125">
          21 -21 hstem
          -1010.16699 78.83398 1316.33301 75.16699 vstem
          385 527 rmoveto
          -61.41699 -475 -72.41602 408 -90.75 0 -87.08398 -408 -64.16602 408 -92.58398 0 -71.5 -408 -69.66602 408 -91.66699 0 -75.16699 -408 -71.5 408 -92.58301 0 -75.16699 -408 -71.5 408 -90.75 0 rlineto
          -77 -408 -61.41602 475 -78.83398 0 88 -527 106.33398 0 66.91602 386 61.41699 -386 113.66699 0 63.25 386 62.33301 -386 110 0 66 386 60.5 -386 113.66699 0 59.58301 386 rlineto
          55.91699 -386 110.91602 0 76.08398 386 62.33301 -386 109.08301 0 84.33398 527 rlineto
          endchar
        </CharString>
        <CharString name="lig.126">
          -1198.08301 69.66602 352 69.66699 333.66699 69.66602 vstem
          -1128.41699 712 rmoveto
          -69.66602 -801 69.66602 hlineto
          421.66699 801 rmoveto
          86 callsubr
          403.33301 801 rmoveto
          -69.66602 -801 69.66602 hlineto
          528.91699 359 0 86 rlineto
          -528.91699 -355 rmoveto
          49 callsubr
          endchar
        </CharString>
        <CharString name="lig.127">
          -796.58301 69.66602 333.66699 69.66699 352 69.66602 vstem
          -796.58301 712 rmoveto
          -528.91699 -356 0 -86 528.91699 -359 69.66602 0 0 801 rlineto
          333.66699 hmoveto
          98 callsubr
          352 hmoveto
          -801 69.66602 801 vlineto
          -894.66602 -711 rmoveto
          66 callsubr
          endchar
        </CharString>
        <CharString name="lig.128">
          -11 134 154 72 269 -20 hstemhm
          -1162.33301 122.83301 -105.41699 86.16699 -77 68.75 hintmask 11101000
          -1058.75 689 rmoveto
          59 callsubr
          hintmask 11100100
          60 callsubr
          -313.5 391 rmoveto
          -248.41699 -305 248.41699 -305 57.75 54 -131.08301 156 rlineto
          -18.33398 22 -18.33301 20 -22 16 rrcurveto
          276.83301 74 -276.83301 hlineto
          26.58301 18 6.41699 9 25.66699 31 rrcurveto
          131.08301 156 rlineto
          365.75 -287 rmoveto
          1392.41699 72 -1392.41699 hlineto
          -143.91699 -226 rmoveto
          hintmask 11110000
          61 callsubr
          endchar
        </CharString>
        <CharString name="lig.129">
          21 -21 170 64 222 66 hstem
          501.41699 456 rmoveto
          66 -73.33398 vlineto
          21.08398 167 -65.08398 0 -21.08301 -167 -133.83301 0 21.08301 167 -65.08301 0 -21.08398 -167 -286 0 21.08398 167 -65.08398 0 -21.08301 -167 -133.83301 0 21.08301 167 -65.08301 0 -21.08398 -167 rlineto
          -286 0 21.08398 167 -65.08398 0 -21.08301 -167 -133.83301 0 21.08301 167 -65.08301 0 -21.08398 -167 -286 0 21.08398 167 -65.08398 0 -21.08301 -167 -133.83301 0 21.08301 167 -65.08301 0 rlineto
          -21.08398 -167 -81.58301 0 0 -66 74.25 0 -28.41699 -222 -79.75 0 0 -64 72.41699 0 -20.16699 -170 65.08398 0 21.08301 170 132.91699 0 -20.16699 -170 65.08301 0 19.25 170 rlineto
          286.91699 0 -20.16699 -170 65.08398 0 21.08301 170 132.91699 0 -20.16699 -170 65.08301 0 19.25 170 286.91699 0 -20.16699 -170 65.08398 0 21.08301 170 132.91699 0 -20.16699 -170 65.08301 0 rlineto
          19.25 170 286.91699 0 -20.16699 -170 65.08398 0 21.08301 170 132.91699 0 -20.16699 -170 65.08301 0 19.25 170 83.41699 0 0 64 -74.25 0 26.58301 222 rlineto
          -1742.58301 -222 rmoveto
          50 callsubr
          322.66602 -222 rmoveto
          75 callsubr
          170.5 -222 rmoveto
          50 callsubr
          322.66602 -222 rmoveto
          75 callsubr
          170.5 -222 rmoveto
          50 callsubr
          322.66602 -222 rmoveto
          75 callsubr
          170.5 -222 rmoveto
          50 callsubr
          endchar
        </CharString>
        <CharString name="lig.13">
          -115 71 787 72 hstem
          -267.66699 68.75 415.25 73.33398 vstem
          -267.66699 815 rmoveto
          -930 68.75 930 vlineto
          488.58398 -930 rmoveto
          930 -419.83398 -72 346.5 -787 -346.5 -71 vlineto
          endchar
        </CharString>
        <CharString name="lig.130">
          27 -21 174 72 118 72 hstem
          234.66699 616 rmoveto
          -57.75 -54 57.75 -68 rlineto
          13.75 -17 15.58301 -17 27.5 -18 rrcurveto
          -1683 hlineto
          27.5 18 15.58301 17 13.75 17 rrcurveto
          57.75 68 -57.75 54 -248.41602 -305 248.41602 -305 57.75 54 -57.75 69 rlineto
          -13.75 17 -15.58301 16 -27.5 18 rrcurveto
          1683 hlineto
          -27.5 -18 -15.58301 -16 -13.75 -17 rrcurveto
          -57.75 -69 57.75 -54 248.41602 305 rlineto
          -1921.33301 -59 rmoveto
          -48.58301 59 48.58301 59 1776.5 0 48.58301 -59 -48.58301 -59 rlineto
          endchar
        </CharString>
        <CharString name="lig.14">
          180 72 118 72 hstem
          -309.83301 68.75 vstem
          361.16699 370 rmoveto
          72 -602.25 282 -68.75 -826 68.75 282 602.25 72 -602.25 118 vlineto
          endchar
        </CharString>
        <CharString name="lig.15">
          -281.41699 69.66699 vstem
          -211.75 712 rmoveto
          -69.66699 -801 69.66699 hlineto
          528.91699 359 0 86 rlineto
          -528.91699 -355 rmoveto
          49 callsubr
          endchar
        </CharString>
        <CharString name="lig.16">
          277 72 hstem
          -309.83301 68.75 vstem
          360.25 349 rmoveto
          -601.33301 375 -68.75 -826 68.75 379 601.33301 hlineto
          endchar
        </CharString>
        <CharString name="lig.17">
          -138 66 388 68 388 66 hstem
          -289.66699 71.5 417.08398 68.75 vstem
          cntrmask 11100000
          -121.91699 838 rmoveto
          -102.66602 0 -63.25 -27 -0.91699 -124 rrcurveto
          -0.91699 -199 rlineto
          -68 -15.58301 -36 -122.83301 vhcurveto
          -68 vlineto
          122.83301 15.58301 -37 -69 hvcurveto
          -192 vlineto
          -123 65.08398 -33 102.66602 vhcurveto
          253 66 -253 hlineto
          -67.83301 -28.41699 17 63 hvcurveto
          208 vlineto
          0 88 -21.08301 33 -64.16699 13 62.33398 13 22.91602 37 0 84 rrcurveto
          211 vlineto
          61 29.33398 16 66.91602 vhcurveto
          253 66 hlineto
          136.58398 hmoveto
          -68.75 -976 68.75 hlineto
          endchar
        </CharString>
        <CharString name="lig.18">
          -115 71 787 72 hstem
          -289.66699 73.33398 415.25 68.75 vstem
          -289.66699 -115 rmoveto
          419.83398 71 -346.5 787 346.5 72 -419.83398 hlineto
          557.33398 hmoveto
          -68.75 -930 68.75 hlineto
          endchar
        </CharString>
        <CharString name="lig.19">
          -115 71 65 -21 170 64 222 66 221 72 hstemhm
          -398.75 230.08301 -73.33301 73.33301 hintmask 11111010
          446.41699 456 rmoveto
          66 -73.33398 vlineto
          21.08398 167 -65.08398 0 -21.08301 -167 -133.83301 0 21.08301 167 -65.08301 0 -21.08398 -167 -277.75 0 rlineto
          hintmask 11111100
          293 -230.08301 -72 vlineto
          hintmask 11111010
          156.75 -787 hlineto
          hintmask 11111100
          -156.75 -71 230.08301 hlineto
          hintmask 11111010
          285 234.66699 vlineto
          -20.16699 -170 65.08398 0 21.08301 170 132.91699 0 -20.16699 -170 65.08301 0 19.25 170 83.41699 0 0 64 -74.25 0 26.58301 222 rlineto
          -291.5 -222 rmoveto
          -242 222 270.41699 hlineto
          170.5 -222 rmoveto
          50 callsubr
          endchar
        </CharString>
        <CharString name="lig.2">
          180 72 118 72 hstem
          -18.33301 442 rmoveto
          -176.91699 318 -67.83301 0 -173.25 -313 82.5 0 123.75 237 165 -314 472.08301 0 0 72 rlineto
          -472.08301 -262 rmoveto
          472.08301 72 -472.08301 hlineto
          endchar
        </CharString>
        <CharString name="lig.20">
          -11 162 198 162 hstem
          -257.58301 147.58301 219.08301 147.58398 vstem
          -257.58301 431 rmoveto
          -45 31.16602 -37 42.16699 43.08301 31.16699 37 45 44 -31.16699 36 -43.08301 -42.16699 -31.16602 -36 -44 vhcurveto
          366.66602 hmoveto
          51 callsubr
          -366.66602 -361 rmoveto
          -46 31.16602 -35 42.16699 43.08301 31.16699 35 46 44 -31.16699 37 -43.08301 -42.16699 -31.16602 -37 -44 vhcurveto
          366.66602 hmoveto
          52 callsubr
          endchar
        </CharString>
        <CharString name="lig.21">
          107 162 -89 72 100 162 -144 72 hstemhm
          -352 148.5 hintmask 00101000
          -352 434 rmoveto
          -45 32.08301 -37 41.25 43.08398 32.08301 37 45 45 -32.08301 35 -43.08398 vhcurveto
          -41.25 -32.08301 -35 -45 hvcurveto
          hintmask 00011000
          804.83301 8 rmoveto
          53 callsubr
          -804.83301 -182 rmoveto
          hintmask 10001000
          -46 32.08301 -35 41.25 43.08398 32.08301 35 46 44 -32.08301 37 -43.08398 -41.25 -32.08301 -37 -44 vhcurveto
          hintmask 01001000
          804.83301 64 rmoveto
          53 callsubr
          endchar
        </CharString>
        <CharString name="lig.22">
          47 162 198 162 hstem
          -371.25 147.58301 vstem
          10.08301 598 rmoveto
          0 -81 363 -204 -363 -204 0 -81 435.41699 242 0 85 rlineto
          -816.75 134 rmoveto
          54 callsubr
          -361 vmoveto
          55 callsubr
          endchar
        </CharString>
        <CharString name="lig.23">
          -57 77 616 66 hstem
          -371.25 81.58301 86.16699 62.33301 115.5 83.41699 vstem
          80.66699 619 rmoveto
          -62.33398 44 -87.08301 31 -72.41699 8 rrcurveto
          146 -62.33301 -145 vlineto
          -112.75 -12 -55 -83 0 -80 0 -93 60.5 -59 107.25 -39 rrcurveto
          -317 vlineto
          -60.5 -4 -47.66699 8 -107.25 70 rrcurveto
          -89 vlineto
          90.75 -53 44.91699 -12 79.75 3 rrcurveto
          -96 62.33301 98 vlineto
          113.66699 18 85.25 88 0 126 0 124 -107.25 67 -91.66699 33 rrcurveto
          235 vlineto
          45.83398 -6 66 -23 110 -77 rrcurveto
          323.58301 -217 -253 -168 -20.16699 -108 339.16699 233 0 86 rlineto
          -673.75 67 rmoveto
          56 callsubr
          177.83301 -457 rmoveto
          57 callsubr
          endchar
        </CharString>
        <CharString name="lig.24">
          180 72 118 72 hstem
          452.83301 442 rmoveto
          58 callsubr
          -118 vmoveto
          58 callsubr
          endchar
        </CharString>
        <CharString name="lig.25">
          27 -21 174 72 118 72 hstem
          234.66699 616 rmoveto
          -57.75 -54 57.75 -68 rlineto
          13.75 -17 15.58301 -17 27.5 -18 rrcurveto
          -725.08301 -72 771.83301 hlineto
          48.58301 -59 -48.58301 -59 -771.83301 0 0 -72 725.08301 0 rlineto
          -27.5 -18 -15.58301 -16 -13.75 -17 rrcurveto
          -57.75 -69 57.75 -54 248.41602 305 rlineto
          endchar
        </CharString>
        <CharString name="lig.26">
          180 72 118 72 hstem
          452.83301 370 rmoveto
          72 -344.66602 vlineto
          98.08301 180 -59.58301 33 -117.33398 -213 -482.16602 0 0 -72 442.75 0 -64.16699 -118 -378.58301 0 0 -72 339.16602 0 -92.58301 -168 61.41699 -34 110 202 487.66602 0 0 72 rlineto
          -448.25 0 64.16699 118 rlineto
          endchar
        </CharString>
        <CharString name="lig.27">
          -11 134 hstemhm
          -227.33301 122.83301 -105.41699 86.16699 -77 68.75 234.66699 122.83301 -105.41699 86.16699 -77 68.75 hintmask 10100000
          -123.75 689 rmoveto
          59 callsubr
          hintmask 10010000
          60 callsubr
          hintmask 10000100
          338.25 462 rmoveto
          59 callsubr
          hintmask 10000010
          60 callsubr
          -363.91699 -104 rmoveto
          hintmask 11000000
          61 callsubr
          330 hmoveto
          hintmask 10001000
          61 callsubr
          endchar
        </CharString>
        <CharString name="lig.28">
          -237.41699 117 rmoveto
          503.25 244 0 80 -503.25 244 -27.5 -68 451 -216 -451 -216 rlineto
          519.75 9 rmoveto
          -502.33301 -241 27.5 -68 502.33301 244 rlineto
          endchar
        </CharString>
        <CharString name="lig.29">
          -439.08301 582 rmoveto
          62 callsubr
          53.16699 227 rmoveto
          63 callsubr
          endchar
        </CharString>
        <CharString name="lig.3">
          228 73 27 73 hstem
          355.66699 386 rmoveto
          42 callsubr
          endchar
        </CharString>
        <CharString name="lig.30">
          277 72 269 -20 hstem
          435.41699 349 rmoveto
          -596.75 0 -219.08398 269 -57.75 -54 209.91699 -251 -209.91699 -251 57.75 -54 219.08398 269 596.75 0 rlineto
          endchar
        </CharString>
        <CharString name="lig.31">
          228 73 -24 72 -21 73 hstemhm
          hintmask 10100000
          382.25 386 rmoveto
          -23.83301 -48 -29.33398 -37 -37.58301 0 -55.91699 0 -29.33301 100 -91.66699 0 rrcurveto
          hintmask 01000000
          -75.16602 0 -4.58398 -51 -73.33301 -1 rrcurveto
          -396.91699 -72 411.58398 hlineto
          hintmask 10100000
          68.75 0 9.16602 51 57.75 0 58.66699 0 32.08301 -100 86.16699 0 80.66699 0 40.33301 69 27.5 57 rrcurveto
          endchar
        </CharString>
        <CharString name="lig.32">
          277 72 hstem
          241.08301 68.75 vstem
          241.08301 724 rmoveto
          -375 -601.33301 -72 601.33301 -379 68.75 826 vlineto
          endchar
        </CharString>
        <CharString name="lig.33">
          276 74 268 -20 hstem
          188.83301 618 rmoveto
          -57.75 -54 131.08398 -156 rlineto
          25.66602 -31 6.41699 -9 26.58301 -18 rrcurveto
          -756.25 -74 756.25 hlineto
          -22 -16 -18.33301 -20 -18.33301 -22 rrcurveto
          -131.08398 -156 57.75 -54 248.41699 305 rlineto
          endchar
        </CharString>
        <CharString name="lig.34">
          277 72 hstem
          -388.66699 277 rmoveto
          64 callsubr
          429 -72 rmoveto
          64 callsubr
          endchar
        </CharString>
        <CharString name="lig.35">
          277 72 269 -20 hstem
          438.16699 564 rmoveto
          -57.75 54 -219.08398 -269 -596.75 0 0 -72 596.75 0 219.08398 -269 57.75 54 -209.91699 251 rlineto
          endchar
        </CharString>
        <CharString name="lig.36">
          229 72 28 78 211 -20 hstem
          235.58301 401 rmoveto
          -105.41602 0 -15.58398 -100 -62.33301 0 -62.33301 0 -15.58398 106 -105.41602 0 -103.58398 0 -1.83301 -72 -76.08301 -8 rrcurveto
          23 vlineto
          22 16 18.33301 20 18.33301 22 rrcurveto
          131.08398 156 -57.75 54 -248.41699 -305 248.41699 -305 57.75 54 -131.08398 156 rlineto
          -10.08301 13 -7.33301 9 -7.33398 7 77.91699 13 14.66699 69 55 0 62.33301 0 15.58301 -100 105.41699 0 105.41699 0 15.58301 100 62.33301 0 33.91699 0 33.91699 -36 21.08301 -46 rrcurveto
          65.08301 35 rlineto
          -18.33301 49 -68.75 70 -66.91699 0 rrcurveto
          endchar
        </CharString>
        <CharString name="lig.37">
          26 -21 626 -20 hstemhm
          189.75 81.58301 -71.5 61.41699 hintmask 11100000
          189.75 631 rmoveto
          hintmask 11010000
          10.08301 -261 -223.66602 89 -27.5 -85 231.91602 -68 -139.33301 -197 68.75 -52 121.91699 210 135.66602 -216 66.91699 56 -152.16699 199 227.33398 69 -22.91699 84 -225.5 -88 rlineto
          hintmask 11100000
          10.08301 260 rlineto
          -305.25 -12 rmoveto
          65 callsubr
          endchar
        </CharString>
        <CharString name="lig.38">
          211.75 69.66699 vstem
          211.75 712 rmoveto
          -528.91699 -356 0 -86 528.91699 -359 69.66699 0 0 801 rlineto
          -69.66699 -711 rmoveto
          66 callsubr
          endchar
        </CharString>
        <CharString name="lig.39">
          47 162 198 162 hstem
          223.66699 147.58301 vstem
          -10.08301 598 rmoveto
          -435.41699 -243 0 -85 435.41699 -242 0 81 -363 204 363 204 rlineto
          381.33301 -28 rmoveto
          67 callsubr
          -361 vmoveto
          68 callsubr
          endchar
        </CharString>
        <CharString name="lig.4">
          -91 68 -23 63 211 73 27 73 -22 62 185 74 hstemhm
          27.5 74.25 166.83301 67.83398 121 79.75 hintmask 1011011110000000
          260.33301 700 rmoveto
          -45.83301 0 -142.08301 -4 -66 -91 -53.16699 -72 -31.16699 -116 -16.5 -31 -23.83301 -48 -29.33301 -37 -37.58398 0 -55.91602 0 -29.33398 100 -91.66602 0 -81.58398 0 -39.41602 -70 -27.5 -58 rrcurveto
          55 -30 rlineto
          23.83301 48 27.5 37 39.41699 0 58.66602 0 32.08398 -100 86.16602 0 80.66699 0 40.33301 69 27.5 57 15.58398 33 26.58301 103 49.5 64 53.16699 70 122.83301 2 33 0 rrcurveto
          167.75 28.41699 -151 -191 -172 0.91602 -135 -57.75 -35.75 -28.41602 24 107 hvcurveto
          296 vlineto
          hintmask 0110111110000000
          -51.33398 30 -35.75 7 -42.16602 0 rrcurveto
          -113.66699 -66 -83 -175 -132 37.58301 -97 99.91699 hvcurveto
          73.33301 0 34.83398 51 17.41602 47 rrcurveto
          3.66699 hlineto
          hintmask 1011011110000000
          -0.91699 -49 32.08398 -94 77 0 rrcurveto
          110 24.75 124 252 hvcurveto
          204 -40.33398 211 -236.5 vhcurveto
          8.25 -595 rmoveto
          hintmask 0110111110000000
          -11 -28 -19.25 -60 -64.16602 0 rrcurveto
          -55 -17.41699 69 97 130 24.75 66 83.41699 hvcurveto
          22 0 17.41602 -4 19.25 -10 rrcurveto
          endchar
        </CharString>
        <CharString name="lig.40">
          -57 77 616 66 hstem
          -4.58301 81.58301 86.16699 62.33301 115.5 83.41699 vstem
          447.33301 530 rmoveto
          89 vlineto
          -62.33301 44 -87.08301 31 -72.41699 8 rrcurveto
          146 -62.33301 -145 vlineto
          -112.75 -12 -55 -83 0 -80 0 -93 60.5 -59 107.25 -39 rrcurveto
          -317 vlineto
          -60.5 -4 -47.66699 8 -107.25 70 rrcurveto
          -323.58301 219 272.25 181 13.75 100 -352 -237 0 -87 389.58301 -265 rlineto
          90.75 -53 44.91699 -12 79.75 3 rrcurveto
          -96 62.33301 98 vlineto
          113.66699 18 85.25 88 0 126 0 124 -107.25 67 -91.66699 33 rrcurveto
          235 vlineto
          45.83301 -6 66 -23 110 -77 rrcurveto
          -284.16602 -107 rmoveto
          56 callsubr
          177.83301 -457 rmoveto
          57 callsubr
          endchar
        </CharString>
        <CharString name="lig.41">
          264.91699 617 rmoveto
          -27.5 68 -503.25 -244 0 -80 503.25 -244 27.5 68 -451 216 rlineto
          -96.25 -272 rmoveto
          502.33301 -244 27.5 68 -502.33301 241 rlineto
          endchar
        </CharString>
        <CharString name="lig.42">
          2 -21 661 -20 hstem
          642 vmoveto
          -423.5 -285 0 -87 423.5 -289 424.41699 289 0 86 rlineto
          -424.41699 -285 rmoveto
          -357.5 242 357.5 240 358.41699 -240 rlineto
          endchar
        </CharString>
        <CharString name="lig.43">
          276 74 268 -20 hstem
          -188.83301 618 rmoveto
          -248.41699 -305 248.41699 -305 57.75 54 -131.08398 156 rlineto
          -18.33301 22 -18.33301 20 -22 16 rrcurveto
          756.25 74 -756.25 hlineto
          26.58301 18 6.41699 9 25.66602 31 rrcurveto
          131.08398 156 rlineto
          endchar
        </CharString>
        <CharString name="lig.44">
          -19.25 582 rmoveto
          69 callsubr
          428.08301 65 rmoveto
          70 callsubr
          endchar
        </CharString>
        <CharString name="lig.45">
          26 -21 271 70 273 -20 hstem
          192.5 71.5 vstem
          -33.91699 619 rmoveto
          65 callsubr
          297.91699 65 rmoveto
          71 callsubr
          endchar
        </CharString>
        <CharString name="lig.46">
          348.33301 809 rmoveto
          -343.75 -772 -407.91602 276 323.58301 217 -37.58301 64 -352 -237 0 -87 443.66602 -301 -38.5 -87 62.33398 -30 411.58301 925 rlineto
          endchar
        </CharString>
        <CharString name="lig.47">
          -136 67 90 -21 170 64 82 68 72 66 247 67 hstem
          413.41699 769 rmoveto
          67 vlineto
          -102.66699 0 -95.33301 -34 11.91602 -122 rrcurveto
          15.58398 -158 -309.83398 0 21.08398 167 -65.08398 0 -21.08301 -167 -133.83301 0 21.08301 167 -65.08301 0 -21.08398 -167 -81.58301 0 0 -66 74.25 0 -28.41699 -222 -79.75 0 0 -64 rlineto
          72.41699 0 -20.16699 -170 65.08398 0 21.08301 170 132.91699 0 -20.16699 -170 65.08301 0 19.25 170 353.83398 0 -15.58398 -150 rlineto
          -11.91602 -122 95.33301 -34 102.66699 0 rrcurveto
          67 vlineto
          -66.91699 0 -53.16699 17 5.5 63 rrcurveto
          18.33398 205 rlineto
          8.25 88 -29.33398 33 -64.16602 13 63.25 13 30.25 37 -8.25 84 rrcurveto
          -18.33398 205 rlineto
          -5.5 62 53.16699 18 66.91699 0 rrcurveto
          -581.16699 -535 rmoveto
          50 callsubr
          386.83301 -222 rmoveto
          -349.25 0 26.58301 222 321.75 0 rlineto
          -3.66602 -47 -33 -25 -102.66699 0 rrcurveto
          -68 vlineto
          108.16699 0 30.25 -28 1.83301 -54 rrcurveto
          endchar
        </CharString>
        <CharString name="lig.48">
          -115 71 65 -21 170 64 222 66 221 72 hstemhm
          168.66699 230.08301 -230.08301 73.33301 hintmask 11111100
          398.75 743 rmoveto
          72 -230.08301 vlineto
          hintmask 11111010
          -293 -235.58398 vlineto
          21.08398 167 -65.08398 0 -21.08301 -167 -133.83301 0 21.08301 167 -65.08301 0 -21.08398 -167 -81.58301 0 0 -66 74.25 0 -28.41699 -222 -79.75 0 0 -64 72.41699 0 -20.16699 -170 rlineto
          65.08398 0 21.08301 170 132.91699 0 -20.16699 -170 65.08301 0 19.25 170 279.58398 0 rlineto
          hintmask 11111100
          -285 230.08301 71 vlineto
          hintmask 11111010
          -156.75 787 hlineto
          -409.75 -509 rmoveto
          50 callsubr
          37.58301 -222 rmoveto
          26.58301 222 243.83398 0 0 -222 rlineto
          endchar
        </CharString>
        <CharString name="lig.49">
          21 -21 188 65 -55 65 112 65 -55 66 hstemhm
          hintmask 11001000
          -139.33301 385 rmoveto
          81.58301 66 -73.33301 hlineto
          30.25 238 -65.08398 0 -30.25 -238 -133.83301 0 30.25 238 -65.08301 0 -30.25 -238 -81.58398 0 0 -66 74.25 0 -17.41602 -132 -79.75 0 0 -65 72.41602 0 -22 -188 rlineto
          65.08398 0 22 188 133.83301 0 -22 -188 65.08301 0 21.08398 188 83.41602 0 0 65 -74.25 0 rlineto
          hintmask 10010000
          599.5 187 rmoveto
          72 callsubr
          hintmask 11001000
          -798.41602 -122 rmoveto
          15.58301 132 134.75 0 -17.41699 -132 rlineto
          hintmask 10100000
          642.58398 10 rmoveto
          72 callsubr
          endchar
        </CharString>
        <CharString name="lig.5">
          180 72 68 70 41 71 hstem
          -137.5 502 rmoveto
          -103.58301 0 -58.66699 -81 -27.5 -58 rrcurveto
          55 -28 rlineto
          23.83301 48 46.75 48 61.41699 0 74.25 0 82.5 -111 103.58301 0 105.41699 0 74.25 69 27.5 57 rrcurveto
          -55 29 rlineto
          -23.83301 -47 -62.33398 -38 -63.25 0 -73.33301 0 -78.83301 112 -108.16699 0 rrcurveto
          452.83301 -250 rmoveto
          -630.66602 -72 630.66602 hlineto
          endchar
        </CharString>
        <CharString name="lig.50">
          0 128 42 64 222 66 hstem
          -38.5 456 rmoveto
          73 callsubr
          341.91602 2 rmoveto
          55 453 -84.33301 0 -55 -453 rlineto
          -456.5 -2 rmoveto
          74 callsubr
          387.75 -234 rmoveto
          17.41602 128 -102.66602 0 -17.41699 -128 rlineto
          endchar
        </CharString>
</ttFont>
